<?xml version="1.0" standalone="no"?>
<!DOCTYPE svg PUBLIC "-//W3C//DTD SVG 1.1//EN" "http://www.w3.org/Graphics/SVG/1.1/DTD/svg11.dtd" >
<svg xmlns="http://www.w3.org/2000/svg" xmlns:xlink="http://www.w3.org/1999/xlink" version="1.1">
<metadata>
Created by FontForge 20200427 at Fri Apr 20 16:21:53 2012
 By www
Copyright (c) 2012 by Goran Soderstrom. All rights reserved.
</metadata>
<defs>
<font id="TrimWebMedium" horiz-adv-x="450" >
  <font-face 
    font-family="Trim Web Medium"
    font-weight="500"
    font-stretch="normal"
    units-per-em="1000"
    panose-1="2 0 0 0 0 0 0 0 0 0"
    ascent="750"
    descent="-250"
    x-height="541"
    cap-height="700"
    bbox="-179 -246 1241 907"
    underline-thickness="82"
    underline-position="-99"
    unicode-range="U+000D-FB04"
  />
<missing-glyph horiz-adv-x="601" 
d="M65 800h471v-900h-471v900zM439 -16v732h-278v-732h278z" />
    <glyph glyph-name="ff" unicode="ff" horiz-adv-x="668" 
d="M24 541h58v91q6 15 18 32t32 30.5t50.5 22.5t72.5 9q31 0 54 -4t31 -7v-88q-5 1 -15.5 2t-23.5 1q-24 0 -40.5 -4.5t-27 -10.5t-16 -13t-8.5 -12v-49h183v91q6 15 18 32t32.5 30.5t50.5 22.5t72 9q31 0 54 -4t32 -7v-88q-5 1 -16 2t-24 1q-24 0 -40.5 -4.5t-27 -10.5
t-16 -13t-8.5 -12v-49h132v-93h-132v-448h-127v448h-183v-448h-127v448h-58v93z" />
    <glyph glyph-name="fi" unicode="fi" horiz-adv-x="596" 
d="M24 541h58v91q6 15 18 32t32 30.5t50.5 22.5t72.5 9q31 0 54 -4t31 -7v-88q-5 1 -15.5 2t-23.5 1q-25 0 -41.5 -4.5t-27 -10.5t-15.5 -13t-8 -12v-49h131v-93h-131v-448h-127v448h-58v93zM408 702q6 12 23 23.5t46 11.5t46.5 -11.5t22.5 -23.5v-53q-5 -13 -22.5 -24
t-46.5 -11t-46 11t-23 24v53zM413 541h127v-541h-127v541z" />
    <glyph glyph-name="fl" unicode="fl" horiz-adv-x="594" 
d="M24 541h58v91q6 15 18 32t32 30.5t50.5 22.5t72.5 9q31 0 54 -4t31 -7v-88q-5 1 -15.5 2t-23.5 1q-25 0 -41.5 -4.5t-27 -10.5t-15.5 -13t-8 -12v-49h131v-93h-131v-448h-127v448h-58v93zM412 700h127v-700h-127v700z" />
    <glyph glyph-name="ffi" unicode="ffi" horiz-adv-x="906" 
d="M24 541h58v91q6 15 18 32t32 30.5t50.5 22.5t72.5 9q32 0 53.5 -4t31.5 -7v-88q-5 1 -15.5 2t-23.5 1q-24 0 -40.5 -4.5t-27 -10.5t-16 -13t-8.5 -12v-49h183v91q6 15 18 32t32.5 30.5t50.5 22.5t72 9q32 0 53.5 -4t32.5 -7v-88q-5 1 -16 2t-24 1q-24 0 -40.5 -4.5
t-27 -10.5t-16 -13t-8.5 -12v-49h132v-93h-132v-448h-127v448h-183v-448h-127v448h-58v93zM724 541h126v-541h-126v541zM718 702q6 12 23 23.5t46 11.5q30 0 47 -11.5t22 -23.5v-53q-5 -13 -22 -24t-47 -11q-29 0 -46 11t-23 24v53z" />
    <glyph glyph-name="ffl" unicode="ffl" horiz-adv-x="906" 
d="M24 541h58v91q6 15 18 32t32 30.5t50.5 22.5t72.5 9q32 0 53.5 -4t31.5 -7v-88q-5 1 -15.5 2t-23.5 1q-24 0 -40.5 -4.5t-27 -10.5t-16 -13t-8.5 -12v-49h183v91q6 15 18 32t32.5 30.5t50.5 22.5t72 9q32 0 53.5 -4t32.5 -7v-88q-5 1 -16 2t-24 1q-24 0 -40.5 -4.5
t-27 -10.5t-16 -13t-8.5 -12v-49h132v-93h-132v-448h-127v448h-183v-448h-127v448h-58v93zM619 -73q42 0 68 20.5t37 46.5v547h126v-575q-9 -21 -27 -45t-46 -44t-67.5 -33t-90.5 -13v96zM718 702q6 12 23 23.5t46 11.5q30 0 47 -11.5t22 -23.5v-53q-5 -13 -22 -24t-47 -11
q-29 0 -46 11t-23 24v53z" />
    <glyph glyph-name="f_j" unicode="fj" horiz-adv-x="595" 
d="M24 541h58v91q6 15 18 32t32 30.5t50.5 22.5t72.5 9q31 0 54 -4t31 -7v-88q-5 1 -15.5 2t-23.5 1q-25 0 -41.5 -4.5t-27 -10.5t-15.5 -13t-8 -12v-49h131v-93h-131v-448h-127v448h-58v93zM308 -73q42 0 68 20.5t36 46.5v547h127v-575q-9 -21 -27 -45t-46 -44t-67.5 -33
t-90.5 -13v96zM407 702q5 12 22 23.5t46 11.5q30 0 47.5 -11.5t22.5 -23.5v-53q-5 -13 -22.5 -24t-47.5 -11q-29 0 -46 11t-22 24v53z" />
    <glyph glyph-name=".notdef" horiz-adv-x="601" 
d="M65 800h471v-900h-471v900zM439 -16v732h-278v-732h278z" />
    <glyph glyph-name=".null" horiz-adv-x="0" 
 />
    <glyph glyph-name=".null" horiz-adv-x="0" 
 />
    <glyph glyph-name="nonmarkingreturn" unicode="&#xd;" horiz-adv-x="196" 
 />
    <glyph glyph-name="space" unicode=" " horiz-adv-x="205" 
 />
    <glyph glyph-name="exclam" unicode="!" horiz-adv-x="281" 
d="M69 568v132h142v-132l-16 -396h-110zM71 87q6 11 23 23t46 12q30 0 47 -12t22 -23v-62q-5 -12 -22 -23.5t-47 -11.5q-29 0 -46 11.5t-23 23.5v62z" />
    <glyph glyph-name="quotedbl" unicode="&#x22;" horiz-adv-x="364" 
d="M37 590v110h110v-109l-16 -130h-78zM217 590v110h110v-109l-16 -130h-78z" />
    <glyph glyph-name="numbersign" unicode="#" horiz-adv-x="573" 
d="M310 68l20 126h-139l-31 -194h-89v68l20 126h-62v91h76l21 131h-61v91h76l31 193h90v-68l-21 -125h139l32 193h89v-68l-20 -125h62v-91h-77l-21 -131h63v-91h-77l-31 -194h-90v68zM206 285h139l21 131h-139z" />
    <glyph glyph-name="dollar" unicode="$" horiz-adv-x="589" 
d="M53 223h131v-76q4 -9 13 -19.5t22.5 -20t32 -15.5t42.5 -6t43 6t32.5 15.5t22.5 20t13 19.5v93q-8 18 -25 33t-63 26l-60 14q-54 13 -90 28t-59 31t-35.5 32.5t-19.5 31.5v146q6 13 19.5 32.5t37 39t56.5 35.5t77 22v82h104v-82q43 -7 76 -22.5t56 -34.5t37 -38.5
t20 -33.5v-96h-131v67q-4 9 -12.5 19.5t-22.5 20t-33 15.5t-43 6t-43 -6t-32.5 -15.5t-22 -20t-12.5 -19.5v-73q3 -8 8.5 -16t15.5 -15.5t26 -14.5t40 -13l59 -14q54 -13 89.5 -28t58 -31t35 -32.5t20.5 -32.5v-165q-7 -15 -21.5 -34.5t-37.5 -38t-55 -34t-75 -21.5v-83
h-104v83q-43 6 -75.5 21.5t-56 34t-37.5 38t-21 34.5v105z" />
    <glyph glyph-name="percent" unicode="%" horiz-adv-x="900" 
d="M137 449q7 -14 26.5 -24.5t46.5 -10.5t46 10.5t26 24.5v157q-7 14 -26 24.5t-46 10.5t-46.5 -10.5t-26.5 -24.5v-157zM45 619q6 16 19.5 32t34 29t48.5 21t63 8t63 -8t48.5 -21t34 -29t19.5 -32v-184q-6 -16 -19.5 -32t-34 -28.5t-48.5 -20.5t-63 -8t-63 8t-48.5 20.5
t-34 28.5t-19.5 32v184zM617 94q8 -14 27 -24.5t46 -10.5q28 0 46.5 10.5t25.5 24.5v157q-7 14 -25.5 25t-46.5 11q-27 0 -46 -11t-27 -25v-157zM525 265q6 16 19.5 31.5t34 28.5t48.5 21t63 8t63 -8t48.5 -21t34 -28.5t19.5 -31.5v-184q-6 -16 -19.5 -32t-34 -29t-48.5 -21
t-63 -8t-63 8t-48.5 21t-34 29t-19.5 32v184zM181 59l476 641h63v-59l-476 -641h-63v59z" />
    <glyph glyph-name="ampersand" unicode="&#x26;" horiz-adv-x="669" 
d="M58 590q8 17 26 38.5t46.5 41t68 32.5t91.5 13q51 0 90.5 -13t68 -32t46.5 -40.5t27 -39.5v-73h-127v49q-11 18 -37 34.5t-68 16.5t-68 -17t-37 -34v-111q11 -15 37 -30t68 -15h105v49h127v-49h131v-95h-131v-190q3 -5 8.5 -12t16 -13t27 -10.5t40.5 -4.5q13 0 23.5 0.5
t15.5 1.5v-87q-10 -3 -31.5 -7t-53.5 -4q-45 0 -76.5 10t-51.5 25q-28 -17 -65 -27.5t-85 -10.5q-53 0 -93 12.5t-69.5 32t-49 43t-29.5 46.5v151q13 26 36.5 51.5t60.5 43.5q-34 15 -55.5 34t-32.5 36v154zM290 83q35 0 61.5 13t43.5 33v186h-105q-43 0 -73.5 -18.5
t-41.5 -43.5v-108q14 -29 43.5 -45.5t71.5 -16.5z" />
    <glyph glyph-name="quotesingle" unicode="'" horiz-adv-x="184" 
d="M37 590v110h110v-109l-16 -130h-78z" />
    <glyph glyph-name="parenleft" unicode="(" horiz-adv-x="364" 
d="M320 607q-30 0 -51.5 -10t-36 -26.5t-23 -36.5t-12.5 -40v-452q4 -21 12.5 -41.5t22.5 -37.5t35.5 -27.5t52.5 -10.5h10v-93h-10q-58 0 -102.5 15t-76.5 38t-53 52t-32 58v542q11 28 32 57.5t53 52.5t76.5 38t102.5 15h10v-93h-10v0z" />
    <glyph glyph-name="parenright" unicode=")" horiz-adv-x="364" 
d="M44.0195 607q29.998 0 51.4971 -10q21.498 -10 35.998 -26.5q14.499 -16.5 22.998 -36.5q8.5 -20 12.499 -40v-452q-3.99902 -21 -12.499 -41.5q-8.49902 -20.5 -22.499 -37.5q-13.999 -17 -35.4971 -27.5q-21.499 -10.5 -52.4971 -10.5h-9.99902v-93h9.99902
q57.9961 0 102.494 15q44.4971 15 76.4951 38t52.9971 52q20.998 29 31.998 58v542q-11 28 -31.998 57.5q-20.999 29.5 -52.9971 52.5t-76.4951 38q-44.498 15 -102.494 15h-9.99902v-93h9.99902v0z" />
    <glyph glyph-name="asterisk" unicode="*" horiz-adv-x="493" 
d="M214 584l-21 155q12 8 26 10.5t28 2.5t28 -2.5t25 -10.5l-22 -155l142 69q11 -8 18 -21t12 -26q4 -13 5.5 -27t-1.5 -28l-157 -28l111 -115q-5 -13 -15 -23.5t-21 -18.5t-24 -14t-27 -7l-75 138l-74 -138q-14 1 -27 7t-24 14t-21 18.5t-15 23.5l110 115l-156 28
q-3 14 -1.5 28t5.5 27q5 13 12 26t18 21z" />
    <glyph glyph-name="plus" unicode="+" horiz-adv-x="585" 
d="M37 387h204v204h103v-204h204v-102h-204v-205h-103v205h-204v102z" />
    <glyph glyph-name="comma" unicode="," horiz-adv-x="210" 
d="M48 -64h26q8 0 17 5.5t14 13.5v35q-29 0 -46.5 11.5t-22.5 23.5v67q5 12 22.5 23.5t46.5 11.5t46.5 -11.5t22.5 -23.5v-148q-2 -8 -9.5 -18.5t-19 -20.5t-28 -17t-36.5 -7h-33v55z" />
    <glyph glyph-name="hyphen" unicode="-" horiz-adv-x="365" 
d="M37 387h291v-102h-291v102z" />
    <glyph glyph-name="period" unicode="." horiz-adv-x="210" 
d="M36 92q5 12 22.5 23.5t46.5 11.5t46.5 -11.5t22.5 -23.5v-67q-5 -12 -22.5 -23.5t-46.5 -11.5t-46.5 11.5t-22.5 23.5v67z" />
    <glyph glyph-name="slash" unicode="/" horiz-adv-x="404" 
d="M42 -42l212 773h107v-68l-211 -773h-108v68z" />
    <glyph glyph-name="zero" unicode="0" horiz-adv-x="589" 
d="M53 582q9 21 28.5 44t50 43t71 33t91.5 13t92 -13t71 -33t50 -43t29 -44v-464q-9 -20 -29 -43.5t-50 -43t-71 -32.5t-92 -13t-91.5 13t-71 32.5t-50 43t-28.5 43.5v464zM184 148q10 -24 39 -43t71 -19t71.5 19t39.5 43v405q-10 24 -39.5 42.5t-71.5 18.5t-71 -18.5
t-39 -42.5v-405z" />
    <glyph glyph-name="one" unicode="1" horiz-adv-x="412" 
d="M44 88h107v504l-107 -13v80l130 41h108v-612h101v-88h-339v88z" />
    <glyph glyph-name="two" unicode="2" horiz-adv-x="566" 
d="M44 99l290 284q25 25 38 39t15 22v109q-11 23 -40 42t-71 19t-68.5 -17.5t-37.5 -34.5v-95h-121v140q8 12 25.5 30.5t45 35.5t66.5 29.5t90 12.5q52 0 92.5 -13t70.5 -33t50 -43.5t29 -43.5v-168q-5 -12 -23.5 -33t-41.5 -43l-234 -225v-8h304v-105h-479v99z" />
    <glyph glyph-name="three" unicode="3" horiz-adv-x="572" 
d="M47 208h121v-60q11 -24 40 -43t71 -19t71 19t40 43v99q-10 27 -39 47.5t-71 20.5h-85v95h80q42 0 68.5 19t37.5 37v96q-11 17 -37.5 34.5t-68.5 17.5t-69.5 -17.5t-37.5 -34.5v-62h-121v107q7 12 24.5 30t45.5 35.5t67.5 30t90.5 12.5t91 -13t69.5 -32t48.5 -40.5
t28 -37.5v-145q-10 -18 -37 -40.5t-67 -39.5q43 -17 72 -44.5t41 -52.5v-152q-9 -20 -28.5 -43t-49.5 -43t-71 -33t-93 -13q-51 0 -90.5 13t-68.5 31t-47 38t-26 35v105z" />
    <glyph glyph-name="four" unicode="4" horiz-adv-x="585" 
d="M25 254l261 446h197v-443h83v-101h-83v-156h-126v156h-332v98zM357 257v333h-17l-192 -333h209z" />
    <glyph glyph-name="five" unicode="5" horiz-adv-x="562" 
d="M50 204h122v-56q11 -24 40 -43t71 -19t71 19t39 43v147q-10 23 -39 42t-71 19q-43 0 -67.5 -16t-34.5 -30h-121v390h450v-106h-329v-190q28 23 61 35.5t81 12.5q38 0 69.5 -10t56 -25.5t41 -35.5t25.5 -40v-238q-9 -15 -27 -35.5t-46.5 -38.5t-68 -30.5t-90.5 -12.5
t-90.5 12.5t-68 30.5t-47 38.5t-27.5 35.5v101z" />
    <glyph glyph-name="six" unicode="6" horiz-adv-x="577" 
d="M53 582q9 21 29 44.5t50 43t70.5 32.5t91.5 13t91 -12.5t68.5 -31t46.5 -39t27 -35.5v-100h-122v56q-10 23 -39.5 42t-71.5 19t-71 -19t-39 -42v-162q28 22 63.5 36t80.5 14q40 0 73 -10t58 -25.5t42 -35.5t26 -40v-227q-8 -15 -26 -35t-47 -38t-69 -31t-91 -13t-91.5 13
t-71 32.5t-50 43t-28.5 43.5v464zM293 345q-34 0 -61.5 -11t-47.5 -29v-157q10 -24 39 -43t71 -19t71.5 19t39.5 43v139q-9 23 -39 40.5t-73 17.5z" />
    <glyph glyph-name="seven" unicode="7" horiz-adv-x="498" 
d="M117 78l220 501v15h-322v106h454v-97l-248 -603h-104v78z" />
    <glyph glyph-name="eight" unicode="8" horiz-adv-x="583" 
d="M63 607q7 12 24.5 30t45 35.5t67 30t90.5 12.5q52 0 91 -12.5t67 -30t45 -36t25 -29.5v-170q-9 -14 -30.5 -35.5t-57.5 -40.5q41 -20 66 -47.5t36 -51.5v-144q-9 -20 -28.5 -43.5t-49.5 -43t-71 -32.5t-93 -13q-51 0 -92 13t-71 32.5t-49.5 43t-28.5 43.5v144
q11 23 36 50.5t64 48.5q-35 18 -56 40t-30 36v170zM180 148q11 -24 39.5 -43t70.5 -19t71.5 19t39.5 43v108q-10 24 -39.5 43t-71.5 19t-70.5 -19t-39.5 -43v-108zM184 454q11 -17 37.5 -34.5t68.5 -17.5t69 17.5t38 34.5v108q-11 17 -38 34.5t-69 17.5t-68.5 -17.5
t-37.5 -34.5v-108z" />
    <glyph glyph-name="nine" unicode="9" horiz-adv-x="575" 
d="M523 118q-10 -21 -29.5 -44t-49.5 -42.5t-71 -32.5t-92 -13t-90.5 12.5t-68 30.5t-46.5 38.5t-27 35.5v95h121v-50q10 -24 39.5 -43t71.5 -19t71 19t40 43v151q-28 -22 -64 -35.5t-82 -13.5q-39 0 -71 10t-57.5 26t-42.5 36.5t-26 40.5v234q8 15 26 35t46.5 38.5
t68.5 31.5t91 13t92 -13t71 -33t50 -43.5t29 -43.5v-464zM283 346q33 0 60 11t49 31v165q-11 23 -40 42t-71 19t-71 -19t-39 -42v-148q10 -24 39.5 -41.5t72.5 -17.5z" />
    <glyph glyph-name="colon" unicode=":" horiz-adv-x="224" 
d="M43 92q5 12 22.5 23.5t46.5 11.5t46.5 -11.5t22.5 -23.5v-67q-5 -12 -22.5 -23.5t-46.5 -11.5t-46.5 11.5t-22.5 23.5v67zM43 424q5 12 22.5 23.5t46.5 11.5t46.5 -11.5t22.5 -23.5v-67q-5 -12 -22.5 -23.5t-46.5 -11.5t-46.5 11.5t-22.5 23.5v67z" />
    <glyph glyph-name="semicolon" unicode=";" horiz-adv-x="224" 
d="M55 -64h26q8 0 17 5.5t14 13.5v35q-29 0 -46.5 11.5t-22.5 23.5v67q5 12 22.5 23.5t46.5 11.5t46.5 -11.5t22.5 -23.5v-148q-2 -8 -9.5 -18.5t-19 -20.5t-28 -17t-36.5 -7h-33v55zM43 424q5 12 22.5 23.5t46.5 11.5t46.5 -11.5t22.5 -23.5v-67q-5 -12 -22.5 -23.5
t-46.5 -11.5t-46.5 11.5t-22.5 23.5v67z" />
    <glyph glyph-name="less" unicode="&#x3c;" horiz-adv-x="585" 
d="M29 341l436 200h92v-70l-397 -174l397 -174v-70h-92l-436 199v89z" />
    <glyph glyph-name="equal" unicode="=" horiz-adv-x="585" 
d="M37 283h511v-102h-511v102zM37 493h511v-102h-511v102z" />
    <glyph glyph-name="greater" unicode="&#x3e;" horiz-adv-x="585" 
d="M29 123l396 174l-396 174v70h92l436 -200v-89l-436 -199h-92v70z" />
    <glyph glyph-name="question" unicode="?" horiz-adv-x="536" 
d="M157 299l147 102q24 17 43.5 32t27.5 27v96q-14 21 -42.5 37.5t-69.5 16.5q-42 0 -70 -16.5t-42 -37.5v-72h-122v124q12 15 31 34t47.5 35t67 27t88.5 11q54 0 94.5 -12.5t70 -31t49 -39.5t30.5 -39v-177q-5 -8 -14 -17.5t-20.5 -18.5t-23.5 -18t-22 -16l-141 -98v-66
h-129v117zM153 92q5 12 22 23.5t46 11.5q30 0 47.5 -11.5t22.5 -23.5v-67q-5 -12 -22.5 -23.5t-47.5 -11.5q-29 0 -46 11.5t-22 23.5v67z" />
    <glyph glyph-name="at" unicode="@" horiz-adv-x="919" 
d="M558 87q-25 -28 -61.5 -47t-89.5 -19q-41 0 -71.5 12t-52.5 30t-36 38.5t-21 37.5v273q7 17 21 37.5t36 38.5t52.5 30t71.5 12q51 0 86.5 -18t60.5 -44v48h127v-435h132v352q-12 28 -38.5 67.5t-69.5 76.5t-104 63t-141 26q-60 0 -114 -17t-100 -48t-82 -74t-58 -94v-312
q22 -51 58 -94t82 -74t100 -48.5t114 -17.5q53 0 101.5 13.5t91.5 38.5l33 -37q-50 -30 -107 -46.5t-119 -16.5q-68 0 -131 20t-115.5 56t-93.5 86t-65 110v331q25 60 66 110t93.5 86t115 56t130.5 20q90 0 160.5 -30t120.5 -73t81 -90t43 -81v-405h-307v52zM450 117
q37 0 63 12t41 29v234q-15 17 -41 29.5t-63 12.5q-21 0 -37.5 -5t-28.5 -12.5t-19.5 -15.5t-11.5 -15v-221q8 -14 31.5 -31t65.5 -17z" />
    <glyph glyph-name="A" unicode="A" horiz-adv-x="621" 
d="M27 78l183 622h201l183 -622v-78h-122l-55 203h-225l-55 -203h-110v78zM221 306h168l-75 277h-17z" />
    <glyph glyph-name="B" unicode="B" horiz-adv-x="596" 
d="M63 700h284q37 0 68 -10.5t55.5 -27t43.5 -38t31 -43.5v-142q-12 -20 -35 -41.5t-47 -34.5q23 -11 49 -31.5t40 -45.5v-167q-12 -21 -30.5 -42.5t-44 -38.5t-58 -27.5t-72.5 -10.5h-284v700zM323 409q29 0 54.5 15t41.5 40v78q-14 26 -40.5 42t-61.5 16h-117v-191h123z
M317 100q45 0 70 16.5t39 41.5v100q-14 24 -42 39.5t-61 15.5h-123v-213h117z" />
    <glyph glyph-name="C" unicode="C" horiz-adv-x="616" 
d="M570 277v-148q-11 -21 -30.5 -46t-50.5 -46.5t-74 -36t-101 -14.5t-102 14.5t-75.5 37t-52 49.5t-31.5 51v424q11 25 31.5 52t52 49.5t75.5 37t102 14.5t101 -14.5t74 -36t50.5 -46.5t30.5 -46v-139h-132v102q-12 29 -43.5 51.5t-80.5 22.5t-79.5 -22.5t-44.5 -51.5v-370
q12 -29 43.5 -51.5t80.5 -22.5t79.5 22.5t44.5 51.5v112h132z" />
    <glyph glyph-name="D" unicode="D" horiz-adv-x="627" 
d="M438 530q-12 29 -43.5 48t-80.5 19h-114v-494h114q49 0 80.5 19t43.5 48v360zM575 138q-11 -25 -30.5 -49.5t-48.5 -44t-67.5 -32t-87.5 -12.5h-278v700h278q49 0 87.5 -12.5t67.5 -32t48.5 -44t30.5 -49.5v-424z" />
    <glyph glyph-name="E" unicode="E" horiz-adv-x="524" 
d="M63 700h412v-103h-275v-187h255v-103h-255v-204h282v-103h-419v700z" />
    <glyph glyph-name="F" unicode="F" horiz-adv-x="507" 
d="M63 700h402v-103h-265v-191h251v-103h-251v-303h-137v700z" />
    <glyph glyph-name="G" unicode="G" horiz-adv-x="618" 
d="M325 382h245v-253q-11 -21 -30.5 -46t-50.5 -46.5t-74 -36t-101 -14.5t-102 14.5t-75.5 37t-52 49.5t-31.5 51v424q11 25 31.5 52t52 49.5t75.5 37t102 14.5t101 -14.5t74 -36t50.5 -46.5t30.5 -46v-111h-132v74q-12 29 -43.5 51.5t-80.5 22.5t-79.5 -22.5t-44.5 -51.5
v-370q12 -29 44.5 -51.5t81.5 -22.5q51 0 82 22t44 49v117h-117v103z" />
    <glyph glyph-name="H" unicode="H" horiz-adv-x="652" 
d="M63 700h137v-288h252v288h137v-700h-137v309h-252v-309h-137v700z" />
    <glyph glyph-name="I" unicode="I" horiz-adv-x="263" 
d="M63 700h137v-700h-137v700z" />
    <glyph glyph-name="J" unicode="J" horiz-adv-x="376" 
d="M20 103q5 -1 18 -1.5t21 -0.5q48 0 80 18.5t45 50.5v530h137v-562q-13 -28 -35 -53t-54 -44.5t-74.5 -31t-96.5 -11.5q-14 0 -24.5 0.5t-16.5 1.5v103z" />
    <glyph glyph-name="K" unicode="K" horiz-adv-x="586" 
d="M63 700h137v-270h17l236 270h99v-78l-208 -227l214 -317v-78h-105l-198 297l-55 -60v-237h-137v700z" />
    <glyph glyph-name="L" unicode="L" horiz-adv-x="457" 
d="M63 700h137v-597h235v-103h-372v700z" />
    <glyph glyph-name="M" unicode="M" horiz-adv-x="803" 
d="M63 700h185l148 -348h17l143 348h183v-700h-128v505h-18l-149 -353h-86l-149 353h-18v-505h-128v700z" />
    <glyph glyph-name="N" unicode="N" horiz-adv-x="665" 
d="M63 700h160l234 -474h17v474h128v-700h-160l-233 474h-18v-474h-128v700z" />
    <glyph glyph-name="O" unicode="O" horiz-adv-x="628" 
d="M190 165q13 -29 44 -51.5t80 -22.5t80 22.5t44 51.5v370q-13 29 -44 51.5t-80 22.5t-80 -22.5t-44 -51.5v-370zM53 562q11 25 31.5 52t52 49.5t75.5 37t102 14.5t102 -14.5t75.5 -37t52 -49.5t31.5 -52v-424q-11 -24 -31.5 -51t-52 -49.5t-75.5 -37t-102 -14.5t-102 14.5
t-75.5 37t-52 49.5t-31.5 51v424z" />
    <glyph glyph-name="P" unicode="P" horiz-adv-x="585" 
d="M63 700h277q66 0 120.5 -31t86.5 -88v-213q-14 -24 -34 -46t-46 -38t-58 -25.5t-69 -9.5h-140v-249h-137v700zM310 352q34 0 62 14.5t43 43.5v129q-17 32 -46.5 45t-59.5 13h-109v-245h110z" />
    <glyph glyph-name="Q" unicode="Q" horiz-adv-x="628" 
d="M53 562q11 25 31.5 52t52 49.5t75.5 37t102 14.5t102 -14.5t75.5 -37t52 -49.5t31.5 -52v-424q-8 -18 -21 -37t-31.5 -37t-43 -34t-55.5 -27q16 -26 42.5 -40.5t45.5 -14.5h63v-96h-76q-27 0 -56 10.5t-55 28.5t-47 42.5t-33 52.5q-56 1 -99 15.5t-74 37t-51.5 49
t-30.5 50.5v424zM190 165q13 -29 44 -51.5t80 -22.5t80 22.5t44 51.5v370q-13 29 -44 51.5t-80 22.5t-80 -22.5t-44 -51.5v-370z" />
    <glyph glyph-name="R" unicode="R" horiz-adv-x="603" 
d="M287 267h-87v-267h-137v700h283q65 0 119.5 -31t85.5 -88v-195q-20 -36 -51.5 -63.5t-73.5 -42.5l132 -202v-78h-105zM315 367q76 0 107 58v114q-15 29 -43.5 43.5t-63.5 14.5h-115v-230h115z" />
    <glyph glyph-name="S" unicode="S" horiz-adv-x="593" 
d="M45 223h132v-68q11 -23 41 -43.5t78 -20.5q49 0 78.5 21t40.5 43v79q-10 19 -29.5 34t-66.5 26l-60 14q-54 13 -91 27.5t-61 30.5t-38 32.5t-24 33.5v149q10 18 28.5 41t49 44t73 35t100.5 14t101 -14.5t73 -35t49 -43.5t28 -41v-95h-132v59q-11 23 -40.5 43.5
t-78.5 20.5q-48 0 -78 -21.5t-41 -42.5v-64q10 -19 30.5 -33.5t68.5 -25.5l59 -14q54 -13 90 -27.5t60 -30.5t38.5 -33t23.5 -34v-164q-10 -18 -29 -41t-49 -43.5t-72.5 -34.5t-100.5 -14t-100.5 14t-73 34.5t-49 43.5t-28.5 41v104z" />
    <glyph glyph-name="T" unicode="T" horiz-adv-x="534" 
d="M199 597h-175v103h486v-103h-174v-597h-137v597z" />
    <glyph glyph-name="U" unicode="U" horiz-adv-x="641" 
d="M581 700v-562q-11 -24 -31.5 -51t-52 -49.5t-75.5 -37t-102 -14.5q-57 0 -101 14.5t-75.5 37t-52 49.5t-31.5 51v562h137v-535q11 -29 42.5 -51.5t80.5 -22.5q50 0 80.5 22.5t43.5 51.5v535h137z" />
    <glyph glyph-name="V" unicode="V" horiz-adv-x="605" 
d="M27 622v78h127l144 -551h18l144 551h118v-78l-180 -622h-190z" />
    <glyph glyph-name="W" unicode="W" horiz-adv-x="915" 
d="M32 622v78h127l92 -523h18l122 523h133l123 -523h18l93 523h125v-78l-124 -622h-183l-115 458h-17l-115 -458h-173z" />
    <glyph glyph-name="X" unicode="X" horiz-adv-x="587" 
d="M39 78l167 272l-167 272v78h117l133 -250h18l136 250h105v-78l-168 -272l168 -272v-78h-117l-132 250h-18l-137 -250h-105v78z" />
    <glyph glyph-name="Y" unicode="Y" horiz-adv-x="564" 
d="M207 297l-178 325v78h117l129 -260h18l133 260h109v-78l-191 -337v-285h-137v297z" />
    <glyph glyph-name="Z" unicode="Z" horiz-adv-x="559" 
d="M39 86l308 497v14h-302v103h475v-86l-308 -496v-15h308v-103h-481v86z" />
    <glyph glyph-name="bracketleft" unicode="[" horiz-adv-x="367" 
d="M202 -75h124v-93h-261v868h261v-93h-124v-682z" />
    <glyph glyph-name="backslash" unicode="\" horiz-adv-x="404" 
d="M42 663v68h108l211 -773v-68h-107z" />
    <glyph glyph-name="bracketright" unicode="]" horiz-adv-x="367" 
d="M165.013 -75h-123.993v-93h260.984v868h-260.984v-93h123.993v-682z" />
    <glyph glyph-name="asciicircum" unicode="^" horiz-adv-x="508" 
d="M42 416l151 284h121l151 -284v-74h-82l-120 234h-18l-120 -234h-83v74z" />
    <glyph glyph-name="underscore" unicode="_" horiz-adv-x="506" 
d="M-5 -58h516v-82h-516v82z" />
    <glyph glyph-name="grave" unicode="`" 
d="M135 706v56h123l57 -153v-16h-99z" />
    <glyph glyph-name="a" unicode="a" horiz-adv-x="551" 
d="M380 41q-27 -25 -63.5 -40t-90.5 -15q-44 0 -76 9.5t-54 23t-34.5 27.5t-17.5 23v160q6 10 18.5 25.5t34 30t53.5 25t76 10.5q51 0 86.5 -12.5t60.5 -30.5v119q-11 25 -37 43.5t-68 18.5q-41 0 -64 -16.5t-32 -28.5v-44h-117v85q6 9 20.5 25.5t40 33.5t63.5 29.5t89 12.5
t90.5 -13t68 -33t46.5 -43.5t27 -44.5v-421h-120v41zM262 76q42 0 69.5 14t41.5 34v59q-14 20 -41.5 34.5t-69.5 14.5t-64 -14t-30 -25v-78q4 -5 11 -11.5t18.5 -12.5t27.5 -10.5t37 -4.5z" />
    <glyph glyph-name="b" unicode="b" horiz-adv-x="555" 
d="M54 700h127v-196q26 21 61 34.5t81 13.5q43 0 74.5 -12t54 -30t36.5 -38.5t21 -37.5v-327q-7 -17 -21 -37.5t-36.5 -38.5t-54 -30t-74.5 -12q-48 0 -85 14.5t-63 38.5v-42h-121v700zM285 455q-37 0 -63.5 -12t-40.5 -29v-287q14 -17 40.5 -29t63.5 -12q21 0 37.5 5
t28.5 12.5t19.5 15.5t11.5 15v273q-8 14 -31.5 31t-65.5 17z" />
    <glyph glyph-name="c" unicode="c" horiz-adv-x="536" 
d="M46 421q9 21 27.5 45t46.5 43.5t67.5 32.5t90.5 13t89.5 -13t65.5 -31.5t43.5 -39t24.5 -35.5v-103h-118v63q-10 24 -36.5 43t-68.5 19t-68 -19t-37 -43v-251q11 -24 37 -43t68 -19t68.5 19t36.5 43v63h118v-103q-7 -15 -23.5 -35.5t-44 -39t-66 -31.5t-89.5 -13
t-90.5 13t-67.5 32.5t-46.5 43.5t-27.5 45v301z" />
    <glyph glyph-name="d" unicode="d" horiz-adv-x="555" 
d="M381 44q-26 -23 -62.5 -39t-86.5 -16q-43 0 -75 12t-54.5 30t-36 38.5t-20.5 37.5v327q7 17 20.5 37.5t36 38.5t54.5 30t75 12q46 0 81 -13.5t61 -34.5v196h127v-700h-120v44zM270 86q37 0 63 12t41 29v287q-15 17 -41 29t-63 12q-21 0 -37.5 -5t-28.5 -12.5t-19.5 -15.5
t-11.5 -15v-273q8 -14 31.5 -31t65.5 -17z" />
    <glyph glyph-name="e" unicode="e" horiz-adv-x="544" 
d="M46 421q9 21 27.5 45t46.5 43.5t67.5 32.5t90.5 13t89.5 -13t65.5 -31.5t43.5 -39t24.5 -35.5v-203h-328v-89q11 -23 37 -42t68 -19t68.5 19t36.5 42v34h118v-73q-8 -15 -24.5 -35.5t-43.5 -39t-65.5 -31.5t-89.5 -13t-90.5 13t-67.5 32.5t-46.5 43.5t-27.5 45v301z
M173 322h210v74q-10 24 -36.5 43t-68.5 19t-68 -19t-37 -43v-74z" />
    <glyph glyph-name="f" unicode="f" horiz-adv-x="359" 
d="M24 541h58v91q6 15 18 32t32 30.5t50.5 22.5t72.5 9q31 0 54 -4t31 -7v-88q-5 1 -15.5 2t-23.5 1q-25 0 -41.5 -4.5t-27 -10.5t-15.5 -13t-8 -12v-49h131v-93h-131v-448h-127v448h-58v93z" />
    <glyph glyph-name="g" unicode="g" horiz-adv-x="555" 
d="M51 26h122v-51q8 -14 31.5 -30.5t64.5 -16.5q42 0 68 16.5t37 40.5v132q-26 -21 -61 -34.5t-81 -13.5q-43 0 -75 12t-54.5 30t-36 38.5t-20.5 37.5v247q7 17 20.5 37.5t36 38.5t54.5 30t75 12q48 0 84.5 -14.5t62.5 -37.5v41h122v-580q-9 -22 -27.5 -45t-46.5 -41.5
t-67.5 -30.5t-90.5 -12t-89 12t-64 29.5t-42 36.5t-23 33v83zM270 166q37 0 63 12t41 29v207q-15 17 -41 29t-63 12q-21 0 -37.5 -5t-28.5 -12.5t-19.5 -15.5t-11.5 -15v-193q8 -14 31.5 -31t65.5 -17z" />
    <glyph glyph-name="h" unicode="h" horiz-adv-x="561" 
d="M382 0v407q-8 14 -31.5 31t-65.5 17q-37 0 -63.5 -12t-40.5 -29v-414h-127v700h127v-196q26 21 61 34.5t81 13.5q43 0 74.5 -12t54 -30t36.5 -38.5t21 -37.5v-434h-127z" />
    <glyph glyph-name="i" unicode="i" horiz-adv-x="238" 
d="M50 702q6 12 23 23.5t46 11.5t46.5 -11.5t22.5 -23.5v-53q-5 -13 -22.5 -24t-46.5 -11t-46 11t-23 24v53zM55 541h127v-541h-127v541z" />
    <glyph glyph-name="j" unicode="j" horiz-adv-x="237" 
d="M-50 -73q42 0 68 20.5t36 46.5v547h127v-575q-9 -21 -27 -45t-46 -44t-67.5 -33t-90.5 -13v96zM49 702q5 12 22 23.5t46 11.5q30 0 47.5 -11.5t22.5 -23.5v-53q-5 -13 -22.5 -24t-47.5 -11q-29 0 -46 11t-22 24v53z" />
    <glyph glyph-name="k" unicode="k" horiz-adv-x="511" 
d="M54 700h127v-373h14l201 214h88v-71l-163 -166l170 -233v-71h-96l-159 218l-55 -56v-162h-127v700z" />
    <glyph glyph-name="l" unicode="l" horiz-adv-x="235" 
d="M54 700h127v-700h-127v700z" />
    <glyph glyph-name="m" unicode="m" horiz-adv-x="822" 
d="M349 0v413q-8 14 -26 28t-55 14q-32 0 -53.5 -11t-33.5 -26v-418h-127v541h119v-43q22 23 54.5 38.5t77.5 15.5q57 0 91.5 -21t54.5 -47q23 28 58 48t86 20q42 0 72.5 -11.5t51.5 -28.5t33 -36.5t18 -36.5v-439h-127v413q-8 14 -26 28t-55 14q-31 0 -52 -10.5t-34 -25.5
v-419h-127z" />
    <glyph glyph-name="n" unicode="n" horiz-adv-x="561" 
d="M382 0v407q-8 14 -31.5 31t-65.5 17q-37 0 -63.5 -12t-40.5 -29v-414h-127v541h119v-44q26 23 63 39t87 16q43 0 74.5 -12t54 -30t36.5 -38.5t21 -37.5v-434h-127z" />
    <glyph glyph-name="o" unicode="o" horiz-adv-x="556" 
d="M46 421q9 21 27.5 45t46.5 43.5t67.5 32.5t90.5 13t90.5 -13t67.5 -32.5t46.5 -43.5t27.5 -45v-301q-9 -21 -27.5 -45t-46.5 -43.5t-67.5 -32.5t-90.5 -13t-90.5 13t-67.5 32.5t-46.5 43.5t-27.5 45v301zM173 145q11 -24 37 -43t68 -19t68.5 19t36.5 43v251
q-10 24 -36.5 43t-68.5 19t-68 -19t-37 -43v-251z" />
    <glyph glyph-name="p" unicode="p" horiz-adv-x="555" 
d="M54 541h123v-41q26 23 62 37.5t84 14.5q43 0 74.5 -12t54 -30t36.5 -38.5t21 -37.5v-327q-7 -17 -21 -37.5t-36.5 -38.5t-54 -30t-74.5 -12q-46 0 -81 13.5t-61 34.5v-196h-127v700zM285 455q-37 0 -63.5 -12t-40.5 -29v-287q14 -17 40.5 -29t63.5 -12q21 0 37.5 5
t28.5 12.5t19.5 15.5t11.5 15v273q-8 14 -31.5 31t-65.5 17z" />
    <glyph glyph-name="q" unicode="q" horiz-adv-x="555" 
d="M374 37q-26 -21 -61 -34.5t-81 -13.5q-43 0 -75 12t-54.5 30t-36 38.5t-20.5 37.5v327q7 17 20.5 37.5t36 38.5t54.5 30t75 12q48 0 84.5 -14.5t62.5 -37.5v41h122v-700h-127v196zM270 86q37 0 63 12t41 29v287q-15 17 -41 29t-63 12q-21 0 -37.5 -5t-28.5 -12.5
t-19.5 -15.5t-11.5 -15v-273q8 -14 31.5 -31t65.5 -17z" />
    <glyph glyph-name="r" unicode="r" horiz-adv-x="371" 
d="M54 541h119v-73q21 30 57.5 51.5t96.5 21.5h8t13 -1v-112q-8 1 -14 1h-10q-55 0 -90.5 -13.5t-52.5 -32.5v-383h-127v541z" />
    <glyph glyph-name="s" unicode="s" horiz-adv-x="516" 
d="M45 172h117v-46q11 -15 34.5 -29.5t61.5 -14.5t61.5 14.5t34.5 29.5v51q-8 15 -28.5 25t-49.5 16l-60 13q-40 9 -69.5 20t-50 23t-33 23.5t-18.5 22.5v134q7 12 23 29t42 33t62.5 27.5t85.5 11.5t86 -11.5t62.5 -27.5t41 -33.5t23.5 -28.5v-83h-117v44q-11 15 -34.5 29.5
t-61.5 14.5t-61.5 -14.5t-34.5 -29.5v-44q9 -15 29.5 -24t49.5 -16l58 -13q80 -18 120 -43t52 -45v-142q-8 -12 -23.5 -29.5t-41.5 -33.5t-62.5 -27.5t-85.5 -11.5t-85.5 11.5t-62.5 28t-42 33.5t-23 29v84z" />
    <glyph glyph-name="t" unicode="t" horiz-adv-x="359" 
d="M24 541h58v113h127v-113h131v-93h-131v-323q3 -5 8.5 -12t16 -13t27 -10.5t40.5 -4.5q13 0 23.5 0.5t15.5 1.5v-87q-10 -3 -31.5 -7t-53.5 -4q-42 0 -72.5 9t-50.5 22.5t-32 30.5t-18 32v365h-58v93z" />
    <glyph glyph-name="u" unicode="u" horiz-adv-x="555" 
d="M179 541v-407q4 -7 11.5 -15.5t18.5 -15.5t27 -12t37 -5q37 0 62 11.5t39 28.5v415h127v-541h-119v42q-26 -23 -62 -38t-85 -15q-43 0 -74.5 12t-53 30t-35 38.5t-20.5 37.5v434h127z" />
    <glyph glyph-name="v" unicode="v" horiz-adv-x="528" 
d="M31 470v71h120l111 -400h17l112 400h106v-71l-148 -470h-169z" />
    <glyph glyph-name="w" unicode="w" horiz-adv-x="790" 
d="M34 470v71h119l80 -401h16l94 401h118l93 -401h16l80 401h106v-71l-116 -470h-149l-86 347h-15l-86 -347h-153z" />
    <glyph glyph-name="x" unicode="x" horiz-adv-x="501" 
d="M35 71l127 200l-127 199v71h108l103 -194h9l105 194h107v-71l-128 -199l128 -200v-71h-109l-103 194h-9l-105 -194h-106v71z" />
    <glyph glyph-name="y" unicode="y" horiz-adv-x="519" 
d="M205 7l-172 462v72h119l105 -364h17l102 364h110v-71l-184 -563q-25 -32 -72.5 -54.5t-113.5 -22.5q-24 0 -44.5 2.5t-31.5 5.5v90q10 -2 26 -2h24q35 0 62.5 12t39.5 26z" />
    <glyph glyph-name="z" unicode="z" horiz-adv-x="471" 
d="M29 86l256 351v11h-256v93h413v-81l-261 -356v-11h261v-93h-413v86z" />
    <glyph glyph-name="braceleft" unicode="{" horiz-adv-x="382" 
d="M86 163q-6 33 -24.5 42.5t-38.5 9.5v93q20 0 38.5 9.5t24.5 42.5v177q11 28 32 57.5t53 52.5t76.5 38t102.5 15v-93q-29 0 -49.5 -8.5t-35.5 -22.5t-24 -32.5t-14 -38.5v-164q-19 -50 -66 -80q46 -28 66 -79v-164q5 -20 14 -38.5t24 -32.5t35.5 -22.5t49.5 -8.5v-93
q-58 0 -102.5 15t-76.5 38t-53 52t-32 58v177z" />
    <glyph glyph-name="bar" unicode="|" horiz-adv-x="321" 
d="M92 790h136v-920h-136v920z" />
    <glyph glyph-name="braceright" unicode="}" horiz-adv-x="382" 
d="M296.005 163q6 33 24.499 42.5t38.4971 9.5v93q-19.998 0 -38.4971 9.5t-24.499 42.5v177q-10.999 28 -31.998 57.5q-20.998 29.5 -52.9961 52.5t-76.4961 38q-44.4971 15 -102.493 15v-93q28.998 0 49.4971 -8.5t35.498 -22.5t23.998 -32.5t13.999 -38.5v-164
q18.999 -50 65.9961 -80q-45.9971 -28 -65.9961 -79v-164q-5 -20 -13.999 -38.5t-23.998 -32.5t-35.498 -22.5t-49.4971 -8.5v-93q57.9961 0 102.493 15q44.498 15 76.4961 38t52.9961 52q20.999 29 31.998 58v177z" />
    <glyph glyph-name="asciitilde" unicode="~" horiz-adv-x="584" 
d="M33 398q16 12 37 23q18 8 43.5 15.5t57.5 7.5q36 0 70 -8t67 -17.5t65.5 -17.5t65.5 -8q25 0 45.5 7t35.5 15q18 10 31 22v-112q-13 -10 -30 -17q-14 -7 -34.5 -12t-46.5 -5q-39 0 -73 8t-66.5 17.5t-64.5 17.5t-67 8q-29 0 -54 -8t-43 -18q-21 -11 -39 -25v107z" />
    <glyph glyph-name="uni00A0" unicode="&#xa0;" horiz-adv-x="205" 
 />
    <glyph glyph-name="exclamdown" unicode="&#xa1;" horiz-adv-x="281" 
d="M212 -23v-132h-142v132l16 396h110zM210 458q-6 -11 -23 -23t-46 -12q-30 0 -47 12t-22 23v62q5 12 22 23.5t47 11.5q29 0 46 -11.5t23 -23.5v-62z" />
    <glyph glyph-name="cent" unicode="&#xa2;" horiz-adv-x="536" 
d="M46 421q8 18 22.5 38.5t37 39t52.5 32.5t69 20v83h105v-84q37 -6 66 -20t49.5 -30.5t34 -33.5t19.5 -30v-103h-118v63q-10 24 -36.5 43t-68.5 19t-68 -19t-37 -43v-251q11 -24 37 -43t68 -19t68.5 19t36.5 43v63h118v-103q-6 -13 -19.5 -30.5t-34 -34t-49.5 -30
t-66 -19.5v-84h-105v83q-39 6 -69 20t-52.5 32t-37 38.5t-22.5 39.5v301z" />
    <glyph glyph-name="sterling" unicode="&#xa3;" horiz-adv-x="607" 
d="M36 388h53v194q9 20 28.5 43t50 43t71 33.5t91.5 13.5t91 -13t69 -31.5t47 -38.5t26 -35v-93h-121v49q-11 24 -40.5 42.5t-71.5 18.5t-71 -19t-39 -42v-165h244l-9 -66h-235v-167q-6 -13 -14.5 -26t-19.5 -26h377v-103h-522v88q11 2 25.5 12.5t22.5 31.5v190h-53v66z" />
    <glyph glyph-name="currency" unicode="&#xa4;" horiz-adv-x="591" 
d="M57 576h84l27 -28q26 13 57.5 20.5t69.5 7.5q39 0 70.5 -7.5t57.5 -20.5l28 28h82v-62l-31 -31q15 -21 25 -42v-213q-10 -21 -24 -41l30 -30v-62h-82l-28 27q-26 -13 -57.5 -20.5t-70.5 -7.5t-70.5 7.5t-57.5 19.5l-26 -26h-84v62l30 30q-16 21 -24 41v213q10 21 25 42
l-31 31v62zM190 253q11 -24 37 -43t68 -19t68.5 19t36.5 43v164q-10 24 -36.5 43t-68.5 19t-68 -19t-37 -43v-164z" />
    <glyph glyph-name="yen" unicode="&#xa5;" horiz-adv-x="587" 
d="M32 403h130l-130 229v68h130l131 -257h14l131 257h117v-68l-130 -229h130v-65h-167l-29 -52v-26h196v-65h-196v-195h-137v195h-190v65h190v38l-23 40h-167v65z" />
    <glyph glyph-name="brokenbar" unicode="&#xa6;" horiz-adv-x="323" 
d="M92 790h136v-398h-136v398zM92 292h136v-422h-136v422z" />
    <glyph glyph-name="section" unicode="&#xa7;" horiz-adv-x="521" 
d="M473 247q-8 -11 -22.5 -27t-38.5 -31q25 -13 39.5 -27t21.5 -25v-129q-7 -12 -23 -29t-41.5 -33.5t-62.5 -28t-86 -11.5q-50 0 -86.5 11.5t-62 28t-41 34t-23.5 28.5v82h118v-51q10 -15 34 -29.5t62 -14.5q37 0 60.5 14.5t34.5 29.5v53q-9 15 -29 24.5t-49 16.5l-58 13
q-80 17 -120.5 42.5t-52.5 45.5v139q8 11 22.5 27t39.5 31q-26 14 -40.5 27.5t-21.5 24.5v130q7 11 23 28.5t42 34t62.5 28t86.5 11.5q49 0 85.5 -12t62 -28.5t41 -33.5t23.5 -28v-82h-117v51q-11 15 -34.5 29.5t-61.5 14.5q-37 0 -61 -14.5t-34 -29.5v-54q8 -14 28.5 -23.5
t49.5 -16.5l58 -13q79 -17 119.5 -42.5t52.5 -45.5v-140zM258 386q-36 -1 -59.5 -15.5t-33.5 -28.5v-62q8 -15 28 -24.5t49 -16.5l22 -5q36 1 58.5 15t33.5 29v63q-8 14 -28.5 23.5t-49.5 17.5z" />
    <glyph glyph-name="dieresis" unicode="&#xa8;" 
d="M55 708q6 6 20.5 15.5t43.5 9.5t44 -9.5t20 -15.5v-73q-5 -7 -20 -16t-44 -9t-43.5 9.5t-20.5 15.5v73zM269 708q5 6 20 15.5t44 9.5t44 -9.5t20 -15.5v-73q-5 -7 -20 -16t-44 -9t-44 9.5t-20 15.5v73z" />
    <glyph glyph-name="copyright" unicode="&#xa9;" horiz-adv-x="803" 
d="M37 350q0 75 28.5 141.5t78 116t116 78.5t141.5 29t141.5 -29t116 -78.5t78.5 -116t29 -141.5t-29 -141.5t-78.5 -116t-116 -78.5t-141.5 -29t-141.5 29t-116 78.5t-78 116t-28.5 141.5zM401 20q68 0 127.5 26t104 71t70 105t25.5 128t-25.5 128t-70 105t-104 71
t-127.5 26t-127 -26t-103.5 -71t-70 -105t-25.5 -128t25.5 -128t70 -105t103.5 -71t127 -26zM194 483q7 14 22.5 33t40.5 36t60.5 29t82.5 12t82 -11t59.5 -26t39 -31.5t22.5 -27.5v-98h-107v62q-10 14 -33 29t-61 15q-37 0 -60 -15t-33 -29v-224q10 -14 33 -29t60 -15
q38 0 61 15t33 29v62h107v-98q-8 -11 -22.5 -27t-39 -31t-59.5 -26t-82 -11t-82.5 12t-60.5 29t-40.5 35.5t-22.5 32.5v268z" />
    <glyph glyph-name="ordfeminine" unicode="&#xaa;" horiz-adv-x="413" 
d="M281 385q-19 -15 -46.5 -25.5t-62.5 -10.5q-28 0 -49 6t-35.5 15t-23 18t-12.5 15v99q4 6 13 16t23 19.5t35 16.5t49 7q35 0 61.5 -10.5t45.5 -24.5v81q-8 18 -27 31t-50 13t-47.5 -11.5t-21.5 -19.5v-26h-75v49q5 7 15 18.5t27.5 22t42.5 18.5t59 8t60.5 -8.5t46 -21.5
t32 -29t18.5 -32v-261h-78v27zM196 401q31 0 51.5 9t31.5 23v43q-11 13 -31.5 23t-51.5 10t-46 -9.5t-21 -17.5v-54q5 -7 20.5 -17t46.5 -10z" />
    <glyph glyph-name="guillemotleft" unicode="&#xab;" horiz-adv-x="612" 
d="M37 242v96l177 203h92v-68l-165 -183l165 -183v-67h-92zM301 242v96l177 203h92v-68l-165 -183l165 -183v-67h-92z" />
    <glyph glyph-name="logicalnot" unicode="&#xac;" horiz-adv-x="585" 
d="M37 387h511v-307h-103v205h-408v102z" />
    <glyph glyph-name="uni00AD" unicode="&#xad;" horiz-adv-x="365" 
d="M37 387h291v-102h-291v102z" />
    <glyph glyph-name="registered" unicode="&#xae;" horiz-adv-x="518" 
d="M20 585q0 49 19 92.5t51.5 76t76 51.5t92.5 19t92.5 -19t76 -51.5t51.5 -76t19 -92.5t-19 -92.5t-51.5 -76t-76 -51.5t-92.5 -19t-92.5 19t-76 51.5t-51.5 76t-19 92.5zM259 380q42 0 79 16t64.5 44t43 65.5t15.5 79.5t-15.5 79.5t-43 65.5t-64.5 44t-79 16t-79 -16
t-64.5 -44t-43 -65.5t-15.5 -79.5t15.5 -79.5t43 -65.5t64.5 -44t79 -16zM261 541h-39v-93h-62v281h125q26 0 51 -14.5t37 -39.5v-79q-8 -17 -21 -28.5t-29 -18.5l46 -64v-37h-54zM273 592q11 0 22.5 4t17.5 18v43q-6 13 -17.5 17.5t-22.5 4.5h-51v-87h51z" />
    <glyph glyph-name="macron" unicode="&#xaf;" 
d="M48 723h354v-89h-354v89z" />
    <glyph glyph-name="degree" unicode="&#xb0;" horiz-adv-x="387" 
d="M31 722q6 12 19 27t33 28t47 21.5t63 8.5t63.5 -9t47.5 -21.5t32.5 -27.5t18.5 -27v-130q-6 -12 -18.5 -27t-32.5 -28t-47.5 -22t-63.5 -9t-63 9t-47 22t-33 28t-19 27v130zM121 616q8 -13 25.5 -24t46.5 -11t47 11t26 24v81q-8 13 -26 24t-47 11t-46.5 -11t-25.5 -24
v-81z" />
    <glyph glyph-name="plusminus" unicode="&#xb1;" horiz-adv-x="585" 
d="M37 459h204v180h103v-180h204v-101h-204v-181h-103v181h-204v101zM37 122h511v-102h-511v102z" />
    <glyph glyph-name="two.superior" unicode="&#xb2;" horiz-adv-x="416" 
d="M44 349l197 161q16 12 24.5 20.5t10.5 12.5v67q-7 11 -26 21t-47 10q-27 0 -45 -9t-25 -18v-57h-86v87q6 7 17.5 18t30.5 21.5t46 18t62 7.5q36 0 63.5 -8t48 -20t34 -26t20.5 -26v-107q-3 -5 -14.5 -16t-28.5 -23l-158 -125v-3h204v-75h-328v69z" />
    <glyph glyph-name="three.superior" unicode="&#xb3;" horiz-adv-x="420" 
d="M47 407h85v-36q7 -12 26.5 -22t46.5 -10q28 0 47 10t27 22v57q-8 14 -27 24.5t-47 10.5h-58v66h56q26 0 44 10t25 19v56q-7 9 -25 18t-44 9q-28 0 -46 -9.5t-25 -17.5v-37h-85v67q5 7 16.5 18t31 21.5t46.5 18t62 7.5q34 0 61.5 -8t48 -19.5t33 -25t18.5 -23.5v-88
q-6 -10 -24 -23t-45 -23q29 -10 48.5 -25.5t27.5 -29.5v-93q-6 -12 -19.5 -26t-34 -26t-48.5 -20t-64 -8q-35 0 -62 8t-46.5 19t-32 22.5t-17.5 19.5v67z" />
    <glyph glyph-name="acute" unicode="&#xb4;" 
d="M135 609l57 153h123v-56l-80 -113h-100v16z" />
    <glyph glyph-name="mu" unicode="&#xb5;" horiz-adv-x="554" 
d="M500 0h-118v57q-23 -28 -60 -48t-92 -20q-14 0 -27 2t-24 4v-154h-127v700h127v-412q4 -6 11.5 -13.5t18.5 -14t27 -11.5t37 -5q38 0 62 11.5t38 26.5v418h127v-541z" />
    <glyph glyph-name="paragraph" unicode="&#xb6;" horiz-adv-x="668" 
d="M504 700h96v-800h-96v800zM397 -100h-96v339h-50q-38 0 -70 9.5t-58 25.5t-46 38t-33 46v223q32 57 86.5 88t120.5 31h146v-800z" />
    <glyph glyph-name="periodcentered" unicode="&#xb7;" horiz-adv-x="210" 
d="M36 374q5 12 22.5 23.5t46.5 11.5t46.5 -11.5t22.5 -23.5v-67q-5 -12 -22.5 -23.5t-46.5 -11.5t-46.5 11.5t-22.5 23.5v67z" />
    <glyph glyph-name="cedilla" unicode="&#xb8;" 
d="M134 -171q16 -6 34.5 -10.5t38.5 -4.5t34 6.5t19 14.5v41q-10 19 -50 19h-58l31 108h61l-17 -59h15q38 0 59 -16t29 -33v-85q-12 -25 -42 -40.5t-73 -15.5q-33 0 -58 6t-39 14z" />
    <glyph glyph-name="one.superior" unicode="&#xb9;" horiz-adv-x="311" 
d="M44 341h72v283l-72 -6v56l88 26h77v-359h68v-61h-233v61z" />
    <glyph glyph-name="ordmasculine" unicode="&#xba;" horiz-adv-x="417" 
d="M51 619q6 16 19 32t32.5 29t45.5 21.5t60 8.5t60.5 -8.5t46 -21.5t32.5 -29t19 -32v-178q-6 -16 -19 -32.5t-32.5 -29.5t-46 -21.5t-60.5 -8.5t-60 8.5t-45.5 21.5t-32.5 29.5t-19 32.5v178zM131 451q8 -17 27 -29.5t50 -12.5t50.5 12.5t27.5 29.5v156q-8 18 -27.5 31
t-50.5 13t-50 -13t-27 -31v-156z" />
    <glyph glyph-name="guillemotright" unicode="&#xbb;" horiz-adv-x="613" 
d="M42 107l165 183l-165 183v68h93l176 -203v-96l-176 -202h-93v67zM307 107l165 183l-165 183v68h93l176 -203v-96l-176 -202h-93v67z" />
    <glyph glyph-name="onequarter" unicode="&#xbc;" horiz-adv-x="899" 
d="M175 59l476 641h63v-59l-476 -641h-63v59zM45 341h72v283l-72 -6v56l88 26h77v-359h68v-61h-233v61zM485 158l175 263h139v-261h55v-70h-55v-89h-89v89h-225v68zM710 160v185h-12l-126 -185h138z" />
    <glyph glyph-name="onehalf" unicode="&#xbd;" horiz-adv-x="943" 
d="M45 341h72v283l-72 -6v56l88 26h77v-359h68v-61h-233v61zM175 59l476 641h63v-59l-476 -641h-63v59zM571 70l197 161q16 12 24.5 20.5t10.5 12.5v67q-7 11 -26 21t-47 10q-27 0 -45 -9t-25 -18v-57h-86v87q6 7 17.5 18t30.5 21.5t46 18t62 7.5q36 0 63.5 -8t48 -20
t34 -26t20.5 -26v-107q-3 -5 -14.5 -16t-28.5 -23l-158 -125v-3h204v-75h-328v69z" />
    <glyph glyph-name="threequarters" unicode="&#xbe;" horiz-adv-x="938" 
d="M217 59l476 641h63v-59l-476 -641h-63v59zM524 158l175 263h139v-261h55v-70h-55v-89h-89v89h-225v68zM749 160v185h-12l-126 -185h138zM46 407h85v-36q7 -12 26.5 -22t46.5 -10q28 0 47 10t27 22v57q-8 14 -27 24.5t-47 10.5h-58v66h56q26 0 44 10t25 19v56q-7 9 -25 18
t-44 9q-28 0 -46 -9.5t-25 -17.5v-37h-85v67q5 7 16.5 18t31 21.5t46.5 18t62 7.5q34 0 61.5 -8t48 -19.5t33 -25t18.5 -23.5v-88q-6 -10 -24 -23t-45 -23q29 -10 48.5 -25.5t27.5 -29.5v-93q-6 -12 -19.5 -26t-34 -26t-48.5 -20t-64 -8q-35 0 -62 8t-46.5 19t-32 22.5
t-17.5 19.5v67z" />
    <glyph glyph-name="questiondown" unicode="&#xbf;" horiz-adv-x="536" 
d="M379 246l-147 -102q-24 -17 -43.5 -32t-27.5 -27v-96q14 -21 42.5 -37.5t69.5 -16.5q42 0 70 16.5t42 37.5v72h122v-124q-12 -15 -31 -34t-47.5 -35t-67 -27t-88.5 -11q-54 0 -94.5 12.5t-70 31t-49 39.5t-30.5 39v177q4 8 13.5 17.5t21 18.5t23.5 17.5t22 16.5l141 98
v66h129v-117zM383 453q-5 -12 -22 -23.5t-46 -11.5q-30 0 -47.5 11.5t-22.5 23.5v67q5 12 22.5 23.5t47.5 11.5q29 0 46 -11.5t22 -23.5v-67z" />
    <glyph glyph-name="Agrave" unicode="&#xc0;" horiz-adv-x="621" 
d="M27 78l183 622h201l183 -622v-78h-122l-55 203h-225l-55 -203h-110v78zM221 306h168l-75 277h-17zM189 844v55h123l57 -142v-15h-99z" />
    <glyph glyph-name="Aacute" unicode="&#xc1;" horiz-adv-x="621" 
d="M27 78l183 622h201l183 -622v-78h-122l-55 203h-225l-55 -203h-110v78zM221 306h168l-75 277h-17zM248 757l57 142h123v-55l-80 -102h-100v15z" />
    <glyph glyph-name="Acircumflex" unicode="&#xc2;" horiz-adv-x="621" 
d="M27 78l183 622h201l183 -622v-78h-122l-55 203h-225l-55 -203h-110v78zM221 306h168l-75 277h-17zM143 757l83 142h163l83 -142v-15h-89l-75 93l-75 -93h-90v15z" />
    <glyph glyph-name="Atilde" unicode="&#xc3;" horiz-adv-x="621" 
d="M27 78l183 622h201l183 -622v-78h-122l-55 203h-225l-55 -203h-110v78zM221 306h168l-75 277h-17zM118 888h82v-36q3 -13 11.5 -23.5t28.5 -10.5q16 0 29.5 11.5t29.5 25t37 25t54 11.5q48 0 76.5 -25t33.5 -60v-68h-82v37q-3 13 -12 23t-29 10q-17 0 -30.5 -11.5
t-29 -25t-36.5 -24.5t-54 -11q-46 0 -74.5 25t-34.5 60v67z" />
    <glyph glyph-name="Adieresis" unicode="&#xc4;" horiz-adv-x="621" 
d="M27 78l183 622h201l183 -622v-78h-122l-55 203h-225l-55 -203h-110v78zM221 306h168l-75 277h-17zM139 845q6 7 20.5 16.5t43.5 9.5t44 -9.5t20 -16.5v-68q-5 -7 -20 -16.5t-44 -9.5t-43.5 9.5t-20.5 16.5v68zM351 845q5 7 20 16.5t44 9.5t44 -9.5t20 -16.5v-68
q-5 -7 -20 -16.5t-44 -9.5t-44 9.5t-20 16.5v68z" />
    <glyph glyph-name="Aring" unicode="&#xc5;" horiz-adv-x="621" 
d="M27 78l183 622h201l183 -622v-78h-122l-55 203h-225l-55 -203h-110v78zM221 306h168l-75 277h-17zM257 753q5 -7 18 -14.5t35 -7.5t34.5 7.5t17.5 14.5v59q-5 7 -17.5 14.5t-34.5 7.5t-35 -7.5t-18 -14.5v-59zM195 826q13 26 43 44t72 18q41 0 71 -18t44 -44v-87
q-14 -26 -44 -43.5t-71 -17.5q-42 0 -72 17.5t-43 43.5v87z" />
    <glyph glyph-name="AE" unicode="&#xc6;" horiz-adv-x="833" 
d="M372 190h-180l-66 -190h-106v78l226 622h537v-103h-274v-187h255v-103h-255v-204h282v-103h-419v190zM228 293h144v304h-38z" />
    <glyph glyph-name="Ccedilla" unicode="&#xc7;" horiz-adv-x="616" 
d="M570 277v-148q-11 -21 -30.5 -46t-50.5 -46.5t-74 -36t-101 -14.5t-102 14.5t-75.5 37t-52 49.5t-31.5 51v424q11 25 31.5 52t52 49.5t75.5 37t102 14.5t101 -14.5t74 -36t50.5 -46.5t30.5 -46v-139h-132v102q-12 29 -43.5 51.5t-80.5 22.5t-79.5 -22.5t-44.5 -51.5v-370
q12 -29 43.5 -51.5t80.5 -22.5t79.5 22.5t44.5 51.5v112h132zM230 -171q16 -6 34.5 -10.5t38.5 -4.5t34 6.5t19 14.5v41q-10 19 -50 19h-58l31 108h61l-17 -59h15q38 0 59 -16t29 -33v-85q-12 -25 -42 -40.5t-73 -15.5q-33 0 -58 6t-39 14z" />
    <glyph glyph-name="Egrave" unicode="&#xc8;" horiz-adv-x="524" 
d="M63 700h412v-103h-275v-187h255v-103h-255v-204h282v-103h-419v700zM156 844v55h123l57 -142v-15h-99z" />
    <glyph glyph-name="Eacute" unicode="&#xc9;" horiz-adv-x="524" 
d="M63 700h412v-103h-275v-187h255v-103h-255v-204h282v-103h-419v700zM217 757l57 142h123v-55l-80 -102h-100v15z" />
    <glyph glyph-name="Ecircumflex" unicode="&#xca;" horiz-adv-x="524" 
d="M63 700h412v-103h-275v-187h255v-103h-255v-204h282v-103h-419v700zM107 757l83 142h163l83 -142v-15h-89l-75 93l-75 -93h-90v15z" />
    <glyph glyph-name="Edieresis" unicode="&#xcb;" horiz-adv-x="524" 
d="M63 700h412v-103h-275v-187h255v-103h-255v-204h282v-103h-419v700zM104 845q6 7 20.5 16.5t43.5 9.5t44 -9.5t20 -16.5v-68q-5 -7 -20 -16.5t-44 -9.5t-43.5 9.5t-20.5 16.5v68zM316 845q5 7 20 16.5t44 9.5t44 -9.5t20 -16.5v-68q-5 -7 -20 -16.5t-44 -9.5t-44 9.5
t-20 16.5v68z" />
    <glyph glyph-name="Igrave" unicode="&#xcc;" horiz-adv-x="263" 
d="M63 700h137v-700h-137v700zM21 844v55h123l57 -142v-15h-99z" />
    <glyph glyph-name="Iacute" unicode="&#xcd;" horiz-adv-x="263" 
d="M63 700h137v-700h-137v700zM64 757l57 142h123v-55l-80 -102h-100v15z" />
    <glyph glyph-name="Icircumflex" unicode="&#xce;" horiz-adv-x="263" 
d="M63 700h137v-700h-137v700zM-31 757l83 142h163l83 -142v-15h-89l-75 93l-75 -93h-90v15z" />
    <glyph glyph-name="Idieresis" unicode="&#xcf;" horiz-adv-x="263" 
d="M63 700h137v-700h-137v700zM-35 847q6 7 20.5 16.5t43.5 9.5t44 -9.5t20 -16.5v-68q-5 -7 -20 -16.5t-44 -9.5t-43.5 9.5t-20.5 16.5v68zM177 847q5 7 20 16.5t44 9.5t44 -9.5t20 -16.5v-68q-5 -7 -20 -16.5t-44 -9.5t-44 9.5t-20 16.5v68z" />
    <glyph glyph-name="Eth" unicode="&#xd0;" horiz-adv-x="657" 
d="M35 407h48v293h277q49 0 88 -12.5t67.5 -32t48 -44t30.5 -49.5v-424q-11 -25 -30.5 -49.5t-48 -44t-67.5 -32t-88 -12.5h-277v304h-48v103zM457 530q-11 29 -43 48t-80 19h-115v-190h133v-103h-133v-201h115q48 0 80 19t43 48v360z" />
    <glyph glyph-name="Ntilde" unicode="&#xd1;" horiz-adv-x="665" 
d="M63 700h160l234 -474h17v474h128v-700h-160l-233 474h-18v-474h-128v700zM148 889h82v-36q3 -13 11.5 -23.5t28.5 -10.5q16 0 29.5 11.5t29.5 25t37 25t54 11.5q48 0 76.5 -25t33.5 -60v-68h-82v37q-3 13 -12 23t-29 10q-17 0 -30.5 -11.5t-29 -25t-36.5 -24.5t-54 -11
q-46 0 -74.5 25t-34.5 60v67z" />
    <glyph glyph-name="Ograve" unicode="&#xd2;" horiz-adv-x="628" 
d="M190 165q13 -29 44 -51.5t80 -22.5t80 22.5t44 51.5v370q-13 29 -44 51.5t-80 22.5t-80 -22.5t-44 -51.5v-370zM53 562q11 25 31.5 52t52 49.5t75.5 37t102 14.5t102 -14.5t75.5 -37t52 -49.5t31.5 -52v-424q-11 -24 -31.5 -51t-52 -49.5t-75.5 -37t-102 -14.5t-102 14.5
t-75.5 37t-52 49.5t-31.5 51v424zM188 850v55h123l57 -142v-15h-99z" />
    <glyph glyph-name="Oacute" unicode="&#xd3;" horiz-adv-x="628" 
d="M190 165q13 -29 44 -51.5t80 -22.5t80 22.5t44 51.5v370q-13 29 -44 51.5t-80 22.5t-80 -22.5t-44 -51.5v-370zM53 562q11 25 31.5 52t52 49.5t75.5 37t102 14.5t102 -14.5t75.5 -37t52 -49.5t31.5 -52v-424q-11 -24 -31.5 -51t-52 -49.5t-75.5 -37t-102 -14.5t-102 14.5
t-75.5 37t-52 49.5t-31.5 51v424zM263 763l57 142h123v-55l-80 -102h-100v15z" />
    <glyph glyph-name="Ocircumflex" unicode="&#xd4;" horiz-adv-x="628" 
d="M190 165q13 -29 44 -51.5t80 -22.5t80 22.5t44 51.5v370q-13 29 -44 51.5t-80 22.5t-80 -22.5t-44 -51.5v-370zM53 562q11 25 31.5 52t52 49.5t75.5 37t102 14.5t102 -14.5t75.5 -37t52 -49.5t31.5 -52v-424q-11 -24 -31.5 -51t-52 -49.5t-75.5 -37t-102 -14.5t-102 14.5
t-75.5 37t-52 49.5t-31.5 51v424zM150 763l83 142h163l83 -142v-15h-89l-75 93l-75 -93h-90v15z" />
    <glyph glyph-name="Otilde" unicode="&#xd5;" horiz-adv-x="628" 
d="M190 165q13 -29 44 -51.5t80 -22.5t80 22.5t44 51.5v370q-13 29 -44 51.5t-80 22.5t-80 -22.5t-44 -51.5v-370zM53 562q11 25 31.5 52t52 49.5t75.5 37t102 14.5t102 -14.5t75.5 -37t52 -49.5t31.5 -52v-424q-11 -24 -31.5 -51t-52 -49.5t-75.5 -37t-102 -14.5t-102 14.5
t-75.5 37t-52 49.5t-31.5 51v424zM123 894h82v-36q3 -13 11.5 -23.5t28.5 -10.5q16 0 29.5 11.5t29.5 25t37 25t54 11.5q48 0 76.5 -25t33.5 -60v-68h-82v37q-3 13 -12 23t-29 10q-17 0 -30.5 -11.5t-29 -25t-36.5 -24.5t-54 -11q-46 0 -74.5 25t-34.5 60v67z" />
    <glyph glyph-name="Odieresis" unicode="&#xd6;" horiz-adv-x="628" 
d="M190 165q13 -29 44 -51.5t80 -22.5t80 22.5t44 51.5v370q-13 29 -44 51.5t-80 22.5t-80 -22.5t-44 -51.5v-370zM53 562q11 25 31.5 52t52 49.5t75.5 37t102 14.5t102 -14.5t75.5 -37t52 -49.5t31.5 -52v-424q-11 -24 -31.5 -51t-52 -49.5t-75.5 -37t-102 -14.5t-102 14.5
t-75.5 37t-52 49.5t-31.5 51v424zM144 848q6 7 20.5 16.5t43.5 9.5t44 -9.5t20 -16.5v-68q-5 -7 -20 -16.5t-44 -9.5t-43.5 9.5t-20.5 16.5v68zM356 848q5 7 20 16.5t44 9.5t44 -9.5t20 -16.5v-68q-5 -7 -20 -16.5t-44 -9.5t-44 9.5t-20 16.5v68z" />
    <glyph glyph-name="multiply" unicode="&#xd7;" horiz-adv-x="585" 
d="M47 163l172 173l-172 172v68h78l168 -168l168 168h76v-68l-172 -172l172 -173v-68h-76l-168 167l-168 -167h-78v68z" />
    <glyph glyph-name="Oslash" unicode="&#xd8;" horiz-adv-x="628" 
d="M53 40l32 45q-22 28 -32 53v424q11 25 31.5 52t52 49.5t75.5 37t102 14.5t102 -15t76 -38l27 38h54v-40l-31 -44q11 -14 19 -27.5t14 -26.5v-424q-11 -24 -31.5 -51t-52 -49.5t-75.5 -37t-102 -14.5q-60 0 -104 15t-76 38l-27 -39h-54v40zM314 91q49 0 80 22.5t44 51.5
v303l-233 -329q17 -21 44 -34.5t65 -13.5zM190 233l231 329q-17 20 -43.5 33.5t-63.5 13.5q-49 0 -80 -22.5t-44 -51.5v-302z" />
    <glyph glyph-name="Ugrave" unicode="&#xd9;" horiz-adv-x="645" 
d="M583 700v-562q-11 -24 -31.5 -51t-52 -49.5t-75.5 -37t-102 -14.5q-57 0 -101 14.5t-75.5 37t-52 49.5t-31.5 51v562h137v-535q11 -29 42.5 -51.5t80.5 -22.5q50 0 80.5 22.5t43.5 51.5v535h137zM198 844v55h123l57 -142v-15h-99z" />
    <glyph glyph-name="Uacute" unicode="&#xda;" horiz-adv-x="645" 
d="M583 700v-562q-11 -24 -31.5 -51t-52 -49.5t-75.5 -37t-102 -14.5q-57 0 -101 14.5t-75.5 37t-52 49.5t-31.5 51v562h137v-535q11 -29 42.5 -51.5t80.5 -22.5q50 0 80.5 22.5t43.5 51.5v535h137zM268 757l57 142h123v-55l-80 -102h-100v15z" />
    <glyph glyph-name="Ucircumflex" unicode="&#xdb;" horiz-adv-x="645" 
d="M583 700v-562q-11 -24 -31.5 -51t-52 -49.5t-75.5 -37t-102 -14.5q-57 0 -101 14.5t-75.5 37t-52 49.5t-31.5 51v562h137v-535q11 -29 42.5 -51.5t80.5 -22.5q50 0 80.5 22.5t43.5 51.5v535h137zM159 757l83 142h163l83 -142v-15h-89l-75 93l-75 -93h-90v15z" />
    <glyph glyph-name="Udieresis" unicode="&#xdc;" horiz-adv-x="645" 
d="M583 700v-562q-11 -24 -31.5 -51t-52 -49.5t-75.5 -37t-102 -14.5q-57 0 -101 14.5t-75.5 37t-52 49.5t-31.5 51v562h137v-535q11 -29 42.5 -51.5t80.5 -22.5q50 0 80.5 22.5t43.5 51.5v535h137zM154 848q6 7 20.5 16.5t43.5 9.5t44 -9.5t20 -16.5v-68q-5 -7 -20 -16.5
t-44 -9.5t-43.5 9.5t-20.5 16.5v68zM366 848q5 7 20 16.5t44 9.5t44 -9.5t20 -16.5v-68q-5 -7 -20 -16.5t-44 -9.5t-44 9.5t-20 16.5v68z" />
    <glyph glyph-name="Yacute" unicode="&#xdd;" horiz-adv-x="564" 
d="M207 297l-178 325v78h117l129 -260h18l133 260h109v-78l-191 -337v-285h-137v297zM229 757l57 142h123v-55l-80 -102h-100v15z" />
    <glyph glyph-name="Thorn" unicode="&#xde;" horiz-adv-x="585" 
d="M63 700h137v-104h140q66 0 120.5 -30.5t86.5 -87.5v-224q-14 -24 -34 -45.5t-46 -38t-58 -26t-69 -9.5h-140v-135h-137v700zM310 238q34 0 62 14.5t43 43.5v140q-17 31 -46.5 44.5t-59.5 13.5h-109v-256h110z" />
    <glyph glyph-name="germandbls" unicode="&#xdf;" horiz-adv-x="559" 
d="M54 591q10 20 29 42t46.5 40t65 30t85.5 12t85.5 -11.5t64.5 -28.5t44 -36t25 -33v-173q-11 -19 -31.5 -36.5t-43.5 -27.5q40 -20 61.5 -46t32.5 -51v-152q-28 -61 -84.5 -90.5t-160.5 -29.5v98q40 0 69.5 8.5t48.5 46.5v100q-14 32 -44 46.5t-62 14.5v97q32 0 57.5 12.5
t39.5 34.5v107q-13 23 -39.5 37.5t-62.5 14.5q-38 0 -63 -16t-36 -36v-565h-127v591z" />
    <glyph glyph-name="agrave" unicode="&#xe0;" horiz-adv-x="551" 
d="M380 41q-27 -25 -63.5 -40t-90.5 -15q-44 0 -76 9.5t-54 23t-34.5 27.5t-17.5 23v160q6 10 18.5 25.5t34 30t53.5 25t76 10.5q51 0 86.5 -12.5t60.5 -30.5v119q-11 25 -37 43.5t-68 18.5q-41 0 -64 -16.5t-32 -28.5v-44h-117v85q6 9 20.5 25.5t40 33.5t63.5 29.5t89 12.5
t90.5 -13t68 -33t46.5 -43.5t27 -44.5v-421h-120v41zM262 76q42 0 69.5 14t41.5 34v59q-14 20 -41.5 34.5t-69.5 14.5t-64 -14t-30 -25v-78q4 -5 11 -11.5t18.5 -12.5t27.5 -10.5t37 -4.5zM149 706v56h123l57 -153v-16h-99z" />
    <glyph glyph-name="aacute" unicode="&#xe1;" horiz-adv-x="551" 
d="M380 41q-27 -25 -63.5 -40t-90.5 -15q-44 0 -76 9.5t-54 23t-34.5 27.5t-17.5 23v160q6 10 18.5 25.5t34 30t53.5 25t76 10.5q51 0 86.5 -12.5t60.5 -30.5v119q-11 25 -37 43.5t-68 18.5q-41 0 -64 -16.5t-32 -28.5v-44h-117v85q6 9 20.5 25.5t40 33.5t63.5 29.5t89 12.5
t90.5 -13t68 -33t46.5 -43.5t27 -44.5v-421h-120v41zM262 76q42 0 69.5 14t41.5 34v59q-14 20 -41.5 34.5t-69.5 14.5t-64 -14t-30 -25v-78q4 -5 11 -11.5t18.5 -12.5t27.5 -10.5t37 -4.5zM222 609l57 153h123v-56l-80 -113h-100v16z" />
    <glyph glyph-name="acircumflex" unicode="&#xe2;" horiz-adv-x="551" 
d="M380 41q-27 -25 -63.5 -40t-90.5 -15q-44 0 -76 9.5t-54 23t-34.5 27.5t-17.5 23v160q6 10 18.5 25.5t34 30t53.5 25t76 10.5q51 0 86.5 -12.5t60.5 -30.5v119q-11 25 -37 43.5t-68 18.5q-41 0 -64 -16.5t-32 -28.5v-44h-117v85q6 9 20.5 25.5t40 33.5t63.5 29.5t89 12.5
t90.5 -13t68 -33t46.5 -43.5t27 -44.5v-421h-120v41zM262 76q42 0 69.5 14t41.5 34v59q-14 20 -41.5 34.5t-69.5 14.5t-64 -14t-30 -25v-78q4 -5 11 -11.5t18.5 -12.5t27.5 -10.5t37 -4.5zM113 606l83 153h163l83 -153v-15h-89l-75 103l-75 -103h-90v15z" />
    <glyph glyph-name="atilde" unicode="&#xe3;" horiz-adv-x="551" 
d="M380 41q-27 -25 -63.5 -40t-90.5 -15q-44 0 -76 9.5t-54 23t-34.5 27.5t-17.5 23v160q6 10 18.5 25.5t34 30t53.5 25t76 10.5q51 0 86.5 -12.5t60.5 -30.5v119q-11 25 -37 43.5t-68 18.5q-41 0 -64 -16.5t-32 -28.5v-44h-117v85q6 9 20.5 25.5t40 33.5t63.5 29.5t89 12.5
t90.5 -13t68 -33t46.5 -43.5t27 -44.5v-421h-120v41zM262 76q42 0 69.5 14t41.5 34v59q-14 20 -41.5 34.5t-69.5 14.5t-64 -14t-30 -25v-78q4 -5 11 -11.5t18.5 -12.5t27.5 -10.5t37 -4.5zM87 746h82v-36q3 -13 11.5 -23.5t28.5 -10.5q16 0 29.5 11.5t29.5 25t37 25t54 11.5
q48 0 76.5 -25t33.5 -60v-68h-82v37q-3 13 -12 23t-29 10q-17 0 -30.5 -11.5t-29 -25t-36.5 -24.5t-54 -11q-46 0 -74.5 25t-34.5 60v67z" />
    <glyph glyph-name="adieresis" unicode="&#xe4;" horiz-adv-x="551" 
d="M380 41q-27 -25 -63.5 -40t-90.5 -15q-44 0 -76 9.5t-54 23t-34.5 27.5t-17.5 23v160q6 10 18.5 25.5t34 30t53.5 25t76 10.5q51 0 86.5 -12.5t60.5 -30.5v119q-11 25 -37 43.5t-68 18.5q-41 0 -64 -16.5t-32 -28.5v-44h-117v85q6 9 20.5 25.5t40 33.5t63.5 29.5t89 12.5
t90.5 -13t68 -33t46.5 -43.5t27 -44.5v-421h-120v41zM262 76q42 0 69.5 14t41.5 34v59q-14 20 -41.5 34.5t-69.5 14.5t-64 -14t-30 -25v-78q4 -5 11 -11.5t18.5 -12.5t27.5 -10.5t37 -4.5zM111 708q6 6 20.5 15.5t43.5 9.5t44 -9.5t20 -15.5v-73q-5 -7 -20 -16t-44 -9
t-43.5 9.5t-20.5 15.5v73zM325 708q5 6 20 15.5t44 9.5t44 -9.5t20 -15.5v-73q-5 -7 -20 -16t-44 -9t-44 9.5t-20 15.5v73z" />
    <glyph glyph-name="aring" unicode="&#xe5;" horiz-adv-x="551" 
d="M380 41q-27 -25 -63.5 -40t-90.5 -15q-44 0 -76 9.5t-54 23t-34.5 27.5t-17.5 23v160q6 10 18.5 25.5t34 30t53.5 25t76 10.5q51 0 86.5 -12.5t60.5 -30.5v119q-11 25 -37 43.5t-68 18.5q-41 0 -64 -16.5t-32 -28.5v-44h-117v85q6 9 20.5 25.5t40 33.5t63.5 29.5t89 12.5
t90.5 -13t68 -33t46.5 -43.5t27 -44.5v-421h-120v41zM262 76q42 0 69.5 14t41.5 34v59q-14 20 -41.5 34.5t-69.5 14.5t-64 -14t-30 -25v-78q4 -5 11 -11.5t18.5 -12.5t27.5 -10.5t37 -4.5zM227 661q5 -7 18 -14.5t35 -7.5t34.5 7.5t17.5 14.5v61q-5 7 -17.5 14.5t-34.5 7.5
t-35 -7.5t-18 -14.5v-61zM165 736q13 26 43 44t72 18q41 0 71 -18t44 -44v-89q-14 -26 -44 -43.5t-71 -17.5q-42 0 -72 17.5t-43 43.5v89z" />
    <glyph glyph-name="ae" unicode="&#xe6;" horiz-adv-x="871" 
d="M44 229q6 10 18.5 25.5t34 30t53.5 25t76 10.5q48 0 84.5 -12t62.5 -31v119q-11 25 -37 43.5t-68 18.5q-41 0 -64 -16.5t-32 -28.5v-44h-117v85q6 9 20.5 25.5t40 33.5t63.5 29.5t89 12.5q56 0 97.5 -15t70.5 -38q29 23 70.5 38t98.5 15q51 0 89.5 -13t65.5 -31.5
t43.5 -39t24.5 -35.5v-203h-328v-89q11 -23 37 -42t68 -19t68.5 19t36.5 42v34h118v-73q-8 -15 -24.5 -35.5t-43.5 -39t-65.5 -31.5t-89.5 -13q-68 0 -114.5 21.5t-75.5 50.5q-29 -31 -74.5 -51.5t-114.5 -20.5q-44 0 -76 9.5t-54 23t-34.5 27.5t-17.5 23v160zM262 76
q42 0 69.5 14t41.5 34v59q-14 20 -41.5 34.5t-69.5 14.5t-64 -14t-30 -25v-78q4 -5 11 -11.5t18.5 -12.5t27.5 -10.5t37 -4.5zM500 322h210v74q-10 24 -36.5 43t-68.5 19t-68 -19t-37 -43v-74z" />
    <glyph glyph-name="ccedilla" unicode="&#xe7;" horiz-adv-x="536" 
d="M46 421q9 21 27.5 45t46.5 43.5t67.5 32.5t90.5 13t89.5 -13t65.5 -31.5t43.5 -39t24.5 -35.5v-103h-118v63q-10 24 -36.5 43t-68.5 19t-68 -19t-37 -43v-251q11 -24 37 -43t68 -19t68.5 19t36.5 43v63h118v-103q-7 -15 -23.5 -35.5t-44 -39t-66 -31.5t-89.5 -13
t-90.5 13t-67.5 32.5t-46.5 43.5t-27.5 45v301zM195 -171q16 -6 34.5 -10.5t38.5 -4.5t34 6.5t19 14.5v41q-10 19 -50 19h-58l31 108h61l-17 -59h15q38 0 59 -16t29 -33v-85q-12 -25 -42 -40.5t-73 -15.5q-33 0 -58 6t-39 14z" />
    <glyph glyph-name="egrave" unicode="&#xe8;" horiz-adv-x="544" 
d="M46 421q9 21 27.5 45t46.5 43.5t67.5 32.5t90.5 13t89.5 -13t65.5 -31.5t43.5 -39t24.5 -35.5v-203h-328v-89q11 -23 37 -42t68 -19t68.5 19t36.5 42v34h118v-73q-8 -15 -24.5 -35.5t-43.5 -39t-65.5 -31.5t-89.5 -13t-90.5 13t-67.5 32.5t-46.5 43.5t-27.5 45v301z
M173 322h210v74q-10 24 -36.5 43t-68.5 19t-68 -19t-37 -43v-74zM162 706v56h123l57 -153v-16h-99z" />
    <glyph glyph-name="eacute" unicode="&#xe9;" horiz-adv-x="544" 
d="M46 421q9 21 27.5 45t46.5 43.5t67.5 32.5t90.5 13t89.5 -13t65.5 -31.5t43.5 -39t24.5 -35.5v-203h-328v-89q11 -23 37 -42t68 -19t68.5 19t36.5 42v34h118v-73q-8 -15 -24.5 -35.5t-43.5 -39t-65.5 -31.5t-89.5 -13t-90.5 13t-67.5 32.5t-46.5 43.5t-27.5 45v301z
M173 322h210v74q-10 24 -36.5 43t-68.5 19t-68 -19t-37 -43v-74zM227 609l57 153h123v-56l-80 -113h-100v16z" />
    <glyph glyph-name="ecircumflex" unicode="&#xea;" horiz-adv-x="544" 
d="M46 421q9 21 27.5 45t46.5 43.5t67.5 32.5t90.5 13t89.5 -13t65.5 -31.5t43.5 -39t24.5 -35.5v-203h-328v-89q11 -23 37 -42t68 -19t68.5 19t36.5 42v34h118v-73q-8 -15 -24.5 -35.5t-43.5 -39t-65.5 -31.5t-89.5 -13t-90.5 13t-67.5 32.5t-46.5 43.5t-27.5 45v301z
M173 322h210v74q-10 24 -36.5 43t-68.5 19t-68 -19t-37 -43v-74zM115 606l83 153h163l83 -153v-15h-89l-75 103l-75 -103h-90v15z" />
    <glyph glyph-name="edieresis" unicode="&#xeb;" horiz-adv-x="544" 
d="M46 421q9 21 27.5 45t46.5 43.5t67.5 32.5t90.5 13t89.5 -13t65.5 -31.5t43.5 -39t24.5 -35.5v-203h-328v-89q11 -23 37 -42t68 -19t68.5 19t36.5 42v34h118v-73q-8 -15 -24.5 -35.5t-43.5 -39t-65.5 -31.5t-89.5 -13t-90.5 13t-67.5 32.5t-46.5 43.5t-27.5 45v301z
M173 322h210v74q-10 24 -36.5 43t-68.5 19t-68 -19t-37 -43v-74zM110 708q6 6 20.5 15.5t43.5 9.5t44 -9.5t20 -15.5v-73q-5 -7 -20 -16t-44 -9t-43.5 9.5t-20.5 15.5v73zM324 708q5 6 20 15.5t44 9.5t44 -9.5t20 -15.5v-73q-5 -7 -20 -16t-44 -9t-44 9.5t-20 15.5v73z" />
    <glyph glyph-name="igrave" unicode="&#xec;" horiz-adv-x="238" 
d="M55 541h127v-541h-127v541zM3 706v56h123l57 -153v-16h-99z" />
    <glyph glyph-name="iacute" unicode="&#xed;" horiz-adv-x="238" 
d="M55 541h127v-541h-127v541zM56 609l57 153h123v-56l-80 -113h-100v16z" />
    <glyph glyph-name="icircumflex" unicode="&#xee;" horiz-adv-x="238" 
d="M55 541h127v-541h-127v541zM-45 606l83 153h163l83 -153v-15h-89l-75 103l-75 -103h-90v15z" />
    <glyph glyph-name="idieresis" unicode="&#xef;" horiz-adv-x="238" 
d="M55 541h127v-541h-127v541zM-51 708q6 6 20.5 15.5t43.5 9.5t44 -9.5t20 -15.5v-73q-5 -7 -20 -16t-44 -9t-43.5 9.5t-20.5 15.5v73zM163 708q5 6 20 15.5t44 9.5t44 -9.5t20 -15.5v-73q-5 -7 -20 -16t-44 -9t-44 9.5t-20 15.5v73z" />
    <glyph glyph-name="eth" unicode="&#xf0;" horiz-adv-x="556" 
d="M166 574l106 34q-37 30 -77 52l82 65q32 -13 63 -33t58 -43l112 36v-62l-64 -21q24 -26 40.5 -49.5t23.5 -40.5v-391q-9 -22 -27.5 -45.5t-46.5 -43.5t-67.5 -33t-90.5 -13t-90.5 13t-67.5 32.5t-46.5 43.5t-27.5 45v228q7 22 22 45.5t38.5 43t55.5 32t74 12.5
q50 0 85 -12.5t62 -35.5v53q-8 17 -23.5 36.5t-35.5 39.5l-158 -51v63zM173 145q11 -24 37 -43t68 -19t68.5 19t36.5 43v198q-10 14 -36.5 28t-68.5 14t-68 -19t-37 -43v-178z" />
    <glyph glyph-name="ntilde" unicode="&#xf1;" horiz-adv-x="561" 
d="M382 0v407q-8 14 -31.5 31t-65.5 17q-37 0 -63.5 -12t-40.5 -29v-414h-127v541h119v-44q26 23 63 39t87 16q43 0 74.5 -12t54 -30t36.5 -38.5t21 -37.5v-434h-127zM91 749h82v-36q3 -13 11.5 -23.5t28.5 -10.5q16 0 29.5 11.5t29.5 25t37 25t54 11.5q48 0 76.5 -25
t33.5 -60v-68h-82v37q-3 13 -12 23t-29 10q-17 0 -30.5 -11.5t-29 -25t-36.5 -24.5t-54 -11q-46 0 -74.5 25t-34.5 60v67z" />
    <glyph glyph-name="ograve" unicode="&#xf2;" horiz-adv-x="556" 
d="M46 421q9 21 27.5 45t46.5 43.5t67.5 32.5t90.5 13t90.5 -13t67.5 -32.5t46.5 -43.5t27.5 -45v-301q-9 -21 -27.5 -45t-46.5 -43.5t-67.5 -32.5t-90.5 -13t-90.5 13t-67.5 32.5t-46.5 43.5t-27.5 45v301zM173 145q11 -24 37 -43t68 -19t68.5 19t36.5 43v251
q-10 24 -36.5 43t-68.5 19t-68 -19t-37 -43v-251zM156 709v56h123l57 -153v-16h-99z" />
    <glyph glyph-name="oacute" unicode="&#xf3;" horiz-adv-x="556" 
d="M46 421q9 21 27.5 45t46.5 43.5t67.5 32.5t90.5 13t90.5 -13t67.5 -32.5t46.5 -43.5t27.5 -45v-301q-9 -21 -27.5 -45t-46.5 -43.5t-67.5 -32.5t-90.5 -13t-90.5 13t-67.5 32.5t-46.5 43.5t-27.5 45v301zM173 145q11 -24 37 -43t68 -19t68.5 19t36.5 43v251
q-10 24 -36.5 43t-68.5 19t-68 -19t-37 -43v-251zM228 612l57 153h123v-56l-80 -113h-100v16z" />
    <glyph glyph-name="ocircumflex" unicode="&#xf4;" horiz-adv-x="556" 
d="M46 421q9 21 27.5 45t46.5 43.5t67.5 32.5t90.5 13t90.5 -13t67.5 -32.5t46.5 -43.5t27.5 -45v-301q-9 -21 -27.5 -45t-46.5 -43.5t-67.5 -32.5t-90.5 -13t-90.5 13t-67.5 32.5t-46.5 43.5t-27.5 45v301zM173 145q11 -24 37 -43t68 -19t68.5 19t36.5 43v251
q-10 24 -36.5 43t-68.5 19t-68 -19t-37 -43v-251zM116 606l83 153h163l83 -153v-15h-89l-75 103l-75 -103h-90v15z" />
    <glyph glyph-name="otilde" unicode="&#xf5;" horiz-adv-x="556" 
d="M46 421q9 21 27.5 45t46.5 43.5t67.5 32.5t90.5 13t90.5 -13t67.5 -32.5t46.5 -43.5t27.5 -45v-301q-9 -21 -27.5 -45t-46.5 -43.5t-67.5 -32.5t-90.5 -13t-90.5 13t-67.5 32.5t-46.5 43.5t-27.5 45v301zM173 145q11 -24 37 -43t68 -19t68.5 19t36.5 43v251
q-10 24 -36.5 43t-68.5 19t-68 -19t-37 -43v-251zM89 749h82v-36q3 -13 11.5 -23.5t28.5 -10.5q16 0 29.5 11.5t29.5 25t37 25t54 11.5q48 0 76.5 -25t33.5 -60v-68h-82v37q-3 13 -12 23t-29 10q-17 0 -30.5 -11.5t-29 -25t-36.5 -24.5t-54 -11q-46 0 -74.5 25t-34.5 60v67z
" />
    <glyph glyph-name="odieresis" unicode="&#xf6;" horiz-adv-x="556" 
d="M46 421q9 21 27.5 45t46.5 43.5t67.5 32.5t90.5 13t90.5 -13t67.5 -32.5t46.5 -43.5t27.5 -45v-301q-9 -21 -27.5 -45t-46.5 -43.5t-67.5 -32.5t-90.5 -13t-90.5 13t-67.5 32.5t-46.5 43.5t-27.5 45v301zM173 145q11 -24 37 -43t68 -19t68.5 19t36.5 43v251
q-10 24 -36.5 43t-68.5 19t-68 -19t-37 -43v-251zM108 708q6 6 20.5 15.5t43.5 9.5t44 -9.5t20 -15.5v-73q-5 -7 -20 -16t-44 -9t-43.5 9.5t-20.5 15.5v73zM322 708q5 6 20 15.5t44 9.5t44 -9.5t20 -15.5v-73q-5 -7 -20 -16t-44 -9t-44 9.5t-20 15.5v73z" />
    <glyph glyph-name="divide" unicode="&#xf7;" horiz-adv-x="585" 
d="M37 387h511v-102h-511v102zM224 179q5 12 22.5 23.5t46.5 11.5t46.5 -11.5t22.5 -23.5v-67q-5 -12 -22.5 -23.5t-46.5 -11.5t-46.5 11.5t-22.5 23.5v67zM224 560q5 12 22.5 23.5t46.5 11.5t46.5 -11.5t22.5 -23.5v-67q-5 -12 -22.5 -23.5t-46.5 -11.5t-46.5 11.5
t-22.5 23.5v67z" />
    <glyph glyph-name="oslash" unicode="&#xf8;" horiz-adv-x="556" 
d="M46 40l28 34q-19 23 -28 46v301q9 21 27.5 45t46.5 43.5t67.5 32.5t90.5 13q50 0 87.5 -12t66.5 -31l24 29h54v-40l-28 -35q9 -11 16 -22.5t12 -22.5v-301q-9 -21 -27.5 -45t-46.5 -43.5t-67.5 -32.5t-90.5 -13t-88.5 12t-66.5 31l-23 -29h-54v40zM278 83q42 0 68.5 19
t36.5 43v201l-189 -231q14 -14 35 -23t49 -9zM173 195l189 231q-14 14 -35.5 23t-48.5 9q-42 0 -68 -19t-37 -43v-201z" />
    <glyph glyph-name="ugrave" unicode="&#xf9;" horiz-adv-x="555" 
d="M179 541v-407q4 -7 11.5 -15.5t18.5 -15.5t27 -12t37 -5q37 0 62 11.5t39 28.5v415h127v-541h-119v42q-26 -23 -62 -38t-85 -15q-43 0 -74.5 12t-53 30t-35 38.5t-20.5 37.5v434h127zM153 706v56h123l57 -153v-16h-99z" />
    <glyph glyph-name="uacute" unicode="&#xfa;" horiz-adv-x="555" 
d="M179 541v-407q4 -7 11.5 -15.5t18.5 -15.5t27 -12t37 -5q37 0 62 11.5t39 28.5v415h127v-541h-119v42q-26 -23 -62 -38t-85 -15q-43 0 -74.5 12t-53 30t-35 38.5t-20.5 37.5v434h127zM222 609l57 153h123v-56l-80 -113h-100v16z" />
    <glyph glyph-name="ucircumflex" unicode="&#xfb;" horiz-adv-x="555" 
d="M179 541v-407q4 -7 11.5 -15.5t18.5 -15.5t27 -12t37 -5q37 0 62 11.5t39 28.5v415h127v-541h-119v42q-26 -23 -62 -38t-85 -15q-43 0 -74.5 12t-53 30t-35 38.5t-20.5 37.5v434h127zM113 606l83 153h163l83 -153v-15h-89l-75 103l-75 -103h-90v15z" />
    <glyph glyph-name="udieresis" unicode="&#xfc;" horiz-adv-x="555" 
d="M179 541v-407q4 -7 11.5 -15.5t18.5 -15.5t27 -12t37 -5q37 0 62 11.5t39 28.5v415h127v-541h-119v42q-26 -23 -62 -38t-85 -15q-43 0 -74.5 12t-53 30t-35 38.5t-20.5 37.5v434h127zM108 708q6 6 20.5 15.5t43.5 9.5t44 -9.5t20 -15.5v-73q-5 -7 -20 -16t-44 -9
t-43.5 9.5t-20.5 15.5v73zM322 708q5 6 20 15.5t44 9.5t44 -9.5t20 -15.5v-73q-5 -7 -20 -16t-44 -9t-44 9.5t-20 15.5v73z" />
    <glyph glyph-name="yacute" unicode="&#xfd;" horiz-adv-x="519" 
d="M205 7l-172 462v72h119l105 -364h17l102 364h110v-71l-184 -563q-25 -32 -72.5 -54.5t-113.5 -22.5q-24 0 -44.5 2.5t-31.5 5.5v90q10 -2 26 -2h24q35 0 62.5 12t39.5 26zM205 609l57 153h123v-56l-80 -113h-100v16z" />
    <glyph glyph-name="thorn" unicode="&#xfe;" horiz-adv-x="555" 
d="M54 700h127v-196q26 21 61 34.5t81 13.5q43 0 74.5 -12t54 -30t36.5 -38.5t21 -37.5v-327q-7 -17 -21 -37.5t-36.5 -38.5t-54 -30t-74.5 -12q-46 0 -81 13.5t-61 34.5v-196h-127v859zM285 455q-37 0 -63.5 -12t-40.5 -29v-287q14 -17 40.5 -29t63.5 -12q21 0 37.5 5
t28.5 12.5t19.5 15.5t11.5 15v273q-8 14 -31.5 31t-65.5 17z" />
    <glyph glyph-name="ydieresis" unicode="&#xff;" horiz-adv-x="519" 
d="M205 7l-172 462v72h119l105 -364h17l102 364h110v-71l-184 -563q-25 -32 -72.5 -54.5t-113.5 -22.5q-24 0 -44.5 2.5t-31.5 5.5v90q10 -2 26 -2h24q35 0 62.5 12t39.5 26zM91 708q6 6 20.5 15.5t43.5 9.5t44 -9.5t20 -15.5v-73q-5 -7 -20 -16t-44 -9t-43.5 9.5
t-20.5 15.5v73zM305 708q5 6 20 15.5t44 9.5t44 -9.5t20 -15.5v-73q-5 -7 -20 -16t-44 -9t-44 9.5t-20 15.5v73z" />
    <glyph glyph-name="Amacron" unicode="&#x100;" horiz-adv-x="621" 
d="M27 78l183 622h201l183 -622v-78h-122l-55 203h-225l-55 -203h-110v78zM221 306h168l-75 277h-17zM132 849h354v-89h-354v89z" />
    <glyph glyph-name="amacron" unicode="&#x101;" horiz-adv-x="551" 
d="M380 41q-27 -25 -63.5 -40t-90.5 -15q-44 0 -76 9.5t-54 23t-34.5 27.5t-17.5 23v160q6 10 18.5 25.5t34 30t53.5 25t76 10.5q51 0 86.5 -12.5t60.5 -30.5v119q-11 25 -37 43.5t-68 18.5q-41 0 -64 -16.5t-32 -28.5v-44h-117v85q6 9 20.5 25.5t40 33.5t63.5 29.5t89 12.5
t90.5 -13t68 -33t46.5 -43.5t27 -44.5v-421h-120v41zM262 76q42 0 69.5 14t41.5 34v59q-14 20 -41.5 34.5t-69.5 14.5t-64 -14t-30 -25v-78q4 -5 11 -11.5t18.5 -12.5t27.5 -10.5t37 -4.5zM99 723h354v-89h-354v89z" />
    <glyph glyph-name="Abreve" unicode="&#x102;" horiz-adv-x="621" 
d="M27 78l183 622h201l183 -622v-78h-122l-55 203h-225l-55 -203h-110v78zM221 306h168l-75 277h-17zM146 870h94v-28q4 -9 20 -22.5t49 -13.5t49 13.5t20 22.5v28h93v-46q-8 -17 -21 -33.5t-32.5 -29.5t-46 -20.5t-62.5 -7.5t-62.5 7.5t-46 20.5t-33 29.5t-21.5 33.5v46z
" />
    <glyph glyph-name="abreve" unicode="&#x103;" horiz-adv-x="551" 
d="M380 41q-27 -25 -63.5 -40t-90.5 -15q-44 0 -76 9.5t-54 23t-34.5 27.5t-17.5 23v160q6 10 18.5 25.5t34 30t53.5 25t76 10.5q51 0 86.5 -12.5t60.5 -30.5v119q-11 25 -37 43.5t-68 18.5q-41 0 -64 -16.5t-32 -28.5v-44h-117v85q6 9 20.5 25.5t40 33.5t63.5 29.5t89 12.5
t90.5 -13t68 -33t46.5 -43.5t27 -44.5v-421h-120v41zM262 76q42 0 69.5 14t41.5 34v59q-14 20 -41.5 34.5t-69.5 14.5t-64 -14t-30 -25v-78q4 -5 11 -11.5t18.5 -12.5t27.5 -10.5t37 -4.5zM114 730h94v-27q4 -9 20 -22.5t49 -13.5t49 13.5t20 22.5v27h93v-46q-8 -17 -21 -33
t-32.5 -29t-46 -20.5t-62.5 -7.5t-62.5 7.5t-46 20.5t-33 29t-21.5 33v46z" />
    <glyph glyph-name="Aogonek" unicode="&#x104;" horiz-adv-x="621" 
d="M27 78l183 622h201l183 -622v-78h-122l-55 203h-225l-55 -203h-110v78zM221 306h168l-75 277h-17zM399 -112q4 10 15.5 26t28.5 35t39 38t47 34l65 -21q-53 -45 -75.5 -75.5t-27.5 -41.5v-29q4 -8 16.5 -13.5t29.5 -5.5q16 0 29 2.5t28 9.5v-67q-14 -8 -30.5 -12
t-46.5 -4q-40 0 -73 12.5t-45 38.5v73z" />
    <glyph glyph-name="aogonek" unicode="&#x105;" horiz-adv-x="551" 
d="M380 41q-27 -25 -63.5 -40t-90.5 -15q-44 0 -76 9.5t-54 23t-34.5 27.5t-17.5 23v160q6 10 18.5 25.5t34 30t53.5 25t76 10.5q51 0 86.5 -12.5t60.5 -30.5v119q-11 25 -37 43.5t-68 18.5q-41 0 -64 -16.5t-32 -28.5v-44h-117v85q6 9 20.5 25.5t40 33.5t63.5 29.5t89 12.5
t90.5 -13t68 -33t46.5 -43.5t27 -44.5v-421h-120v41zM262 76q42 0 69.5 14t41.5 34v59q-14 20 -41.5 34.5t-69.5 14.5t-64 -14t-30 -25v-78q4 -5 11 -11.5t18.5 -12.5t27.5 -10.5t37 -4.5zM305 -112q4 10 15.5 26t28.5 35t39 38t47 34l65 -21q-53 -45 -75.5 -75.5
t-27.5 -41.5v-29q4 -8 16.5 -13.5t29.5 -5.5q16 0 29 2.5t28 9.5v-67q-14 -8 -30.5 -12t-46.5 -4q-40 0 -73 12.5t-45 38.5v73z" />
    <glyph glyph-name="Cacute" unicode="&#x106;" horiz-adv-x="616" 
d="M570 277v-148q-11 -21 -30.5 -46t-50.5 -46.5t-74 -36t-101 -14.5t-102 14.5t-75.5 37t-52 49.5t-31.5 51v424q11 25 31.5 52t52 49.5t75.5 37t102 14.5t101 -14.5t74 -36t50.5 -46.5t30.5 -46v-139h-132v102q-12 29 -43.5 51.5t-80.5 22.5t-79.5 -22.5t-44.5 -51.5v-370
q12 -29 43.5 -51.5t80.5 -22.5t79.5 22.5t44.5 51.5v112h132zM258 765l57 142h123v-55l-80 -102h-100v15z" />
    <glyph glyph-name="cacute" unicode="&#x107;" horiz-adv-x="536" 
d="M46 421q9 21 27.5 45t46.5 43.5t67.5 32.5t90.5 13t89.5 -13t65.5 -31.5t43.5 -39t24.5 -35.5v-103h-118v63q-10 24 -36.5 43t-68.5 19t-68 -19t-37 -43v-251q11 -24 37 -43t68 -19t68.5 19t36.5 43v63h118v-103q-7 -15 -23.5 -35.5t-44 -39t-66 -31.5t-89.5 -13
t-90.5 13t-67.5 32.5t-46.5 43.5t-27.5 45v301zM223 609l57 153h123v-56l-80 -113h-100v16z" />
    <glyph glyph-name="Ccircumflex" unicode="&#x108;" horiz-adv-x="616" 
d="M570 277v-148q-11 -21 -30.5 -46t-50.5 -46.5t-74 -36t-101 -14.5t-102 14.5t-75.5 37t-52 49.5t-31.5 51v424q11 25 31.5 52t52 49.5t75.5 37t102 14.5t101 -14.5t74 -36t50.5 -46.5t30.5 -46v-139h-132v102q-12 29 -43.5 51.5t-80.5 22.5t-79.5 -22.5t-44.5 -51.5v-370
q12 -29 43.5 -51.5t80.5 -22.5t79.5 22.5t44.5 51.5v112h132zM153 763l83 142h163l83 -142v-15h-89l-75 93l-75 -93h-90v15z" />
    <glyph glyph-name="ccircumflex" unicode="&#x109;" horiz-adv-x="536" 
d="M46 421q9 21 27.5 45t46.5 43.5t67.5 32.5t90.5 13t89.5 -13t65.5 -31.5t43.5 -39t24.5 -35.5v-103h-118v63q-10 24 -36.5 43t-68.5 19t-68 -19t-37 -43v-251q11 -24 37 -43t68 -19t68.5 19t36.5 43v63h118v-103q-7 -15 -23.5 -35.5t-44 -39t-66 -31.5t-89.5 -13
t-90.5 13t-67.5 32.5t-46.5 43.5t-27.5 45v301zM115 606l83 153h163l83 -153v-15h-89l-75 103l-75 -103h-90v15z" />
    <glyph glyph-name="Cdotaccent" unicode="&#x10a;" horiz-adv-x="616" 
d="M570 277v-148q-11 -21 -30.5 -46t-50.5 -46.5t-74 -36t-101 -14.5t-102 14.5t-75.5 37t-52 49.5t-31.5 51v424q11 25 31.5 52t52 49.5t75.5 37t102 14.5t101 -14.5t74 -36t50.5 -46.5t30.5 -46v-139h-132v102q-12 29 -43.5 51.5t-80.5 22.5t-79.5 -22.5t-44.5 -51.5v-370
q12 -29 43.5 -51.5t80.5 -22.5t79.5 22.5t44.5 51.5v112h132zM246 852q6 13 23 24t46 11t46.5 -11t22.5 -24v-53q-5 -13 -22.5 -24t-46.5 -11t-46 11t-23 24v53z" />
    <glyph glyph-name="cdotaccent" unicode="&#x10b;" horiz-adv-x="536" 
d="M46 421q9 21 27.5 45t46.5 43.5t67.5 32.5t90.5 13t89.5 -13t65.5 -31.5t43.5 -39t24.5 -35.5v-103h-118v63q-10 24 -36.5 43t-68.5 19t-68 -19t-37 -43v-251q11 -24 37 -43t68 -19t68.5 19t36.5 43v63h118v-103q-7 -15 -23.5 -35.5t-44 -39t-66 -31.5t-89.5 -13
t-90.5 13t-67.5 32.5t-46.5 43.5t-27.5 45v301zM212 711q6 12 23 23.5t46 11.5t46.5 -11.5t22.5 -23.5v-53q-5 -13 -22.5 -24t-46.5 -11t-46 11t-23 24v53z" />
    <glyph glyph-name="Ccaron" unicode="&#x10c;" horiz-adv-x="616" 
d="M570 277v-148q-11 -21 -30.5 -46t-50.5 -46.5t-74 -36t-101 -14.5t-102 14.5t-75.5 37t-52 49.5t-31.5 51v424q11 25 31.5 52t52 49.5t75.5 37t102 14.5t101 -14.5t74 -36t50.5 -46.5t30.5 -46v-139h-132v102q-12 29 -43.5 51.5t-80.5 22.5t-79.5 -22.5t-44.5 -51.5v-370
q12 -29 43.5 -51.5t80.5 -22.5t79.5 22.5t44.5 51.5v112h132zM151 891v15h90l75 -92l75 92h89v-15l-83 -142h-163z" />
    <glyph glyph-name="ccaron" unicode="&#x10d;" horiz-adv-x="536" 
d="M46 421q9 21 27.5 45t46.5 43.5t67.5 32.5t90.5 13t89.5 -13t65.5 -31.5t43.5 -39t24.5 -35.5v-103h-118v63q-10 24 -36.5 43t-68.5 19t-68 -19t-37 -43v-251q11 -24 37 -43t68 -19t68.5 19t36.5 43v63h118v-103q-7 -15 -23.5 -35.5t-44 -39t-66 -31.5t-89.5 -13
t-90.5 13t-67.5 32.5t-46.5 43.5t-27.5 45v301zM113 744v15h90l75 -104l75 104h89v-15l-83 -153h-163z" />
    <glyph glyph-name="Dcaron" unicode="&#x10e;" horiz-adv-x="627" 
d="M438 530q-12 29 -43.5 48t-80.5 19h-114v-494h114q49 0 80.5 19t43.5 48v360zM575 138q-11 -25 -30.5 -49.5t-48.5 -44t-67.5 -32t-87.5 -12.5h-278v700h278q49 0 87.5 -12.5t67.5 -32t48.5 -44t30.5 -49.5v-424zM147 884v15h90l75 -92l75 92h89v-15l-83 -142h-163z" />
    <glyph glyph-name="dcaron" unicode="&#x10f;" horiz-adv-x="707" 
d="M567 516l20 184h105v-66l-44 -133h-81v15zM381 44q-26 -23 -62.5 -39t-86.5 -16q-43 0 -75 12t-54.5 30t-36 38.5t-20.5 37.5v327q7 17 20.5 37.5t36 38.5t54.5 30t75 12q46 0 81 -13.5t61 -34.5v196h127v-700h-120v44zM270 86q37 0 63 12t41 29v287q-15 17 -41 29
t-63 12q-21 0 -37.5 -5t-28.5 -12.5t-19.5 -15.5t-11.5 -15v-273q8 -14 31.5 -31t65.5 -17z" />
    <glyph glyph-name="Dcroat" unicode="&#x110;" horiz-adv-x="653" 
d="M35 407h48v293h277q49 0 88 -12.5t67.5 -32t48 -44t30.5 -49.5v-424q-11 -25 -30.5 -49.5t-48 -44t-67.5 -32t-88 -12.5h-277v304h-48v103zM457 530q-11 29 -43 48t-80 19h-115v-190h133v-103h-133v-201h115q48 0 80 19t43 48v360z" />
    <glyph glyph-name="dcroat" unicode="&#x111;" horiz-adv-x="555" 
d="M226 651h148v49h127v-49h50v-66h-50v-585h-120v44q-26 -24 -63.5 -39.5t-85.5 -15.5q-43 0 -75 12t-54.5 30t-36 38.5t-20.5 37.5v322q7 17 20.5 37.5t36 38.5t54.5 30t75 12q46 0 81 -13.5t61 -34.5v86h-148v66zM270 85q37 0 63 12t41 29v284q-15 17 -41 29t-63 12
q-21 0 -37.5 -5t-28.5 -12.5t-19.5 -15.5t-11.5 -15v-270q8 -14 31.5 -31t65.5 -17z" />
    <glyph glyph-name="Emacron" unicode="&#x112;" horiz-adv-x="524" 
d="M63 700h412v-103h-275v-187h255v-103h-255v-204h282v-103h-419v700zM95 849h354v-89h-354v89z" />
    <glyph glyph-name="emacron" unicode="&#x113;" horiz-adv-x="544" 
d="M46 421q9 21 27.5 45t46.5 43.5t67.5 32.5t90.5 13t89.5 -13t65.5 -31.5t43.5 -39t24.5 -35.5v-203h-328v-89q11 -23 37 -42t68 -19t68.5 19t36.5 42v34h118v-73q-8 -15 -24.5 -35.5t-43.5 -39t-65.5 -31.5t-89.5 -13t-90.5 13t-67.5 32.5t-46.5 43.5t-27.5 45v301z
M173 322h210v74q-10 24 -36.5 43t-68.5 19t-68 -19t-37 -43v-74zM104 723h354v-89h-354v89z" />
    <glyph glyph-name="Ebreve" unicode="&#x114;" horiz-adv-x="524" 
d="M63 700h412v-103h-275v-187h255v-103h-255v-204h282v-103h-419v700zM111 872h94v-28q4 -9 20 -22.5t49 -13.5t49 13.5t20 22.5v28h93v-46q-8 -17 -21 -33.5t-32.5 -29.5t-46 -20.5t-62.5 -7.5t-62.5 7.5t-46 20.5t-33 29.5t-21.5 33.5v46z" />
    <glyph glyph-name="ebreve" unicode="&#x115;" horiz-adv-x="544" 
d="M46 421q9 21 27.5 45t46.5 43.5t67.5 32.5t90.5 13t89.5 -13t65.5 -31.5t43.5 -39t24.5 -35.5v-203h-328v-89q11 -23 37 -42t68 -19t68.5 19t36.5 42v34h118v-73q-8 -15 -24.5 -35.5t-43.5 -39t-65.5 -31.5t-89.5 -13t-90.5 13t-67.5 32.5t-46.5 43.5t-27.5 45v301z
M173 322h210v74q-10 24 -36.5 43t-68.5 19t-68 -19t-37 -43v-74zM115 730h94v-27q4 -9 20 -22.5t49 -13.5t49 13.5t20 22.5v27h93v-46q-8 -17 -21 -33t-32.5 -29t-46 -20.5t-62.5 -7.5t-62.5 7.5t-46 20.5t-33 29t-21.5 33v46z" />
    <glyph glyph-name="Edotaccent" unicode="&#x116;" horiz-adv-x="524" 
d="M63 700h412v-103h-275v-187h255v-103h-255v-204h282v-103h-419v700zM207 847q6 13 23 24t46 11t46.5 -11t22.5 -24v-53q-5 -13 -22.5 -24t-46.5 -11t-46 11t-23 24v53z" />
    <glyph glyph-name="edotaccent" unicode="&#x117;" horiz-adv-x="544" 
d="M46 421q9 21 27.5 45t46.5 43.5t67.5 32.5t90.5 13t89.5 -13t65.5 -31.5t43.5 -39t24.5 -35.5v-203h-328v-89q11 -23 37 -42t68 -19t68.5 19t36.5 42v34h118v-73q-8 -15 -24.5 -35.5t-43.5 -39t-65.5 -31.5t-89.5 -13t-90.5 13t-67.5 32.5t-46.5 43.5t-27.5 45v301z
M173 322h210v74q-10 24 -36.5 43t-68.5 19t-68 -19t-37 -43v-74zM212 705q6 12 23 23.5t46 11.5t46.5 -11.5t22.5 -23.5v-53q-5 -13 -22.5 -24t-46.5 -11t-46 11t-23 24v53z" />
    <glyph glyph-name="Eogonek" unicode="&#x118;" horiz-adv-x="524" 
d="M63 700h412v-103h-275v-187h255v-103h-255v-204h282v-103h-419v700zM287 -112q4 10 15.5 26t28.5 35t39 38t47 34l65 -21q-53 -45 -75.5 -75.5t-27.5 -41.5v-29q4 -8 16.5 -13.5t29.5 -5.5q16 0 29 2.5t28 9.5v-67q-14 -8 -30.5 -12t-46.5 -4q-40 0 -73 12.5t-45 38.5v73
z" />
    <glyph glyph-name="eogonek" unicode="&#x119;" horiz-adv-x="544" 
d="M46 421q9 21 27.5 45t46.5 43.5t67.5 32.5t90.5 13t89.5 -13t65.5 -31.5t43.5 -39t24.5 -35.5v-203h-328v-89q11 -23 37 -42t68 -19t68.5 19t36.5 42v34h118v-76q-50 -81 -74.5 -136t-28.5 -72v-29q4 -8 16.5 -13.5t29.5 -5.5q16 0 29 3t28 9v-67q-14 -8 -30.5 -12
t-46.5 -4q-40 0 -73 12.5t-45 38.5v73q3 11 15.5 36.5t31.5 59.5q-17 -4 -35.5 -6.5t-39.5 -2.5q-51 0 -90.5 13t-67.5 32.5t-46.5 43.5t-27.5 45v301zM173 322h210v74q-10 24 -36.5 43t-68.5 19t-68 -19t-37 -43v-74z" />
    <glyph glyph-name="Ecaron" unicode="&#x11a;" horiz-adv-x="524" 
d="M63 700h412v-103h-275v-187h255v-103h-255v-204h282v-103h-419v700zM110 884v15h90l75 -92l75 92h89v-15l-83 -142h-163z" />
    <glyph glyph-name="ecaron" unicode="&#x11b;" horiz-adv-x="544" 
d="M46 421q9 21 27.5 45t46.5 43.5t67.5 32.5t90.5 13t89.5 -13t65.5 -31.5t43.5 -39t24.5 -35.5v-203h-328v-89q11 -23 37 -42t68 -19t68.5 19t36.5 42v34h118v-73q-8 -15 -24.5 -35.5t-43.5 -39t-65.5 -31.5t-89.5 -13t-90.5 13t-67.5 32.5t-46.5 43.5t-27.5 45v301z
M173 322h210v74q-10 24 -36.5 43t-68.5 19t-68 -19t-37 -43v-74zM116 744v15h90l75 -104l75 104h89v-15l-83 -153h-163z" />
    <glyph glyph-name="Gcircumflex" unicode="&#x11c;" horiz-adv-x="618" 
d="M325 382h245v-253q-11 -21 -30.5 -46t-50.5 -46.5t-74 -36t-101 -14.5t-102 14.5t-75.5 37t-52 49.5t-31.5 51v424q11 25 31.5 52t52 49.5t75.5 37t102 14.5t101 -14.5t74 -36t50.5 -46.5t30.5 -46v-111h-132v74q-12 29 -43.5 51.5t-80.5 22.5t-79.5 -22.5t-44.5 -51.5
v-370q12 -29 44.5 -51.5t81.5 -22.5q51 0 82 22t44 49v117h-117v103zM150 762l83 142h163l83 -142v-15h-89l-75 93l-75 -93h-90v15z" />
    <glyph glyph-name="gcircumflex" unicode="&#x11d;" horiz-adv-x="555" 
d="M51 26h122v-51q8 -14 31.5 -30.5t64.5 -16.5q42 0 68 16.5t37 40.5v132q-26 -21 -61 -34.5t-81 -13.5q-43 0 -75 12t-54.5 30t-36 38.5t-20.5 37.5v247q7 17 20.5 37.5t36 38.5t54.5 30t75 12q48 0 84.5 -14.5t62.5 -37.5v41h122v-580q-9 -22 -27.5 -45t-46.5 -41.5
t-67.5 -30.5t-90.5 -12t-89 12t-64 29.5t-42 36.5t-23 33v83zM270 166q37 0 63 12t41 29v207q-15 17 -41 29t-63 12q-21 0 -37.5 -5t-28.5 -12.5t-19.5 -15.5t-11.5 -15v-193q8 -14 31.5 -31t65.5 -17zM125 606l83 153h163l83 -153v-15h-89l-75 103l-75 -103h-90v15z" />
    <glyph glyph-name="Gbreve" unicode="&#x11e;" horiz-adv-x="618" 
d="M325 382h245v-253q-11 -21 -30.5 -46t-50.5 -46.5t-74 -36t-101 -14.5t-102 14.5t-75.5 37t-52 49.5t-31.5 51v424q11 25 31.5 52t52 49.5t75.5 37t102 14.5t101 -14.5t74 -36t50.5 -46.5t30.5 -46v-111h-132v74q-12 29 -43.5 51.5t-80.5 22.5t-79.5 -22.5t-44.5 -51.5
v-370q12 -29 44.5 -51.5t81.5 -22.5q51 0 82 22t44 49v117h-117v103zM153 878h94v-28q4 -9 20 -22.5t49 -13.5t49 13.5t20 22.5v28h93v-46q-8 -17 -21 -33.5t-32.5 -29.5t-46 -20.5t-62.5 -7.5t-62.5 7.5t-46 20.5t-33 29.5t-21.5 33.5v46z" />
    <glyph glyph-name="gbreve" unicode="&#x11f;" horiz-adv-x="555" 
d="M51 26h122v-51q8 -14 31.5 -30.5t64.5 -16.5q42 0 68 16.5t37 40.5v132q-26 -21 -61 -34.5t-81 -13.5q-43 0 -75 12t-54.5 30t-36 38.5t-20.5 37.5v247q7 17 20.5 37.5t36 38.5t54.5 30t75 12q48 0 84.5 -14.5t62.5 -37.5v41h122v-580q-9 -22 -27.5 -45t-46.5 -41.5
t-67.5 -30.5t-90.5 -12t-89 12t-64 29.5t-42 36.5t-23 33v83zM270 166q37 0 63 12t41 29v207q-15 17 -41 29t-63 12q-21 0 -37.5 -5t-28.5 -12.5t-19.5 -15.5t-11.5 -15v-193q8 -14 31.5 -31t65.5 -17zM122 730h94v-27q4 -9 20 -22.5t49 -13.5t49 13.5t20 22.5v27h93v-46
q-8 -17 -21 -33t-32.5 -29t-46 -20.5t-62.5 -7.5t-62.5 7.5t-46 20.5t-33 29t-21.5 33v46z" />
    <glyph glyph-name="Gdotaccent" unicode="&#x120;" horiz-adv-x="618" 
d="M325 382h245v-253q-11 -21 -30.5 -46t-50.5 -46.5t-74 -36t-101 -14.5t-102 14.5t-75.5 37t-52 49.5t-31.5 51v424q11 25 31.5 52t52 49.5t75.5 37t102 14.5t101 -14.5t74 -36t50.5 -46.5t30.5 -46v-111h-132v74q-12 29 -43.5 51.5t-80.5 22.5t-79.5 -22.5t-44.5 -51.5
v-370q12 -29 44.5 -51.5t81.5 -22.5q51 0 82 22t44 49v117h-117v103zM245 851q6 13 23 24t46 11t46.5 -11t22.5 -24v-53q-5 -13 -22.5 -24t-46.5 -11t-46 11t-23 24v53z" />
    <glyph glyph-name="gdotaccent" unicode="&#x121;" horiz-adv-x="555" 
d="M51 26h122v-51q8 -14 31.5 -30.5t64.5 -16.5q42 0 68 16.5t37 40.5v132q-26 -21 -61 -34.5t-81 -13.5q-43 0 -75 12t-54.5 30t-36 38.5t-20.5 37.5v247q7 17 20.5 37.5t36 38.5t54.5 30t75 12q48 0 84.5 -14.5t62.5 -37.5v41h122v-580q-9 -22 -27.5 -45t-46.5 -41.5
t-67.5 -30.5t-90.5 -12t-89 12t-64 29.5t-42 36.5t-23 33v83zM270 166q37 0 63 12t41 29v207q-15 17 -41 29t-63 12q-21 0 -37.5 -5t-28.5 -12.5t-19.5 -15.5t-11.5 -15v-193q8 -14 31.5 -31t65.5 -17zM213 705q6 12 23 23.5t46 11.5t46.5 -11.5t22.5 -23.5v-53
q-5 -13 -22.5 -24t-46.5 -11t-46 11t-23 24v53z" />
    <glyph glyph-name="Gcommaaccent" unicode="&#x122;" horiz-adv-x="618" 
d="M325 382h245v-253q-11 -21 -30.5 -46t-50.5 -46.5t-74 -36t-101 -14.5t-102 14.5t-75.5 37t-52 49.5t-31.5 51v424q11 25 31.5 52t52 49.5t75.5 37t102 14.5t101 -14.5t74 -36t50.5 -46.5t30.5 -46v-111h-132v74q-12 29 -43.5 51.5t-80.5 22.5t-79.5 -22.5t-44.5 -51.5
v-370q12 -29 44.5 -51.5t81.5 -22.5q51 0 82 22t44 49v117h-117v103zM259 -181h25q11 0 19.5 2.5t12.5 10.5v25h-2q-29 0 -45 5.5t-21 11.5v55q5 6 21 13t45 7t45 -7t21 -13v-98q-5 -15 -25 -32.5t-60 -17.5h-36v38z" />
    <glyph glyph-name="gcommaaccent" unicode="&#x123;" horiz-adv-x="555" 
d="M51 26h122v-51q8 -14 31.5 -30.5t64.5 -16.5q42 0 68 16.5t37 40.5v132q-26 -21 -61 -34.5t-81 -13.5q-43 0 -75 12t-54.5 30t-36 38.5t-20.5 37.5v247q7 17 20.5 37.5t36 38.5t54.5 30t75 12q48 0 84.5 -14.5t62.5 -37.5v41h122v-580q-9 -22 -27.5 -45t-46.5 -41.5
t-67.5 -30.5t-90.5 -12t-89 12t-64 29.5t-42 36.5t-23 33v83zM270 166q37 0 63 12t41 29v207q-15 17 -41 29t-63 12q-21 0 -37.5 -5t-28.5 -12.5t-19.5 -15.5t-11.5 -15v-193q8 -14 31.5 -31t65.5 -17zM220 744q5 15 28.5 33t63.5 18h33v-50h-20q-33 0 -40 -12v-25h4
q28 0 45.5 -11t22.5 -23v-46q-5 -11 -22.5 -22.5t-45.5 -11.5q-29 0 -46.5 11.5t-22.5 22.5v116z" />
    <glyph glyph-name="Hcircumflex" unicode="&#x124;" horiz-adv-x="652" 
d="M63 700h137v-288h252v288h137v-700h-137v309h-252v-309h-137v700zM161 757l83 142h163l83 -142v-15h-89l-75 93l-75 -93h-90v15z" />
    <glyph glyph-name="hcircumflex" unicode="&#x125;" horiz-adv-x="561" 
d="M382 0v407q-8 14 -31.5 31t-65.5 17q-37 0 -63.5 -12t-40.5 -29v-414h-127v700h127v-196q26 21 61 34.5t81 13.5q43 0 74.5 -12t54 -30t36.5 -38.5t21 -37.5v-434h-127zM124 757l83 142h163l83 -142v-15h-89l-75 93l-75 -93h-90v15z" />
    <glyph glyph-name="Hbar" unicode="&#x126;" horiz-adv-x="652" 
d="M26 626h37v74h137v-74h252v74h137v-74h40v-84h-40v-542h-137v309h-252v-309h-137v542h-37v84zM452 412v130h-252v-130h252z" />
    <glyph glyph-name="hbar" unicode="&#x127;" horiz-adv-x="561" 
d="M12 651h42v49h127v-49h156v-66h-156v-87q26 21 61 34.5t81 13.5q43 0 74.5 -12t54 -30t36.5 -38.5t21 -37.5v-428h-127v402q-8 14 -31.5 31t-65.5 17q-37 0 -63.5 -12t-40.5 -29v-409h-127v585h-42v66z" />
    <glyph glyph-name="Itilde" unicode="&#x128;" horiz-adv-x="263" 
d="M63 700h137v-700h-137v700zM-58 889h82v-36q3 -13 11.5 -23.5t28.5 -10.5q16 0 29.5 11.5t29.5 25t37 25t54 11.5q48 0 76.5 -25t33.5 -60v-68h-82v37q-3 13 -12 23t-29 10q-17 0 -30.5 -11.5t-29 -25t-36.5 -24.5t-54 -11q-46 0 -74.5 25t-34.5 60v67z" />
    <glyph glyph-name="itilde" unicode="&#x129;" horiz-adv-x="238" 
d="M55 541h127v-541h-127v541zM-71 746h82v-36q3 -13 11.5 -23.5t28.5 -10.5q16 0 29.5 11.5t29.5 25t37 25t54 11.5q48 0 76.5 -25t33.5 -60v-68h-82v37q-3 13 -12 23t-29 10q-17 0 -30.5 -11.5t-29 -25t-36.5 -24.5t-54 -11q-46 0 -74.5 25t-34.5 60v67z" />
    <glyph glyph-name="Imacron" unicode="&#x12a;" horiz-adv-x="263" 
d="M63 700h137v-700h-137v700zM-43 849h354v-89h-354v89z" />
    <glyph glyph-name="imacron" unicode="&#x12b;" horiz-adv-x="238" 
d="M55 541h127v-541h-127v541zM-58 723h354v-89h-354v89z" />
    <glyph glyph-name="Ibreve" unicode="&#x12c;" horiz-adv-x="263" 
d="M63 700h137v-700h-137v700zM-29 873h94v-28q4 -9 20 -22.5t49 -13.5t49 13.5t20 22.5v28h93v-46q-8 -17 -21 -33.5t-32.5 -29.5t-46 -20.5t-62.5 -7.5t-62.5 7.5t-46 20.5t-33 29.5t-21.5 33.5v46z" />
    <glyph glyph-name="ibreve" unicode="&#x12d;" horiz-adv-x="238" 
d="M55 541h127v-541h-127v541zM-43 730h94v-27q4 -9 20 -22.5t49 -13.5t49 13.5t20 22.5v27h93v-46q-8 -17 -21 -33t-32.5 -29t-46 -20.5t-62.5 -7.5t-62.5 7.5t-46 20.5t-33 29t-21.5 33v46z" />
    <glyph glyph-name="Iogonek" unicode="&#x12e;" horiz-adv-x="263" 
d="M63 700h137v-700h-137v700zM6 -112q4 10 15.5 26t28.5 35t39 38t47 34l65 -21q-53 -45 -75.5 -75.5t-27.5 -41.5v-29q4 -8 16.5 -13.5t29.5 -5.5q16 0 29 2.5t28 9.5v-67q-14 -8 -30.5 -12t-46.5 -4q-40 0 -73 12.5t-45 38.5v73z" />
    <glyph glyph-name="iogonek" unicode="&#x12f;" horiz-adv-x="238" 
d="M50 702q6 12 23 23.5t46 11.5t46.5 -11.5t22.5 -23.5v-53q-5 -13 -22.5 -24t-46.5 -11t-46 11t-23 24v53zM55 541h127v-541h-127v541zM-12 -112q4 10 15.5 26t28.5 35t39 38t47 34l65 -21q-53 -45 -75.5 -75.5t-27.5 -41.5v-29q4 -8 16.5 -13.5t29.5 -5.5q16 0 29 2.5
t28 9.5v-67q-14 -8 -30.5 -12t-46.5 -4q-40 0 -73 12.5t-45 38.5v73z" />
    <glyph glyph-name="Idotaccent" unicode="&#x130;" horiz-adv-x="263" 
d="M63 700h137v-700h-137v700zM65 847q6 13 23 24t46 11t46.5 -11t22.5 -24v-53q-5 -13 -22.5 -24t-46.5 -11t-46 11t-23 24v53z" />
    <glyph glyph-name="dotlessi" unicode="&#x131;" horiz-adv-x="238" 
d="M55 541h127v-541h-127v541z" />
    <glyph glyph-name="IJ" unicode="&#x132;" horiz-adv-x="632" 
d="M63 700h137v-700h-137v700zM276 103q5 -1 18 -1.5t21 -0.5q48 0 80 18.5t45 50.5v530h137v-562q-13 -28 -35 -53t-54 -44.5t-74.5 -31t-96.5 -11.5q-14 0 -24.5 0.5t-16.5 1.5v103z" />
    <glyph glyph-name="ij" unicode="&#x133;" horiz-adv-x="474" 
d="M50 702q6 12 23 23.5t46 11.5t46.5 -11.5t22.5 -23.5v-53q-5 -13 -22.5 -24t-46.5 -11t-46 11t-23 24v53zM55 541h127v-541h-127v541zM188 -73q42 0 68 20.5t36 46.5v547h127v-575q-9 -21 -27 -45t-46 -44t-67.5 -33t-90.5 -13v96zM287 702q5 12 22 23.5t46 11.5
q30 0 47.5 -11.5t22.5 -23.5v-53q-5 -13 -22.5 -24t-47.5 -11q-29 0 -46 11t-22 24v53z" />
    <glyph glyph-name="Jcircumflex" unicode="&#x134;" horiz-adv-x="376" 
d="M20 103q5 -1 18 -1.5t21 -0.5q48 0 80 18.5t45 50.5v530h137v-562q-13 -28 -35 -53t-54 -44.5t-74.5 -31t-96.5 -11.5q-14 0 -24.5 0.5t-16.5 1.5v103zM89 757l83 142h163l83 -142v-15h-89l-75 93l-75 -93h-90v15z" />
    <glyph glyph-name="jcircumflex" unicode="&#x135;" horiz-adv-x="237" 
d="M-50 -73q42 0 68 20.5t36 46.5v547h127v-575q-9 -21 -27 -45t-46 -44t-67.5 -33t-90.5 -13v96zM-46 606l83 153h163l83 -153v-15h-89l-75 103l-75 -103h-90v15z" />
    <glyph glyph-name="Kcommaaccent" unicode="&#x136;" horiz-adv-x="586" 
d="M63 700h137v-270h17l236 270h99v-78l-208 -227l214 -317v-78h-105l-198 297l-55 -60v-237h-137v700zM250 -179h25q11 0 19.5 2.5t12.5 10.5v25h-2q-29 0 -45 5.5t-21 11.5v55q5 6 21 13t45 7t45 -7t21 -13v-98q-5 -15 -25 -32.5t-60 -17.5h-36v38z" />
    <glyph glyph-name="kcommaaccent" unicode="&#x137;" horiz-adv-x="509" 
d="M54 700h127v-373h14l201 214h88v-71l-163 -166l170 -233v-71h-96l-159 218l-55 -56v-162h-127v700zM211 -179h25q11 0 19.5 2.5t12.5 10.5v25h-2q-29 0 -45 5.5t-21 11.5v55q5 6 21 13t45 7t45 -7t21 -13v-98q-5 -15 -25 -32.5t-60 -17.5h-36v38z" />
    <glyph glyph-name="kgreenlandic" unicode="&#x138;" horiz-adv-x="511" 
d="M54 541h127v-214h14l201 214h88v-71l-162 -165l169 -234v-71h-98l-156 217l-56 -57v-160h-127v541z" />
    <glyph glyph-name="Lacute" unicode="&#x139;" horiz-adv-x="457" 
d="M63 700h137v-597h235v-103h-372v700zM64 757l57 142h123v-55l-80 -102h-100v15z" />
    <glyph glyph-name="lacute" unicode="&#x13a;" horiz-adv-x="235" 
d="M54 700h127v-700h-127v700zM55 757l57 142h123v-55l-80 -102h-100v15z" />
    <glyph glyph-name="Lcommaaccent" unicode="&#x13b;" horiz-adv-x="457" 
d="M63 700h137v-597h235v-103h-372v700zM192 -179h25q11 0 19.5 2.5t12.5 10.5v25h-2q-29 0 -45 5.5t-21 11.5v55q5 6 21 13t45 7t45 -7t21 -13v-98q-5 -15 -25 -32.5t-60 -17.5h-36v38z" />
    <glyph glyph-name="lcommaaccent" unicode="&#x13c;" horiz-adv-x="235" 
d="M54 700h127v-700h-127v700zM64 -179h25q11 0 19.5 2.5t12.5 10.5v25h-2q-29 0 -45 5.5t-21 11.5v55q5 6 21 13t45 7t45 -7t21 -13v-98q-5 -15 -25 -32.5t-60 -17.5h-36v38z" />
    <glyph glyph-name="Lcaron" unicode="&#x13d;" horiz-adv-x="477" 
d="M63 700h137v-597h235v-103h-372v700zM280 516l20 184h105v-66l-44 -133h-81v15z" />
    <glyph glyph-name="lcaron" unicode="&#x13e;" horiz-adv-x="387" 
d="M247 516l20 184h105v-66l-44 -133h-81v15zM54 700h127v-700h-127v700z" />
    <glyph glyph-name="Ldot" unicode="&#x13f;" horiz-adv-x="496" 
d="M63 700h137v-597h235v-103h-372v700zM309 419q6 12 23 23.5t46 11.5t46.5 -11.5t22.5 -23.5v-53q-5 -13 -22.5 -24t-46.5 -11t-46 11t-23 24v53z" />
    <glyph glyph-name="ldot" unicode="&#x140;" horiz-adv-x="424" 
d="M257 389q6 12 23 23.5t46 11.5t46.5 -11.5t22.5 -23.5v-53q-5 -13 -22.5 -24t-46.5 -11t-46 11t-23 24v53zM56 700h127v-700h-127v700z" />
    <glyph glyph-name="Lslash" unicode="&#x141;" horiz-adv-x="491" 
d="M25 265l73 37v398h136v-327l151 78v-103l-151 -79v-166h235v-103h-371v198l-73 -38v105z" />
    <glyph glyph-name="lslash" unicode="&#x142;" horiz-adv-x="345" 
d="M29 342l80 46v312h127v-238l80 47v-103l-80 -47v-359h-127v285l-80 -46v103z" />
    <glyph glyph-name="Nacute" unicode="&#x143;" horiz-adv-x="665" 
d="M63 700h160l234 -474h17v474h128v-700h-160l-233 474h-18v-474h-128v700zM294 753l57 142h123v-55l-80 -102h-100v15z" />
    <glyph glyph-name="nacute" unicode="&#x144;" horiz-adv-x="561" 
d="M382 0v407q-8 14 -31.5 31t-65.5 17q-37 0 -63.5 -12t-40.5 -29v-414h-127v541h119v-44q26 23 63 39t87 16q43 0 74.5 -12t54 -30t36.5 -38.5t21 -37.5v-434h-127zM224 612l57 153h123v-56l-80 -113h-100v16z" />
    <glyph glyph-name="Ncommaaccent" unicode="&#x145;" horiz-adv-x="665" 
d="M63 700h160l234 -474h17v474h128v-700h-160l-233 474h-18v-474h-128v700zM287 -176h25q11 0 19.5 2.5t12.5 10.5v25h-2q-29 0 -45 5.5t-21 11.5v55q5 6 21 13t45 7t45 -7t21 -13v-98q-5 -15 -25 -32.5t-60 -17.5h-36v38z" />
    <glyph glyph-name="ncommaaccent" unicode="&#x146;" horiz-adv-x="561" 
d="M382 0v407q-8 14 -31.5 31t-65.5 17q-37 0 -63.5 -12t-40.5 -29v-414h-127v541h119v-44q26 23 63 39t87 16q43 0 74.5 -12t54 -30t36.5 -38.5t21 -37.5v-434h-127zM225 -177h25q11 0 19.5 2.5t12.5 10.5v25h-2q-29 0 -45 5.5t-21 11.5v55q5 6 21 13t45 7t45 -7t21 -13
v-98q-5 -15 -25 -32.5t-60 -17.5h-36v38z" />
    <glyph glyph-name="Ncaron" unicode="&#x147;" horiz-adv-x="665" 
d="M63 700h160l234 -474h17v474h128v-700h-160l-233 474h-18v-474h-128v700zM179 880v15h90l75 -92l75 92h89v-15l-83 -142h-163z" />
    <glyph glyph-name="ncaron" unicode="&#x148;" horiz-adv-x="561" 
d="M382 0v407q-8 14 -31.5 31t-65.5 17q-37 0 -63.5 -12t-40.5 -29v-414h-127v541h119v-44q26 23 63 39t87 16q43 0 74.5 -12t54 -30t36.5 -38.5t21 -37.5v-434h-127zM118 747v15h90l75 -104l75 104h89v-15l-83 -153h-163z" />
    <glyph glyph-name="napostrophe" unicode="&#x149;" horiz-adv-x="561" 
d="M382 0v407q-8 14 -31.5 31t-65.5 17q-37 0 -63.5 -12t-40.5 -29v-414h-127v541h119v-44q26 23 63 39t87 16q43 0 74.5 -12t54 -30t36.5 -38.5t21 -37.5v-434h-127zM29 627h25q11 0 19.5 2.5t12.5 10.5v25h-2q-29 0 -45 5.5t-21 11.5v55q5 6 21 13t45 7t45 -7t21 -13v-98
q-5 -15 -25 -32.5t-60 -17.5h-36v38z" />
    <glyph glyph-name="Eng" unicode="&#x14a;" horiz-adv-x="665" 
d="M63 700h160l236 -481h15v481h128v-729q-12 -28 -34.5 -54.5t-55 -46.5t-75 -32.5t-95.5 -12.5q-14 0 -24.5 0.5t-16.5 1.5v100q5 -1 18 -1.5t21 -0.5q39 0 68 14t46 37l-245 499h-18v-475h-128v700z" />
    <glyph glyph-name="eng" unicode="&#x14b;" horiz-adv-x="561" 
d="M278 -73q42 0 68 20.5t36 46.5v413q-8 14 -31.5 31t-65.5 17q-37 0 -63.5 -12t-40.5 -29v-414h-127v541h119v-44q26 23 63 39t87 16q43 0 74.5 -12t54 -30t36.5 -38.5t21 -37.5v-468q-9 -21 -27 -45t-46.5 -44t-67.5 -33t-90 -13v96z" />
    <glyph glyph-name="Omacron" unicode="&#x14c;" horiz-adv-x="628" 
d="M190 165q13 -29 44 -51.5t80 -22.5t80 22.5t44 51.5v370q-13 29 -44 51.5t-80 22.5t-80 -22.5t-44 -51.5v-370zM53 562q11 25 31.5 52t52 49.5t75.5 37t102 14.5t102 -14.5t75.5 -37t52 -49.5t31.5 -52v-424q-11 -24 -31.5 -51t-52 -49.5t-75.5 -37t-102 -14.5t-102 14.5
t-75.5 37t-52 49.5t-31.5 51v424zM137 856h354v-89h-354v89z" />
    <glyph glyph-name="omacron" unicode="&#x14d;" horiz-adv-x="556" 
d="M46 421q9 21 27.5 45t46.5 43.5t67.5 32.5t90.5 13t90.5 -13t67.5 -32.5t46.5 -43.5t27.5 -45v-301q-9 -21 -27.5 -45t-46.5 -43.5t-67.5 -32.5t-90.5 -13t-90.5 13t-67.5 32.5t-46.5 43.5t-27.5 45v301zM173 145q11 -24 37 -43t68 -19t68.5 19t36.5 43v251
q-10 24 -36.5 43t-68.5 19t-68 -19t-37 -43v-251zM102 723h354v-89h-354v89z" />
    <glyph glyph-name="Obreve" unicode="&#x14e;" horiz-adv-x="628" 
d="M190 165q13 -29 44 -51.5t80 -22.5t80 22.5t44 51.5v370q-13 29 -44 51.5t-80 22.5t-80 -22.5t-44 -51.5v-370zM53 562q11 25 31.5 52t52 49.5t75.5 37t102 14.5t102 -14.5t75.5 -37t52 -49.5t31.5 -52v-424q-11 -24 -31.5 -51t-52 -49.5t-75.5 -37t-102 -14.5t-102 14.5
t-75.5 37t-52 49.5t-31.5 51v424zM151 879h94v-28q4 -9 20 -22.5t49 -13.5t49 13.5t20 22.5v28h93v-46q-8 -17 -21 -33.5t-32.5 -29.5t-46 -20.5t-62.5 -7.5t-62.5 7.5t-46 20.5t-33 29.5t-21.5 33.5v46z" />
    <glyph glyph-name="obreve" unicode="&#x14f;" horiz-adv-x="556" 
d="M46 421q9 21 27.5 45t46.5 43.5t67.5 32.5t90.5 13t90.5 -13t67.5 -32.5t46.5 -43.5t27.5 -45v-301q-9 -21 -27.5 -45t-46.5 -43.5t-67.5 -32.5t-90.5 -13t-90.5 13t-67.5 32.5t-46.5 43.5t-27.5 45v301zM173 145q11 -24 37 -43t68 -19t68.5 19t36.5 43v251
q-10 24 -36.5 43t-68.5 19t-68 -19t-37 -43v-251zM117 732h94v-27q4 -9 20 -22.5t49 -13.5t49 13.5t20 22.5v27h93v-46q-8 -17 -21 -33t-32.5 -29t-46 -20.5t-62.5 -7.5t-62.5 7.5t-46 20.5t-33 29t-21.5 33v46z" />
    <glyph glyph-name="Ohungarumlaut" unicode="&#x150;" horiz-adv-x="628" 
d="M190 165q13 -29 44 -51.5t80 -22.5t80 22.5t44 51.5v370q-13 29 -44 51.5t-80 22.5t-80 -22.5t-44 -51.5v-370zM53 562q11 25 31.5 52t52 49.5t75.5 37t102 14.5t102 -14.5t75.5 -37t52 -49.5t31.5 -52v-424q-11 -24 -31.5 -51t-52 -49.5t-75.5 -37t-102 -14.5t-102 14.5
t-75.5 37t-52 49.5t-31.5 51v424zM179 762l40 142h102v-46l-60 -111h-82v15zM369 762l39 142h101v-46l-59 -111h-81v15z" />
    <glyph glyph-name="ohungarumlaut" unicode="&#x151;" horiz-adv-x="556" 
d="M46 421q9 21 27.5 45t46.5 43.5t67.5 32.5t90.5 13t90.5 -13t67.5 -32.5t46.5 -43.5t27.5 -45v-301q-9 -21 -27.5 -45t-46.5 -43.5t-67.5 -32.5t-90.5 -13t-90.5 13t-67.5 32.5t-46.5 43.5t-27.5 45v301zM173 145q11 -24 37 -43t68 -19t68.5 19t36.5 43v251
q-10 24 -36.5 43t-68.5 19t-68 -19t-37 -43v-251zM140 607l40 153h102v-47l-60 -121h-82v15zM330 607l39 153h101v-47l-59 -121h-81v15z" />
    <glyph glyph-name="OE" unicode="&#x152;" horiz-adv-x="897" 
d="M52 562q11 25 31.5 52t52 49.5t75.5 37t102 14.5q36 0 66.5 -6t56.5 -17v8h412v-103h-275v-187h255v-103h-255v-204h282v-103h-419v8q-26 -10 -56.5 -16t-66.5 -6q-58 0 -102 14.5t-75.5 37t-52 49.5t-31.5 51v424zM189 165q12 -29 43 -51.5t81 -22.5q49 0 79.5 22.5
t43.5 51.5v370q-12 29 -43 51.5t-80 22.5q-50 0 -80.5 -22.5t-43.5 -51.5v-370z" />
    <glyph glyph-name="oe" unicode="&#x153;" horiz-adv-x="882" 
d="M46 421q9 21 27.5 45t46.5 43.5t67.5 32.5t90.5 13q57 0 98 -15t70 -38q29 23 70.5 38t98.5 15q51 0 89.5 -13t65.5 -31.5t43.5 -39t24.5 -35.5v-200h-328v-92q11 -23 37 -42t68 -19t68.5 19t36.5 42v34h118v-73q-8 -15 -24.5 -35.5t-43.5 -39t-65.5 -31.5t-89.5 -13
q-57 0 -98.5 15t-70.5 38q-29 -23 -70 -38t-98 -15q-51 0 -90.5 13t-67.5 32.5t-46.5 43.5t-27.5 45v301zM173 145q11 -24 37 -43t68 -19t68.5 19t36.5 43v251q-10 24 -36.5 43t-68.5 19t-68 -19t-37 -43v-251zM510 321h210v75q-10 24 -36.5 43t-68.5 19t-68 -19t-37 -43
v-75z" />
    <glyph glyph-name="Racute" unicode="&#x154;" horiz-adv-x="603" 
d="M287 267h-87v-267h-137v700h283q65 0 119.5 -31t85.5 -88v-195q-20 -36 -51.5 -63.5t-73.5 -42.5l132 -202v-78h-105zM315 367q76 0 107 58v114q-15 29 -43.5 43.5t-63.5 14.5h-115v-230h115zM231 757l57 142h123v-55l-80 -102h-100v15z" />
    <glyph glyph-name="racute" unicode="&#x155;" horiz-adv-x="371" 
d="M54 541h119v-73q21 30 57.5 51.5t96.5 21.5h8t13 -1v-112q-8 1 -14 1h-10q-55 0 -90.5 -13.5t-52.5 -32.5v-383h-127v541zM141 609l57 153h123v-56l-80 -113h-100v16z" />
    <glyph glyph-name="Rcommaaccent" unicode="&#x156;" horiz-adv-x="603" 
d="M287 267h-87v-267h-137v700h283q65 0 119.5 -31t85.5 -88v-195q-20 -36 -51.5 -63.5t-73.5 -42.5l132 -202v-78h-105zM315 367q76 0 107 58v114q-15 29 -43.5 43.5t-63.5 14.5h-115v-230h115zM253 -179h25q11 0 19.5 2.5t12.5 10.5v25h-2q-29 0 -45 5.5t-21 11.5v55
q5 6 21 13t45 7t45 -7t21 -13v-98q-5 -15 -25 -32.5t-60 -17.5h-36v38z" />
    <glyph glyph-name="rcommaaccent" unicode="&#x157;" horiz-adv-x="371" 
d="M54 541h119v-73q21 30 57.5 51.5t96.5 21.5h8t13 -1v-112q-8 1 -14 1h-10q-55 0 -90.5 -13.5t-52.5 -32.5v-383h-127v541zM63 -179h25q11 0 19.5 2.5t12.5 10.5v25h-2q-29 0 -45 5.5t-21 11.5v55q5 6 21 13t45 7t45 -7t21 -13v-98q-5 -15 -25 -32.5t-60 -17.5h-36v38z
" />
    <glyph glyph-name="Rcaron" unicode="&#x158;" horiz-adv-x="603" 
d="M287 267h-87v-267h-137v700h283q65 0 119.5 -31t85.5 -88v-195q-20 -36 -51.5 -63.5t-73.5 -42.5l132 -202v-78h-105zM315 367q76 0 107 58v114q-15 29 -43.5 43.5t-63.5 14.5h-115v-230h115zM139 884v15h90l75 -92l75 92h89v-15l-83 -142h-163z" />
    <glyph glyph-name="rcaron" unicode="&#x159;" horiz-adv-x="371" 
d="M54 541h119v-73q21 30 57.5 51.5t96.5 21.5h8t13 -1v-112q-8 1 -14 1h-10q-55 0 -90.5 -13.5t-52.5 -32.5v-383h-127v541zM43 745v15h90l75 -104l75 104h89v-15l-83 -153h-163z" />
    <glyph glyph-name="Sacute" unicode="&#x15a;" horiz-adv-x="593" 
d="M45 223h132v-68q11 -23 41 -43.5t78 -20.5q49 0 78.5 21t40.5 43v79q-10 19 -29.5 34t-66.5 26l-60 14q-54 13 -91 27.5t-61 30.5t-38 32.5t-24 33.5v149q10 18 28.5 41t49 44t73 35t100.5 14t101 -14.5t73 -35t49 -43.5t28 -41v-95h-132v59q-11 23 -40.5 43.5
t-78.5 20.5q-48 0 -78 -21.5t-41 -42.5v-64q10 -19 30.5 -33.5t68.5 -25.5l59 -14q54 -13 90 -27.5t60 -30.5t38.5 -33t23.5 -34v-164q-10 -18 -29 -41t-49 -43.5t-72.5 -34.5t-100.5 -14t-100.5 14t-73 34.5t-49 43.5t-28.5 41v104zM244 763l57 142h123v-55l-80 -102h-100
v15z" />
    <glyph glyph-name="sacute" unicode="&#x15b;" horiz-adv-x="516" 
d="M45 172h117v-46q11 -15 34.5 -29.5t61.5 -14.5t61.5 14.5t34.5 29.5v51q-8 15 -28.5 25t-49.5 16l-60 13q-40 9 -69.5 20t-50 23t-33 23.5t-18.5 22.5v134q7 12 23 29t42 33t62.5 27.5t85.5 11.5t86 -11.5t62.5 -27.5t41 -33.5t23.5 -28.5v-83h-117v44q-11 15 -34.5 29.5
t-61.5 14.5t-61.5 -14.5t-34.5 -29.5v-44q9 -15 29.5 -24t49.5 -16l58 -13q80 -18 120 -43t52 -45v-142q-8 -12 -23.5 -29.5t-41.5 -33.5t-62.5 -27.5t-85.5 -11.5t-85.5 11.5t-62.5 28t-42 33.5t-23 29v84zM204 612l57 153h123v-56l-80 -113h-100v16z" />
    <glyph glyph-name="Scircumflex" unicode="&#x15c;" horiz-adv-x="593" 
d="M45 223h132v-68q11 -23 41 -43.5t78 -20.5q49 0 78.5 21t40.5 43v79q-10 19 -29.5 34t-66.5 26l-60 14q-54 13 -91 27.5t-61 30.5t-38 32.5t-24 33.5v149q10 18 28.5 41t49 44t73 35t100.5 14t101 -14.5t73 -35t49 -43.5t28 -41v-95h-132v59q-11 23 -40.5 43.5
t-78.5 20.5q-48 0 -78 -21.5t-41 -42.5v-64q10 -19 30.5 -33.5t68.5 -25.5l59 -14q54 -13 90 -27.5t60 -30.5t38.5 -33t23.5 -34v-164q-10 -18 -29 -41t-49 -43.5t-72.5 -34.5t-100.5 -14t-100.5 14t-73 34.5t-49 43.5t-28.5 41v104zM138 763l83 142h163l83 -142v-15h-89
l-75 93l-75 -93h-90v15z" />
    <glyph glyph-name="scircumflex" unicode="&#x15d;" horiz-adv-x="516" 
d="M45 172h117v-46q11 -15 34.5 -29.5t61.5 -14.5t61.5 14.5t34.5 29.5v51q-8 15 -28.5 25t-49.5 16l-60 13q-40 9 -69.5 20t-50 23t-33 23.5t-18.5 22.5v134q7 12 23 29t42 33t62.5 27.5t85.5 11.5t86 -11.5t62.5 -27.5t41 -33.5t23.5 -28.5v-83h-117v44q-11 15 -34.5 29.5
t-61.5 14.5t-61.5 -14.5t-34.5 -29.5v-44q9 -15 29.5 -24t49.5 -16l58 -13q80 -18 120 -43t52 -45v-142q-8 -12 -23.5 -29.5t-41.5 -33.5t-62.5 -27.5t-85.5 -11.5t-85.5 11.5t-62.5 28t-42 33.5t-23 29v84zM97 608l83 153h163l83 -153v-15h-89l-75 103l-75 -103h-90v15z
" />
    <glyph glyph-name="Scedilla" unicode="&#x15e;" horiz-adv-x="593" 
d="M45 223h132v-68q11 -23 41 -43.5t78 -20.5q49 0 78.5 21t40.5 43v79q-10 19 -29.5 34t-66.5 26l-60 14q-54 13 -91 27.5t-61 30.5t-38 32.5t-24 33.5v149q10 18 28.5 41t49 44t73 35t100.5 14t101 -14.5t73 -35t49 -43.5t28 -41v-95h-132v59q-11 23 -40.5 43.5
t-78.5 20.5q-48 0 -78 -21.5t-41 -42.5v-64q10 -19 30.5 -33.5t68.5 -25.5l59 -14q54 -13 90 -27.5t60 -30.5t38.5 -33t23.5 -34v-164q-10 -18 -29 -41t-49 -43.5t-72.5 -34.5t-100.5 -14t-100.5 14t-73 34.5t-49 43.5t-28.5 41v104zM211 -171q16 -6 34.5 -10.5t38.5 -4.5
t34 6.5t19 14.5v41q-10 19 -50 19h-58l31 108h61l-17 -59h15q38 0 59 -16t29 -33v-85q-12 -25 -42 -40.5t-73 -15.5q-33 0 -58 6t-39 14z" />
    <glyph glyph-name="scedilla" unicode="&#x15f;" horiz-adv-x="516" 
d="M45 172h117v-46q11 -15 34.5 -29.5t61.5 -14.5t61.5 14.5t34.5 29.5v51q-8 15 -28.5 25t-49.5 16l-60 13q-40 9 -69.5 20t-50 23t-33 23.5t-18.5 22.5v134q7 12 23 29t42 33t62.5 27.5t85.5 11.5t86 -11.5t62.5 -27.5t41 -33.5t23.5 -28.5v-83h-117v44q-11 15 -34.5 29.5
t-61.5 14.5t-61.5 -14.5t-34.5 -29.5v-44q9 -15 29.5 -24t49.5 -16l58 -13q80 -18 120 -43t52 -45v-142q-8 -12 -23.5 -29.5t-41.5 -33.5t-62.5 -27.5t-85.5 -11.5t-85.5 11.5t-62.5 28t-42 33.5t-23 29v84zM174 -171q16 -6 34.5 -10.5t38.5 -4.5t34 6.5t19 14.5v41
q-10 19 -50 19h-58l31 108h61l-17 -59h15q38 0 59 -16t29 -33v-85q-12 -25 -42 -40.5t-73 -15.5q-33 0 -58 6t-39 14z" />
    <glyph glyph-name="Scaron" unicode="&#x160;" horiz-adv-x="593" 
d="M45 223h132v-68q11 -23 41 -43.5t78 -20.5q49 0 78.5 21t40.5 43v79q-10 19 -29.5 34t-66.5 26l-60 14q-54 13 -91 27.5t-61 30.5t-38 32.5t-24 33.5v149q10 18 28.5 41t49 44t73 35t100.5 14t101 -14.5t73 -35t49 -43.5t28 -41v-95h-132v59q-11 23 -40.5 43.5
t-78.5 20.5q-48 0 -78 -21.5t-41 -42.5v-64q10 -19 30.5 -33.5t68.5 -25.5l59 -14q54 -13 90 -27.5t60 -30.5t38.5 -33t23.5 -34v-164q-10 -18 -29 -41t-49 -43.5t-72.5 -34.5t-100.5 -14t-100.5 14t-73 34.5t-49 43.5t-28.5 41v104zM138 890v15h90l75 -92l75 92h89v-15
l-83 -142h-163z" />
    <glyph glyph-name="scaron" unicode="&#x161;" horiz-adv-x="516" 
d="M45 172h117v-46q11 -15 34.5 -29.5t61.5 -14.5t61.5 14.5t34.5 29.5v51q-8 15 -28.5 25t-49.5 16l-60 13q-40 9 -69.5 20t-50 23t-33 23.5t-18.5 22.5v134q7 12 23 29t42 33t62.5 27.5t85.5 11.5t86 -11.5t62.5 -27.5t41 -33.5t23.5 -28.5v-83h-117v44q-11 15 -34.5 29.5
t-61.5 14.5t-61.5 -14.5t-34.5 -29.5v-44q9 -15 29.5 -24t49.5 -16l58 -13q80 -18 120 -43t52 -45v-142q-8 -12 -23.5 -29.5t-41.5 -33.5t-62.5 -27.5t-85.5 -11.5t-85.5 11.5t-62.5 28t-42 33.5t-23 29v84zM96 747v15h90l75 -104l75 104h89v-15l-83 -153h-163z" />
    <glyph glyph-name="Tcommaaccent" unicode="&#x162;" horiz-adv-x="534" 
d="M199 597h-175v103h486v-103h-174v-597h-137v597zM189 -171q16 -6 34.5 -10.5t38.5 -4.5t34 6.5t19 14.5v41q-10 19 -50 19h-58l31 108h61l-17 -59h15q38 0 59 -16t29 -33v-85q-12 -25 -42 -40.5t-73 -15.5q-33 0 -58 6t-39 14z" />
    <glyph glyph-name="tcommaaccent" unicode="&#x163;" horiz-adv-x="359" 
d="M24 541h58v113h127v-113h131v-93h-131v-323q3 -5 8.5 -12t16 -13t27 -10.5t40.5 -4.5q13 0 23.5 0.5t15.5 1.5v-87q-10 -3 -31.5 -7t-53.5 -4q-42 0 -72.5 9t-50.5 22.5t-32 30.5t-18 32v365h-58v93zM127 -171q16 -6 34.5 -10.5t38.5 -4.5t34 6.5t19 14.5v41
q-10 19 -50 19h-58l31 108h61l-17 -59h15q38 0 59 -16t29 -33v-85q-12 -25 -42 -40.5t-73 -15.5q-33 0 -58 6t-39 14z" />
    <glyph glyph-name="Tcaron" unicode="&#x164;" horiz-adv-x="534" 
d="M199 597h-175v103h486v-103h-174v-597h-137v597zM103 884v15h90l75 -92l75 92h89v-15l-83 -142h-163z" />
    <glyph glyph-name="tcaron" unicode="&#x165;" horiz-adv-x="423" 
d="M24 541h58v113h127v-113h131v-93h-131v-323q3 -5 8.5 -12t16 -13t27 -10.5t40.5 -4.5q13 0 23.5 0.5t15.5 1.5v-87q-10 -3 -31.5 -7t-53.5 -4q-42 0 -72.5 9t-50.5 22.5t-32 30.5t-18 32v365h-58v93zM279 615l20 184h105v-66l-44 -133h-81v15z" />
    <glyph glyph-name="Tbar" unicode="&#x166;" horiz-adv-x="533" 
d="M74 412h125v185h-175v103h485v-103h-174v-185h126v-84h-126v-328h-136v328h-125v84z" />
    <glyph glyph-name="tbar" unicode="&#x167;" horiz-adv-x="359" 
d="M24 541h58v113h127v-113h131v-93h-131v-119h131v-93h-131v-111q3 -5 8.5 -12t16 -13t27 -10.5t40.5 -4.5q13 0 23.5 0.5t15.5 1.5v-87q-10 -3 -31.5 -7t-53.5 -4q-42 0 -72.5 9t-50.5 22.5t-32 30.5t-18 32v153h-58v93h58v119h-58v93z" />
    <glyph glyph-name="Utilde" unicode="&#x168;" horiz-adv-x="645" 
d="M583 700v-562q-11 -24 -31.5 -51t-52 -49.5t-75.5 -37t-102 -14.5q-57 0 -101 14.5t-75.5 37t-52 49.5t-31.5 51v562h137v-535q11 -29 42.5 -51.5t80.5 -22.5q50 0 80.5 22.5t43.5 51.5v535h137zM133 891h82v-36q3 -13 11.5 -23.5t28.5 -10.5q16 0 29.5 11.5t29.5 25
t37 25t54 11.5q48 0 76.5 -25t33.5 -60v-68h-82v37q-3 13 -12 23t-29 10q-17 0 -30.5 -11.5t-29 -25t-36.5 -24.5t-54 -11q-46 0 -74.5 25t-34.5 60v67z" />
    <glyph glyph-name="utilde" unicode="&#x169;" horiz-adv-x="555" 
d="M179 541v-407q4 -7 11.5 -15.5t18.5 -15.5t27 -12t37 -5q37 0 62 11.5t39 28.5v415h127v-541h-119v42q-26 -23 -62 -38t-85 -15q-43 0 -74.5 12t-53 30t-35 38.5t-20.5 37.5v434h127zM87 746h82v-36q3 -13 11.5 -23.5t28.5 -10.5q16 0 29.5 11.5t29.5 25t37 25t54 11.5
q48 0 76.5 -25t33.5 -60v-68h-82v37q-3 13 -12 23t-29 10q-17 0 -30.5 -11.5t-29 -25t-36.5 -24.5t-54 -11q-46 0 -74.5 25t-34.5 60v67z" />
    <glyph glyph-name="Umacron" unicode="&#x16a;" horiz-adv-x="645" 
d="M583 700v-562q-11 -24 -31.5 -51t-52 -49.5t-75.5 -37t-102 -14.5q-57 0 -101 14.5t-75.5 37t-52 49.5t-31.5 51v562h137v-535q11 -29 42.5 -51.5t80.5 -22.5q50 0 80.5 22.5t43.5 51.5v535h137zM147 849h354v-89h-354v89z" />
    <glyph glyph-name="umacron" unicode="&#x16b;" horiz-adv-x="555" 
d="M179 541v-407q4 -7 11.5 -15.5t18.5 -15.5t27 -12t37 -5q37 0 62 11.5t39 28.5v415h127v-541h-119v42q-26 -23 -62 -38t-85 -15q-43 0 -74.5 12t-53 30t-35 38.5t-20.5 37.5v434h127zM99 723h354v-89h-354v89z" />
    <glyph glyph-name="Ubreve" unicode="&#x16c;" horiz-adv-x="645" 
d="M583 700v-562q-11 -24 -31.5 -51t-52 -49.5t-75.5 -37t-102 -14.5q-57 0 -101 14.5t-75.5 37t-52 49.5t-31.5 51v562h137v-535q11 -29 42.5 -51.5t80.5 -22.5q50 0 80.5 22.5t43.5 51.5v535h137zM161 864h94v-28q4 -9 20 -22.5t49 -13.5t49 13.5t20 22.5v28h93v-46
q-8 -17 -21 -33.5t-32.5 -29.5t-46 -20.5t-62.5 -7.5t-62.5 7.5t-46 20.5t-33 29.5t-21.5 33.5v46z" />
    <glyph glyph-name="ubreve" unicode="&#x16d;" horiz-adv-x="555" 
d="M179 541v-407q4 -7 11.5 -15.5t18.5 -15.5t27 -12t37 -5q37 0 62 11.5t39 28.5v415h127v-541h-119v42q-26 -23 -62 -38t-85 -15q-43 0 -74.5 12t-53 30t-35 38.5t-20.5 37.5v434h127zM113 730h94v-27q4 -9 20 -22.5t49 -13.5t49 13.5t20 22.5v27h93v-46q-8 -17 -21 -33
t-32.5 -29t-46 -20.5t-62.5 -7.5t-62.5 7.5t-46 20.5t-33 29t-21.5 33v46z" />
    <glyph glyph-name="Uring" unicode="&#x16e;" horiz-adv-x="645" 
d="M583 700v-562q-11 -24 -31.5 -51t-52 -49.5t-75.5 -37t-102 -14.5q-57 0 -101 14.5t-75.5 37t-52 49.5t-31.5 51v562h137v-535q11 -29 42.5 -51.5t80.5 -22.5q50 0 80.5 22.5t43.5 51.5v535h137zM274 757q5 -7 18 -14.5t35 -7.5t34.5 7.5t17.5 14.5v59q-5 7 -17.5 14.5
t-34.5 7.5t-35 -7.5t-18 -14.5v-59zM212 830q13 26 43 44t72 18q41 0 71 -18t44 -44v-87q-14 -26 -44 -43.5t-71 -17.5q-42 0 -72 17.5t-43 43.5v87z" />
    <glyph glyph-name="uring" unicode="&#x16f;" horiz-adv-x="555" 
d="M179 541v-407q4 -7 11.5 -15.5t18.5 -15.5t27 -12t37 -5q37 0 62 11.5t39 28.5v415h127v-541h-119v42q-26 -23 -62 -38t-85 -15q-43 0 -74.5 12t-53 30t-35 38.5t-20.5 37.5v434h127zM225 661q5 -7 18 -14.5t35 -7.5t34.5 7.5t17.5 14.5v61q-5 7 -17.5 14.5t-34.5 7.5
t-35 -7.5t-18 -14.5v-61zM163 736q13 26 43 44t72 18q41 0 71 -18t44 -44v-89q-14 -26 -44 -43.5t-71 -17.5q-42 0 -72 17.5t-43 43.5v89z" />
    <glyph glyph-name="Uhungarumlaut" unicode="&#x170;" horiz-adv-x="645" 
d="M583 700v-562q-11 -24 -31.5 -51t-52 -49.5t-75.5 -37t-102 -14.5q-57 0 -101 14.5t-75.5 37t-52 49.5t-31.5 51v562h137v-535q11 -29 42.5 -51.5t80.5 -22.5q50 0 80.5 22.5t43.5 51.5v535h137zM182 756l40 142h102v-46l-60 -111h-82v15zM372 756l39 142h101v-46
l-59 -111h-81v15z" />
    <glyph glyph-name="uhungarumlaut" unicode="&#x171;" horiz-adv-x="555" 
d="M179 541v-407q4 -7 11.5 -15.5t18.5 -15.5t27 -12t37 -5q37 0 62 11.5t39 28.5v415h127v-541h-119v42q-26 -23 -62 -38t-85 -15q-43 0 -74.5 12t-53 30t-35 38.5t-20.5 37.5v434h127zM138 606l40 153h102v-47l-60 -121h-82v15zM328 606l39 153h101v-47l-59 -121h-81v15z
" />
    <glyph glyph-name="Uogonek" unicode="&#x172;" horiz-adv-x="641" 
d="M301 -112q6 14 24 42t50 60q-13 -2 -27 -3t-28 -1q-57 0 -101 14.5t-75.5 37t-52 49.5t-31.5 51v562h137v-535q11 -29 42.5 -51.5t80.5 -22.5q50 0 80.5 22.5t43.5 51.5v535h137v-562q-10 -23 -28 -47t-45 -46q-31 -33 -52 -60.5t-34 -48t-19.5 -34t-8.5 -19.5v-29
q4 -8 16.5 -13.5t29.5 -5.5q16 0 29 2.5t28 9.5v-67q-14 -8 -30.5 -12t-46.5 -4q-40 0 -73 12.5t-46 38.5v73z" />
    <glyph glyph-name="uogonek" unicode="&#x173;" horiz-adv-x="555" 
d="M179 541v-407q4 -7 11.5 -15.5t18.5 -15.5t27 -12t37 -5q37 0 62 11.5t39 28.5v415h127v-541h-119v42q-26 -23 -62 -38t-85 -15q-43 0 -74.5 12t-53 30t-35 38.5t-20.5 37.5v434h127zM306 -112q4 10 15.5 26t28.5 35t39 38t47 34l65 -21q-53 -45 -75.5 -75.5t-27.5 -41.5
v-29q4 -8 16.5 -13.5t29.5 -5.5q16 0 29 2.5t28 9.5v-67q-14 -8 -30.5 -12t-46.5 -4q-40 0 -73 12.5t-45 38.5v73z" />
    <glyph glyph-name="Wcircumflex" unicode="&#x174;" horiz-adv-x="912" 
d="M24 622v78h127l92 -523h18l122 523h133l123 -523h18l93 523h125v-78l-124 -622h-183l-115 458h-17l-115 -458h-173zM286 757l83 142h163l83 -142v-15h-89l-75 93l-75 -93h-90v15z" />
    <glyph glyph-name="wcircumflex" unicode="&#x175;" horiz-adv-x="790" 
d="M34 470v71h119l80 -401h16l94 401h118l93 -401h16l80 401h106v-71l-116 -470h-149l-86 347h-15l-86 -347h-153zM233 606l83 153h163l83 -153v-15h-89l-75 103l-75 -103h-90v15z" />
    <glyph glyph-name="Ycircumflex" unicode="&#x176;" horiz-adv-x="564" 
d="M207 297l-178 325v78h117l129 -260h18l133 260h109v-78l-191 -337v-285h-137v297zM118 757l83 142h163l83 -142v-15h-89l-75 93l-75 -93h-90v15z" />
    <glyph glyph-name="ycircumflex" unicode="&#x177;" horiz-adv-x="519" 
d="M205 7l-172 462v72h119l105 -364h17l102 364h110v-71l-184 -563q-25 -32 -72.5 -54.5t-113.5 -22.5q-24 0 -44.5 2.5t-31.5 5.5v90q10 -2 26 -2h24q35 0 62.5 12t39.5 26zM99 606l83 153h163l83 -153v-15h-89l-75 103l-75 -103h-90v15z" />
    <glyph glyph-name="Ydieresis" unicode="&#x178;" horiz-adv-x="564" 
d="M207 297l-178 325v78h117l129 -260h18l133 260h109v-78l-191 -337v-285h-137v297zM113 845q6 7 20.5 16.5t43.5 9.5t44 -9.5t20 -16.5v-68q-5 -7 -20 -16.5t-44 -9.5t-43.5 9.5t-20.5 16.5v68zM325 845q5 7 20 16.5t44 9.5t44 -9.5t20 -16.5v-68q-5 -7 -20 -16.5
t-44 -9.5t-44 9.5t-20 16.5v68z" />
    <glyph glyph-name="Zacute" unicode="&#x179;" horiz-adv-x="559" 
d="M39 86l308 497v14h-302v103h475v-86l-308 -496v-15h308v-103h-481v86zM226 757l57 142h123v-55l-80 -102h-100v15z" />
    <glyph glyph-name="zacute" unicode="&#x17a;" horiz-adv-x="471" 
d="M29 86l256 351v11h-256v93h413v-81l-261 -356v-11h261v-93h-413v86zM185 609l57 153h123v-56l-80 -113h-100v16z" />
    <glyph glyph-name="Zdotaccent" unicode="&#x17b;" horiz-adv-x="559" 
d="M39 86l308 497v14h-302v103h475v-86l-308 -496v-15h308v-103h-481v86zM223 847q6 13 23 24t46 11t46.5 -11t22.5 -24v-53q-5 -13 -22.5 -24t-46.5 -11t-46 11t-23 24v53z" />
    <glyph glyph-name="zdotaccent" unicode="&#x17c;" horiz-adv-x="471" 
d="M29 86l256 351v11h-256v93h413v-81l-261 -356v-11h261v-93h-413v86zM177 702q6 12 23 23.5t46 11.5t46.5 -11.5t22.5 -23.5v-53q-5 -13 -22.5 -24t-46.5 -11t-46 11t-23 24v53z" />
    <glyph glyph-name="Zcaron" unicode="&#x17d;" horiz-adv-x="559" 
d="M39 86l308 497v14h-302v103h475v-86l-308 -496v-15h308v-103h-481v86zM131 884v15h90l75 -92l75 92h89v-15l-83 -142h-163z" />
    <glyph glyph-name="zcaron" unicode="&#x17e;" horiz-adv-x="471" 
d="M29 86l256 351v11h-256v93h413v-81l-261 -356v-11h261v-93h-413v86zM80 744v15h90l75 -104l75 104h89v-15l-83 -153h-163z" />
    <glyph glyph-name="longs" unicode="&#x17f;" horiz-adv-x="338" 
d="M82 621q6 15 18 31.5t32 30.5t50.5 23t72.5 9q31 0 54 -4t31 -7v-88q-5 1 -15.5 1.5t-23.5 0.5q-24 0 -40.5 -4.5t-27 -10.5t-16 -13t-8.5 -12v-578h-127v621z" />
    <glyph glyph-name="uni018F" unicode="&#x18f;" horiz-adv-x="617" 
d="M427 535q-13 29 -43.5 51.5t-79.5 22.5q-50 0 -81 -22.5t-43 -51.5v-74h-132v111q10 21 30 46t51 46.5t74 36t101 14.5t101.5 -14.5t75 -37t52 -49.5t31.5 -52v-424q-11 -24 -31.5 -51t-52 -49.5t-75.5 -37t-101 -14.5q-58 0 -101.5 14.5t-74 36t-50 46.5t-30.5 46v247
h379v159zM301 91q50 0 82 22.5t44 51.5v119h-251v-122q12 -27 43 -49t82 -22z" />
    <glyph glyph-name="florin" unicode="&#x192;" horiz-adv-x="425" 
d="M79 516h58v103q6 15 18 32t32 31t48.5 23t69.5 9q30 0 54.5 -4t35.5 -8v-85h-46q-23 0 -38 -4.5t-25 -11t-15 -13.5t-7 -13v-59h131v-94h-131v-509q-6 -15 -18 -32t-32 -31t-49 -23t-69 -9q-31 0 -55.5 4t-35.5 7v85h47q23 0 38 4.5t24.5 11t14.5 14t8 12.5v466h-58v94z
" />
    <glyph glyph-name="AEacute" unicode="&#x1fc;" horiz-adv-x="833" 
d="M372 190h-180l-66 -190h-106v78l226 622h537v-103h-274v-187h255v-103h-255v-204h282v-103h-419v190zM228 293h144v304h-38zM431 757l57 142h123v-55l-80 -102h-100v15z" />
    <glyph glyph-name="aeacute" unicode="&#x1fd;" horiz-adv-x="871" 
d="M44 229q6 10 18.5 25.5t34 30t53.5 25t76 10.5q48 0 84.5 -12t62.5 -31v119q-11 25 -37 43.5t-68 18.5q-41 0 -64 -16.5t-32 -28.5v-44h-117v85q6 9 20.5 25.5t40 33.5t63.5 29.5t89 12.5q56 0 97.5 -15t70.5 -38q29 23 70.5 38t98.5 15q51 0 89.5 -13t65.5 -31.5
t43.5 -39t24.5 -35.5v-203h-328v-89q11 -23 37 -42t68 -19t68.5 19t36.5 42v34h118v-73q-8 -15 -24.5 -35.5t-43.5 -39t-65.5 -31.5t-89.5 -13q-68 0 -114.5 21.5t-75.5 50.5q-29 -31 -74.5 -51.5t-114.5 -20.5q-44 0 -76 9.5t-54 23t-34.5 27.5t-17.5 23v160zM262 76
q42 0 69.5 14t41.5 34v59q-14 20 -41.5 34.5t-69.5 14.5t-64 -14t-30 -25v-78q4 -5 11 -11.5t18.5 -12.5t27.5 -10.5t37 -4.5zM500 322h210v74q-10 24 -36.5 43t-68.5 19t-68 -19t-37 -43v-74zM390 609l57 153h123v-56l-80 -113h-100v16z" />
    <glyph glyph-name="Oslashacute" unicode="&#x1fe;" horiz-adv-x="628" 
d="M53 40l32 45q-22 28 -32 53v424q11 25 31.5 52t52 49.5t75.5 37t102 14.5t102 -15t76 -38l27 38h54v-40l-31 -44q11 -14 19 -27.5t14 -26.5v-424q-11 -24 -31.5 -51t-52 -49.5t-75.5 -37t-102 -14.5q-60 0 -104 15t-76 38l-27 -39h-54v40zM314 91q49 0 80 22.5t44 51.5
v303l-233 -329q17 -21 44 -34.5t65 -13.5zM190 233l231 329q-17 20 -43.5 33.5t-63.5 13.5q-49 0 -80 -22.5t-44 -51.5v-302zM267 763l57 142h123v-55l-80 -102h-100v15z" />
    <glyph glyph-name="oslashacute" unicode="&#x1ff;" horiz-adv-x="556" 
d="M46 40l28 34q-19 23 -28 46v301q9 21 27.5 45t46.5 43.5t67.5 32.5t90.5 13q50 0 87.5 -12t66.5 -31l24 29h54v-40l-28 -35q9 -11 16 -22.5t12 -22.5v-301q-9 -21 -27.5 -45t-46.5 -43.5t-67.5 -32.5t-90.5 -13t-88.5 12t-66.5 31l-23 -29h-54v40zM278 83q42 0 68.5 19
t36.5 43v201l-189 -231q14 -14 35 -23t49 -9zM173 195l189 231q-14 14 -35.5 23t-48.5 9q-42 0 -68 -19t-37 -43v-201zM238 612l57 153h123v-56l-80 -113h-100v16z" />
    <glyph glyph-name="Scommaaccent" unicode="&#x218;" horiz-adv-x="593" 
d="M45 223h132v-68q11 -23 41 -43.5t78 -20.5q49 0 78.5 21t40.5 43v79q-10 19 -29.5 34t-66.5 26l-60 14q-54 13 -91 27.5t-61 30.5t-38 32.5t-24 33.5v149q10 18 28.5 41t49 44t73 35t100.5 14t101 -14.5t73 -35t49 -43.5t28 -41v-95h-132v59q-11 23 -40.5 43.5
t-78.5 20.5q-48 0 -78 -21.5t-41 -42.5v-64q10 -19 30.5 -33.5t68.5 -25.5l59 -14q54 -13 90 -27.5t60 -30.5t38.5 -33t23.5 -34v-164q-10 -18 -29 -41t-49 -43.5t-72.5 -34.5t-100.5 -14t-100.5 14t-73 34.5t-49 43.5t-28.5 41v104zM238 -180h25q11 0 19.5 2.5t12.5 10.5
v25h-2q-29 0 -45 5.5t-21 11.5v55q5 6 21 13t45 7t45 -7t21 -13v-98q-5 -15 -25 -32.5t-60 -17.5h-36v38z" />
    <glyph glyph-name="scommaaccent" unicode="&#x219;" horiz-adv-x="516" 
d="M45 172h117v-46q11 -15 34.5 -29.5t61.5 -14.5t61.5 14.5t34.5 29.5v51q-8 15 -28.5 25t-49.5 16l-60 13q-40 9 -69.5 20t-50 23t-33 23.5t-18.5 22.5v134q7 12 23 29t42 33t62.5 27.5t85.5 11.5t86 -11.5t62.5 -27.5t41 -33.5t23.5 -28.5v-83h-117v44q-11 15 -34.5 29.5
t-61.5 14.5t-61.5 -14.5t-34.5 -29.5v-44q9 -15 29.5 -24t49.5 -16l58 -13q80 -18 120 -43t52 -45v-142q-8 -12 -23.5 -29.5t-41.5 -33.5t-62.5 -27.5t-85.5 -11.5t-85.5 11.5t-62.5 28t-42 33.5t-23 29v84zM204 -181h25q11 0 19.5 2.5t12.5 10.5v25h-2q-29 0 -45 5.5
t-21 11.5v55q5 6 21 13t45 7t45 -7t21 -13v-98q-5 -15 -25 -32.5t-60 -17.5h-36v38z" />
    <glyph glyph-name="uni021A" unicode="&#x21a;" horiz-adv-x="534" 
d="M199 597h-175v103h486v-103h-174v-597h-137v597zM212 -179h25q11 0 19.5 2.5t12.5 10.5v25h-2q-29 0 -45 5.5t-21 11.5v55q5 6 21 13t45 7t45 -7t21 -13v-98q-5 -15 -25 -32.5t-60 -17.5h-36v38z" />
    <glyph glyph-name="uni021B" unicode="&#x21b;" horiz-adv-x="359" 
d="M24 541h58v113h127v-113h131v-93h-131v-323q3 -5 8.5 -12t16 -13t27 -10.5t40.5 -4.5q13 0 23.5 0.5t15.5 1.5v-87q-10 -3 -31.5 -7t-53.5 -4q-42 0 -72.5 9t-50.5 22.5t-32 30.5t-18 32v365h-58v93zM156 -179h25q11 0 19.5 2.5t12.5 10.5v25h-2q-29 0 -45 5.5t-21 11.5
v55q5 6 21 13t45 7t45 -7t21 -13v-98q-5 -15 -25 -32.5t-60 -17.5h-36v38z" />
    <glyph glyph-name="dotlessj" unicode="&#x237;" horiz-adv-x="237" 
d="M-50 -73q42 0 68 20.5t36 46.5v547h127v-575q-9 -21 -27 -45t-46 -44t-67.5 -33t-90.5 -13v96z" />
    <glyph glyph-name="uni0259" unicode="&#x259;" horiz-adv-x="544" 
d="M499 120q-9 -21 -27.5 -45t-46.5 -43.5t-67.5 -32.5t-90.5 -13t-89.5 13t-65.5 31.5t-44 39t-24 35.5v203h328v89q-11 23 -37 42t-68 19t-68.5 -19t-36.5 -42v-34h-118v73q7 15 24 35.5t44 39t65.5 31.5t89.5 13t90.5 -13t67.5 -32.5t46.5 -43.5t27.5 -45v-301zM372 218
h-210v-73q10 -24 36.5 -43t68.5 -19t68 19t37 43v73z" />
    <glyph glyph-name="circumflex" unicode="&#x2c6;" 
d="M60 606l83 153h163l83 -153v-15h-89l-75 103l-75 -103h-90v15z" />
    <glyph glyph-name="caron" unicode="&#x2c7;" 
d="M60 744v15h90l75 -104l75 104h89v-15l-83 -153h-163z" />
    <glyph glyph-name="breve" unicode="&#x2d8;" 
d="M62 730h94v-27q4 -9 20 -22.5t49 -13.5t49 13.5t20 22.5v27h93v-46q-8 -17 -21 -33t-32.5 -29t-46 -20.5t-62.5 -7.5t-62.5 7.5t-46 20.5t-33 29t-21.5 33v46z" />
    <glyph glyph-name="dotaccent" unicode="&#x2d9;" 
d="M156 702q6 12 23 23.5t46 11.5t46.5 -11.5t22.5 -23.5v-53q-5 -13 -22.5 -24t-46.5 -11t-46 11t-23 24v53z" />
    <glyph glyph-name="ring" unicode="&#x2da;" 
d="M173 661q5 -7 18 -14.5t35 -7.5t34.5 7.5t17.5 14.5v61q-5 7 -17.5 14.5t-34.5 7.5t-35 -7.5t-18 -14.5v-61zM111 736q13 26 43 44t72 18q41 0 71 -18t44 -44v-89q-14 -26 -44 -43.5t-71 -17.5q-42 0 -72 17.5t-43 43.5v89z" />
    <glyph glyph-name="ogonek" unicode="&#x2db;" 
d="M132 -112q4 10 15.5 26t28.5 35t39 38t47 34l65 -21q-53 -45 -75.5 -75.5t-27.5 -41.5v-29q4 -8 16.5 -13.5t29.5 -5.5q16 0 29 2.5t28 9.5v-67q-14 -8 -30.5 -12t-46.5 -4q-40 0 -73 12.5t-45 38.5v73z" />
    <glyph glyph-name="tilde" unicode="&#x2dc;" 
d="M34 746h82v-36q3 -13 11.5 -23.5t28.5 -10.5q16 0 29.5 11.5t29.5 25t37 25t54 11.5q48 0 76.5 -25t33.5 -60v-68h-82v37q-3 13 -12 23t-29 10q-17 0 -30.5 -11.5t-29 -25t-36.5 -24.5t-54 -11q-46 0 -74.5 25t-34.5 60v67z" />
    <glyph glyph-name="hungarumlaut" unicode="&#x2dd;" 
d="M62 606l40 153h102v-47l-60 -121h-82v15zM252 606l39 153h101v-47l-59 -121h-81v15z" />
    <glyph glyph-name="uni0394" unicode="&#x394;" horiz-adv-x="621" 
d="M27 78l183 622h201l183 -622v-78h-567v78zM167 103h274l-127 473h-17z" />
    <glyph glyph-name="uni03A9" unicode="&#x3a9;" horiz-adv-x="626" 
d="M53 107h148v58q-61 21 -96.5 59.5t-51.5 75.5v262q11 25 31.5 52t52 49.5t75 37t101.5 14.5t101.5 -14.5t75 -37t52 -49.5t31.5 -52v-262q-17 -37 -52.5 -75t-95.5 -59v-59h149v-107h-232v244q39 7 62 28t33 44v219q-12 29 -44 51.5t-80 22.5q-49 0 -80.5 -22.5
t-43.5 -51.5v-219q10 -23 33 -44t62 -28v-244h-231v107z" />
    <glyph glyph-name="uni03BC" unicode="&#x3bc;" horiz-adv-x="554" 
d="M500 0h-118v57q-23 -28 -60 -48t-92 -20q-14 0 -27 2t-24 4v-154h-127v700h127v-412q4 -6 11.5 -13.5t18.5 -14t27 -11.5t37 -5q38 0 62 11.5t38 26.5v418h127v-541z" />
    <glyph glyph-name="pi" unicode="&#x3c0;" horiz-adv-x="700" 
d="M407 449h-169v-449h-127v449h-77v92h629v-92h-129v-324q3 -5 8.5 -12t16 -13t27 -10.5t40.5 -4.5q13 0 23.5 0.5t15.5 1.5v-87q-11 -3 -32.5 -7t-53.5 -4q-42 0 -72 9t-50 22.5t-32 30.5t-18 32v366z" />
    <glyph glyph-name="Wgrave" unicode="&#x1e80;" horiz-adv-x="912" 
d="M24 622v78h127l92 -523h18l122 523h133l123 -523h18l93 523h125v-78l-124 -622h-183l-115 458h-17l-115 -458h-173zM320 844v55h123l57 -142v-15h-99z" />
    <glyph glyph-name="wgrave" unicode="&#x1e81;" horiz-adv-x="790" 
d="M34 470v71h119l80 -401h16l94 401h118l93 -401h16l80 401h106v-71l-116 -470h-149l-86 347h-15l-86 -347h-153zM270 706v56h123l57 -153v-16h-99z" />
    <glyph glyph-name="Wacute" unicode="&#x1e82;" horiz-adv-x="912" 
d="M24 622v78h127l92 -523h18l122 523h133l123 -523h18l93 523h125v-78l-124 -622h-183l-115 458h-17l-115 -458h-173zM396 757l57 142h123v-55l-80 -102h-100v15z" />
    <glyph glyph-name="wacute" unicode="&#x1e83;" horiz-adv-x="790" 
d="M34 470v71h119l80 -401h16l94 401h118l93 -401h16l80 401h106v-71l-116 -470h-149l-86 347h-15l-86 -347h-153zM351 609l57 153h123v-56l-80 -113h-100v16z" />
    <glyph glyph-name="Wdieresis" unicode="&#x1e84;" horiz-adv-x="912" 
d="M24 622v78h127l92 -523h18l122 523h133l123 -523h18l93 523h125v-78l-124 -622h-183l-115 458h-17l-115 -458h-173zM277 845q6 7 20.5 16.5t43.5 9.5t44 -9.5t20 -16.5v-68q-5 -7 -20 -16.5t-44 -9.5t-43.5 9.5t-20.5 16.5v68zM489 845q5 7 20 16.5t44 9.5t44 -9.5
t20 -16.5v-68q-5 -7 -20 -16.5t-44 -9.5t-44 9.5t-20 16.5v68z" />
    <glyph glyph-name="wdieresis" unicode="&#x1e85;" horiz-adv-x="790" 
d="M34 470v71h119l80 -401h16l94 401h118l93 -401h16l80 401h106v-71l-116 -470h-149l-86 347h-15l-86 -347h-153zM228 708q6 6 20.5 15.5t43.5 9.5t44 -9.5t20 -15.5v-73q-5 -7 -20 -16t-44 -9t-43.5 9.5t-20.5 15.5v73zM442 708q5 6 20 15.5t44 9.5t44 -9.5t20 -15.5v-73
q-5 -7 -20 -16t-44 -9t-44 9.5t-20 15.5v73z" />
    <glyph glyph-name="Ygrave" unicode="&#x1ef2;" horiz-adv-x="564" 
d="M207 297l-178 325v78h117l129 -260h18l133 260h109v-78l-191 -337v-285h-137v297zM162 844v55h123l57 -142v-15h-99z" />
    <glyph glyph-name="ygrave" unicode="&#x1ef3;" horiz-adv-x="519" 
d="M205 7l-172 462v72h119l105 -364h17l102 364h110v-71l-184 -563q-25 -32 -72.5 -54.5t-113.5 -22.5q-24 0 -44.5 2.5t-31.5 5.5v90q10 -2 26 -2h24q35 0 62.5 12t39.5 26zM137 706v56h123l57 -153v-16h-99z" />
    <glyph glyph-name="endash" unicode="&#x2013;" horiz-adv-x="565" 
d="M37 387h491v-102h-491v102z" />
    <glyph glyph-name="emdash" unicode="&#x2014;" horiz-adv-x="865" 
d="M37 387h791v-102h-791v102z" />
    <glyph glyph-name="quoteleft" unicode="&#x2018;" horiz-adv-x="211" 
d="M163.003 658.996h-25.998q-8 0 -16.999 -5.5q-9 -5.49902 -13.999 -13.499v-34.998q28.998 0 46.4971 -11.499t22.498 -23.498v-66.9961q-4.99902 -12 -22.498 -23.499t-46.4971 -11.499q-28.999 0 -46.498 11.499q-17.498 11.499 -22.498 23.499v147.99
q2 8 9.49902 18.499q7.5 10.5 18.999 20.499t27.998 16.999t36.498 7h32.998v-54.9971z" />
    <glyph glyph-name="quoteright" unicode="&#x2019;" horiz-adv-x="211" 
d="M49 523h26q8 0 17 5.5t14 13.5v35q-29 0 -46.5 11.5t-22.5 23.5v67q5 12 22.5 23.5t46.5 11.5t46.5 -11.5t22.5 -23.5v-148q-2 -8 -9.5 -18.5t-19 -20.5t-28 -17t-36.5 -7h-33v55z" />
    <glyph glyph-name="quotesinglbase" unicode="&#x201a;" horiz-adv-x="211" 
d="M49 -64h26q8 0 17 5.5t14 13.5v35q-29 0 -46.5 11.5t-22.5 23.5v67q5 12 22.5 23.5t46.5 11.5t46.5 -11.5t22.5 -23.5v-148q-2 -8 -9.5 -18.5t-19 -20.5t-28 -17t-36.5 -7h-33v55z" />
    <glyph glyph-name="quotedblleft" unicode="&#x201c;" horiz-adv-x="405" 
d="M163.003 658.996h-25.998q-8 0 -16.999 -5.5q-9 -5.49902 -13.999 -13.499v-34.998q28.998 0 46.4971 -11.499t22.498 -23.498v-66.9961q-4.99902 -12 -22.498 -23.499t-46.4971 -11.499q-28.999 0 -46.498 11.499q-17.498 11.499 -22.498 23.499v147.99
q2 8 9.49902 18.499q7.5 10.5 18.999 20.499t27.998 16.999t36.498 7h32.998v-54.9971zM357.003 658.996h-25.998q-8 0 -16.999 -5.5q-9 -5.49902 -13.999 -13.499v-34.998q28.998 0 46.4971 -11.499t22.498 -23.498v-66.9961q-4.99902 -12 -22.498 -23.499
t-46.4971 -11.499q-28.999 0 -46.498 11.499q-17.498 11.499 -22.498 23.499v147.99q2 8 9.49902 18.499q7.5 10.5 18.999 20.499t27.998 16.999t36.498 7h32.998v-54.9971z" />
    <glyph glyph-name="quotedblright" unicode="&#x201d;" horiz-adv-x="405" 
d="M49 523h26q8 0 17 5.5t14 13.5v35q-29 0 -46.5 11.5t-22.5 23.5v67q5 12 22.5 23.5t46.5 11.5t46.5 -11.5t22.5 -23.5v-148q-2 -8 -9.5 -18.5t-19 -20.5t-28 -17t-36.5 -7h-33v55zM243 523h26q8 0 17 5.5t14 13.5v35q-29 0 -46.5 11.5t-22.5 23.5v67q5 12 22.5 23.5
t46.5 11.5t46.5 -11.5t22.5 -23.5v-148q-2 -8 -9.5 -18.5t-19 -20.5t-28 -17t-36.5 -7h-33v55z" />
    <glyph glyph-name="quotedblbase" unicode="&#x201e;" horiz-adv-x="406" 
d="M49 -64h26q8 0 17 5.5t14 13.5v35q-29 0 -46.5 11.5t-22.5 23.5v67q5 12 22.5 23.5t46.5 11.5t46.5 -11.5t22.5 -23.5v-148q-2 -8 -9.5 -18.5t-19 -20.5t-28 -17t-36.5 -7h-33v55zM243 -64h26q8 0 17 5.5t14 13.5v35q-29 0 -46.5 11.5t-22.5 23.5v67q5 12 22.5 23.5
t46.5 11.5t46.5 -11.5t22.5 -23.5v-148q-2 -8 -9.5 -18.5t-19 -20.5t-28 -17t-36.5 -7h-33v55z" />
    <glyph glyph-name="dagger" unicode="&#x2020;" horiz-adv-x="639" 
d="M253 370l-128 -10h-93v114h93l126 -11l-2 105v132h138v-132l-3 -105l130 11h93v-114h-93l-132 10l-11 -538h-106z" />
    <glyph glyph-name="daggerdbl" unicode="&#x2021;" horiz-adv-x="659" 
d="M42 284h93l131 -11l-3 164l-128 -10h-93v114h93l126 -11l-1 38v132h138v-132l-1 -38l127 11h93v-114h-93l-129 10l-4 -164l133 11h93v-114h-93l-135 11l-7 -349h-106l-8 349l-133 -11h-93v114z" />
    <glyph glyph-name="bullet" unicode="&#x2022;" horiz-adv-x="342" 
d="M54 414q14 22 44.5 38.5t72.5 16.5q41 0 71 -16t46 -39v-129q-16 -25 -46 -41.5t-71 -16.5q-42 0 -72.5 17.5t-44.5 40.5v129z" />
    <glyph glyph-name="ellipsis" unicode="&#x2026;" horiz-adv-x="618" 
d="M36 92q5 12 22.5 23.5t46.5 11.5t46.5 -11.5t22.5 -23.5v-67q-5 -12 -22.5 -23.5t-46.5 -11.5t-46.5 11.5t-22.5 23.5v67zM240 92q5 12 22.5 23.5t46.5 11.5t46.5 -11.5t22.5 -23.5v-67q-5 -12 -22.5 -23.5t-46.5 -11.5t-46.5 11.5t-22.5 23.5v67zM444 92q5 12 22.5 23.5
t46.5 11.5t46.5 -11.5t22.5 -23.5v-67q-5 -12 -22.5 -23.5t-46.5 -11.5t-46.5 11.5t-22.5 23.5v67z" />
    <glyph glyph-name="perthousand" unicode="&#x2030;" horiz-adv-x="1286" 
d="M137 449q7 -14 26.5 -24.5t46.5 -10.5t46 10.5t26 24.5v157q-7 14 -26 24.5t-46 10.5t-46.5 -10.5t-26.5 -24.5v-157zM45 619q6 16 19.5 32t34 29t48.5 21t63 8t63 -8t48.5 -21t34 -29t19.5 -32v-184q-6 -16 -19.5 -32t-34 -28.5t-48.5 -20.5t-63 -8t-63 8t-48.5 20.5
t-34 28.5t-19.5 32v184zM617 94q8 -14 27 -24.5t46 -10.5q28 0 46.5 10.5t25.5 24.5v157q-7 14 -25.5 25t-46.5 11q-27 0 -46 -11t-27 -25v-157zM525 265q6 16 19.5 31.5t34 28.5t48.5 21t63 8t63 -8t48.5 -21t34 -28.5t19.5 -31.5v-184q-6 -16 -19.5 -32t-34 -29t-48.5 -21
t-63 -8t-63 8t-48.5 21t-34 29t-19.5 32v184zM1003 94q8 -14 27 -24.5t46 -10.5q28 0 46.5 10.5t25.5 24.5v157q-7 14 -25.5 25t-46.5 11q-27 0 -46 -11t-27 -25v-157zM911 265q6 16 19.5 31.5t34 28.5t48.5 21t63 8t63 -8t48.5 -21t34 -28.5t19.5 -31.5v-184
q-6 -16 -19.5 -32t-34 -29t-48.5 -21t-63 -8t-63 8t-48.5 21t-34 29t-19.5 32v184zM181 59l476 641h63v-59l-476 -641h-63v59z" />
    <glyph glyph-name="guilsinglleft" unicode="&#x2039;" horiz-adv-x="348" 
d="M37 242v96l177 203h92v-68l-165 -183l165 -183v-67h-92z" />
    <glyph glyph-name="guilsinglright" unicode="&#x203a;" horiz-adv-x="348" 
d="M42 107l165 183l-165 183v68h93l176 -203v-96l-176 -202h-93v67z" />
    <glyph glyph-name="fraction" unicode="&#x2044;" horiz-adv-x="181" 
d="M-179 59l476 641h63v-59l-476 -641h-63v59z" />
    <glyph glyph-name="zero.superior" unicode="&#x2070;" horiz-adv-x="432" 
d="M50 629q6 12 19.5 26t34.5 26t49 20t63 8t63 -8t48.5 -20t34 -26t19.5 -26v-278q-6 -12 -19.5 -26t-34 -26t-48.5 -20t-63 -8t-63 8t-49 20t-34.5 26t-19.5 26v278zM143 371q7 -12 26 -22t47 -10q27 0 46.5 10t25.5 22v239q-6 11 -25.5 21t-46.5 10q-28 0 -47 -10
t-26 -21v-239z" />
    <glyph glyph-name="four.superior" unicode="&#x2074;" horiz-adv-x="429" 
d="M32 437l175 263h139v-261h55v-70h-55v-89h-89v89h-225v68zM257 439v185h-12l-126 -185h138z" />
    <glyph glyph-name="five.superior" unicode="&#x2075;" horiz-adv-x="412" 
d="M49 403h85v-32q8 -12 27 -22t47 -10q27 0 46 10t27 22v88q-8 12 -26.5 21.5t-46.5 9.5q-29 0 -45 -8.5t-23 -15.5v-11h-85v245h308v-75h-223v-102q17 14 41 22.5t56 8.5q51 0 84 -20.5t45 -43.5v-150q-6 -8 -18 -20t-31.5 -23t-46.5 -18.5t-62 -7.5t-62 7.5t-46.5 18.5
t-32 22.5t-18.5 20.5v63z" />
    <glyph glyph-name="six.superior" unicode="&#x2076;" horiz-adv-x="423" 
d="M50 629q7 12 20.5 26t34 26t48.5 20t63 8t62.5 -7.5t47 -18.5t31.5 -23t18 -20v-64h-87v34q-6 11 -25.5 21t-46.5 10q-28 0 -47 -10t-26 -21v-101q18 16 43 26.5t58 10.5q52 0 85 -20.5t46 -44.5v-141q-6 -8 -18 -19.5t-31.5 -22.5t-47 -19t-62.5 -8t-63 8t-49 20
t-34.5 26t-19.5 26v278zM215 482q-23 0 -40.5 -6.5t-31.5 -16.5v-88q7 -12 26 -22t47 -10q27 0 46.5 10t25.5 22v79q-6 12 -25.5 22t-47.5 10z" />
    <glyph glyph-name="seven.superior" unicode="&#x2077;" horiz-adv-x="370" 
d="M89 333l153 287v5h-215v75h311v-64l-166 -356h-83v53z" />
    <glyph glyph-name="eight.superior" unicode="&#x2078;" horiz-adv-x="424" 
d="M56 644q5 7 17 18t31 21.5t46 18t62 7.5t62 -7.5t46 -18t31 -21.5t17 -18v-105q-6 -8 -19 -19.5t-35 -22.5q25 -13 40.5 -28.5t23.5 -28.5v-89q-6 -12 -19.5 -26t-34.5 -26t-49 -20t-63 -8t-63 8t-49 20t-34.5 26t-19.5 26v89q7 13 22.5 28.5t40.5 28.5q-21 11 -34 22.5
t-19 19.5v105zM139 371q7 -12 26.5 -22t46.5 -10q28 0 47 10t26 22v64q-7 12 -26 22t-47 10q-27 0 -46.5 -10t-26.5 -22v-64zM142 552q7 -8 25 -17t45 -9q28 0 45.5 9t24.5 17v62q-7 8 -24.5 17.5t-45.5 9.5q-27 0 -45 -9.5t-25 -17.5v-62z" />
    <glyph glyph-name="nine.superior" unicode="&#x2079;" horiz-adv-x="422" 
d="M372 351q-6 -12 -19.5 -26t-34.5 -26t-49 -20t-63 -8t-61.5 7.5t-46 18.5t-32 22.5t-18.5 20.5v60h85v-29q7 -12 26.5 -22t46.5 -10t46.5 10t27.5 22v95q-19 -17 -44 -27.5t-59 -10.5q-51 0 -84 20.5t-45 44.5v147q5 8 17 19.5t32 22.5t47 19t62 8t63 -8t49 -20t34.5 -26
t19.5 -26v-278zM208 492q22 0 39.5 6t32.5 17v95q-8 11 -27.5 21t-46.5 10t-46.5 -10t-26.5 -21v-86q7 -11 26.5 -21.5t48.5 -10.5z" />
    <glyph glyph-name="uni20A8" unicode="&#x20a8;" horiz-adv-x="516" 
d="M53 513h243v31q-6 15 -17.5 27t-25.5 20.5t-29 12.5t-28 4h-143v92h456l-9 -65h-116q27 -25 44 -60v-62h54l-9 -65h-45v-52q-14 -29 -36 -52t-49 -39.5t-56.5 -25.5t-58.5 -9h-8l208 -202v-68h-117l-258 270v83h143q13 0 28 4t29 12.5t25.5 20.5t17.5 28v30h-243v65z" />
    <glyph glyph-name="Euro" unicode="&#x20ac;" horiz-adv-x="597" 
d="M29 453h53v129q9 21 29 44t50 43t71 33t92 13t91 -13t68.5 -31t46.5 -38.5t26 -35.5v-88h-121v44q-11 24 -40 42.5t-71 18.5t-71 -18.5t-40 -42.5v-100h244l-9 -65h-235v-65h225l-9 -65h-216v-110q11 -24 40 -43t71 -19t71 19t40 43v43h121v-88q-8 -15 -25.5 -35
t-46.5 -38t-69 -31t-91 -13t-92 13t-71 32.5t-50 43t-29 43.5v140h-53v65h53v65h-53v65z" />
    <glyph glyph-name="uni2117" unicode="&#x2117;" horiz-adv-x="803" 
d="M37 350q0 75 28.5 141.5t78 116t116 78.5t141.5 29t141.5 -29t116 -78.5t78.5 -116t29 -141.5t-29 -141.5t-78.5 -116t-116 -78.5t-141.5 -29t-141.5 29t-116 78.5t-78 116t-28.5 141.5zM401 20q68 0 127.5 26t104 71t70 105t25.5 128t-25.5 128t-70 105t-104 71
t-127.5 26t-127 -26t-103.5 -71t-70 -105t-25.5 -128t25.5 -128t70 -105t103.5 -71t127 -26zM248 580h206q47 0 86.5 -25.5t59.5 -68.5v-134q-20 -43 -59.5 -68t-86.5 -25h-106v-148h-100v469zM435 335q20 0 39 9.5t30 32.5v85q-11 23 -30 32.5t-39 9.5h-87v-169h87z" />
    <glyph glyph-name="trademark" unicode="&#x2122;" horiz-adv-x="801" 
d="M349 700h123l76 -244h11l75 244h118v-390h-80v263h-10l-82 -263h-58l-83 263h-10v-263h-80v390zM25 700h287v-67h-101v-323h-86v323h-100v67z" />
    <glyph glyph-name="Omega" unicode="&#x2126;" horiz-adv-x="626" 
d="M53 107h148v58q-61 21 -96.5 59.5t-51.5 75.5v262q11 25 31.5 52t52 49.5t75 37t101.5 14.5t101.5 -14.5t75 -37t52 -49.5t31.5 -52v-262q-17 -37 -52.5 -75t-95.5 -59v-59h149v-107h-232v244q39 7 62 28t33 44v219q-12 29 -44 51.5t-80 22.5q-49 0 -80.5 -22.5
t-43.5 -51.5v-219q10 -23 33 -44t62 -28v-244h-231v107z" />
    <glyph glyph-name="partialdiff" unicode="&#x2202;" horiz-adv-x="556" 
d="M46 348q7 22 22 45.5t38.5 43t55.5 32t74 12.5q50 0 85 -12.5t62 -35.5v53q-9 21 -29 45t-46 47.5t-55.5 45t-57.5 36.5l82 65q42 -17 80.5 -44.5t69.5 -58t53 -60t30 -50.5v-391q-9 -22 -27.5 -45.5t-46.5 -43.5t-67.5 -33t-90.5 -13t-90.5 13t-67.5 32.5t-46.5 43.5
t-27.5 45v228zM173 145q11 -24 37 -43t68 -19t68.5 19t36.5 43v198q-10 14 -36.5 28t-68.5 14t-68 -19t-37 -43v-178z" />
    <glyph glyph-name="Delta" unicode="&#x2206;" horiz-adv-x="621" 
d="M27 78l183 622h201l183 -622v-78h-567v78zM167 103h274l-127 473h-17z" />
    <glyph glyph-name="product" unicode="&#x220f;" horiz-adv-x="639" 
d="M65 700h509v-800h-137v698h-236v-698h-136v800z" />
    <glyph glyph-name="summation" unicode="&#x2211;" horiz-adv-x="554" 
d="M39 -14l196 315l-196 313v86h476v-102h-298v-24l150 -230v-86l-150 -232v-24h298v-102h-476v86z" />
    <glyph glyph-name="minus" unicode="&#x2212;" horiz-adv-x="585" 
d="M37 387h511v-102h-511v102z" />
    <glyph glyph-name="radical" unicode="&#x221a;" horiz-adv-x="590" 
d="M21 541h150l114 -379h18l150 538h113v-68l-190 -632h-167l-133 445h-55v96z" />
    <glyph glyph-name="infinity" unicode="&#x221e;" horiz-adv-x="752" 
d="M92 469q6 16 19.5 32t34 29t48.5 21t63 8q38 0 68 -9.5t51 -24.5q21 15 50.5 24.5t68.5 9.5q35 0 63 -8t48.5 -21t34 -29t19.5 -32v-258q-6 -16 -19.5 -32t-34 -29t-48.5 -21t-63 -8q-39 0 -68.5 9.5t-50.5 24.5q-21 -15 -51 -24.5t-68 -9.5q-35 0 -63 8t-48.5 21t-34 29
t-19.5 32v258zM567 457q-7 14 -26 24t-46 10t-46.5 -10t-26.5 -24v-234q7 -14 26.5 -23.5t46.5 -9.5t46 9.5t26 23.5v234zM329 457q-7 14 -25.5 24t-46.5 10q-27 0 -46 -10t-26 -24v-234q7 -14 26 -23.5t46 -9.5q28 0 46.5 9.5t25.5 23.5v234z" />
    <glyph glyph-name="integral" unicode="&#x222b;" horiz-adv-x="431" 
d="M20 -86h47q23 0 38 4.5t24.5 11t14.5 14t8 12.5v663q6 15 18 32t31.5 31t48.5 23t69 9q31 0 55.5 -4t35.5 -8v-85h-47q-23 0 -38 -4.5t-24.5 -11t-14.5 -13.5t-8 -13v-662q-6 -15 -18 -32t-31.5 -31t-48.5 -23t-69 -9q-31 0 -55.5 4t-35.5 7v85z" />
    <glyph glyph-name="approxequal" unicode="&#x2248;" horiz-adv-x="585" 
d="M34 263q16 12 37 23q18 8 43.5 15.5t57.5 7.5q36 0 70 -8t67 -17.5t65.5 -17.5t65.5 -8q25 0 45.5 7t35.5 15q18 10 31 22v-112q-13 -10 -30 -17q-14 -7 -34.5 -12t-46.5 -5q-39 0 -73 8t-66.5 17.5t-64.5 17.5t-67 8q-29 0 -54 -8t-43 -18q-21 -11 -39 -25v107zM34 474
q16 12 37 23q18 8 43.5 15.5t57.5 7.5q36 0 70 -8t67 -17.5t65.5 -17.5t65.5 -8q25 0 45.5 7t35.5 15q18 10 31 22v-112q-13 -10 -30 -17q-14 -7 -34.5 -12t-46.5 -5q-39 0 -73 8t-66.5 17.5t-64.5 17.5t-67 8q-29 0 -54 -8t-43 -18q-21 -11 -39 -25v107z" />
    <glyph glyph-name="notequal" unicode="&#x2260;" horiz-adv-x="585" 
d="M37 493h265l39 98h103l-39 -98h143v-102h-183l-42 -109h225v-102h-265l-39 -100h-103l39 100h-143v102h183l42 109h-225v102z" />
    <glyph glyph-name="lessequal" unicode="&#x2264;" horiz-adv-x="585" 
d="M37 403l419 180h92v-70l-349 -132l349 -133v-70h-92l-419 158v67zM37 122h511v-102h-511v102z" />
    <glyph glyph-name="greaterequal" unicode="&#x2265;" horiz-adv-x="585" 
d="M37 248l350 133l-350 132v70h92l419 -180v-67l-419 -158h-92v70zM37 122h511v-102h-511v102z" />
    <glyph glyph-name="lozenge" unicode="&#x25ca;" horiz-adv-x="594" 
d="M40 350l191 350h138l190 -350l-190 -350h-138zM179 350l120 -214l121 214l-121 214z" />
    <glyph glyph-name="commaaccent" unicode="&#xf6c3;" 
d="M170 -179h25q11 0 19.5 2.5t12.5 10.5v25h-2q-29 0 -45 5.5t-21 11.5v55q5 6 21 13t45 7t45 -7t21 -13v-98q-5 -15 -25 -32.5t-60 -17.5h-36v38z" />
    <glyph glyph-name="i.TRK" horiz-adv-x="238" 
d="M50 702q6 12 23 23.5t46 11.5t46.5 -11.5t22.5 -23.5v-53q-5 -13 -22.5 -24t-46.5 -11t-46 11t-23 24v53zM55 541h127v-541h-127v541z" />
    <glyph glyph-name="grave.cap" 
d="M135 844v55h123l57 -142v-15h-99z" />
    <glyph glyph-name="acute.cap" 
d="M135 757l57 142h123v-55l-80 -102h-100v15z" />
    <glyph glyph-name="circumflex.cap" 
d="M60 757l83 142h163l83 -142v-15h-89l-75 93l-75 -93h-90v15z" />
    <glyph glyph-name="caron.cap" 
d="M60 884v15h90l75 -92l75 92h89v-15l-83 -142h-163z" />
    <glyph glyph-name="caron.alt" 
d="M164 516l20 184h105v-66l-44 -133h-81v15z" />
    <glyph glyph-name="commaaccent.alt" 
d="M157 744q5 15 28.5 33t63.5 18h33v-50h-20q-33 0 -40 -12v-25h4q28 0 45.5 -11t22.5 -23v-46q-5 -11 -22.5 -22.5t-45.5 -11.5q-29 0 -46.5 11.5t-22.5 22.5v116z" />
    <glyph glyph-name="tilde.cap" 
d="M33 888h82v-36q3 -13 11.5 -23.5t28.5 -10.5q16 0 29.5 11.5t29.5 25t37 25t54 11.5q48 0 76.5 -25t33.5 -60v-68h-82v37q-3 13 -12 23t-29 10q-17 0 -30.5 -11.5t-29 -25t-36.5 -24.5t-54 -11q-46 0 -74.5 25t-34.5 60v67z" />
    <glyph glyph-name="dieresis.cap" 
d="M56 845q6 7 20.5 16.5t43.5 9.5t44 -9.5t20 -16.5v-68q-5 -7 -20 -16.5t-44 -9.5t-43.5 9.5t-20.5 16.5v68zM268 845q5 7 20 16.5t44 9.5t44 -9.5t20 -16.5v-68q-5 -7 -20 -16.5t-44 -9.5t-44 9.5t-20 16.5v68z" />
    <glyph glyph-name="macron.cap" 
d="M48 849h354v-89h-354v89z" />
    <glyph glyph-name="breve.cap" 
d="M62 873h94v-28q4 -9 20 -22.5t49 -13.5t49 13.5t20 22.5v28h93v-46q-8 -17 -21 -33.5t-32.5 -29.5t-46 -20.5t-62.5 -7.5t-62.5 7.5t-46 20.5t-33 29.5t-21.5 33.5v46z" />
    <glyph glyph-name="ring.cap" 
d="M172 753q5 -7 18 -14.5t35 -7.5t34.5 7.5t17.5 14.5v59q-5 7 -17.5 14.5t-34.5 7.5t-35 -7.5t-18 -14.5v-59zM110 826q13 26 43 44t72 18q41 0 71 -18t44 -44v-87q-14 -26 -44 -43.5t-71 -17.5q-42 0 -72 17.5t-43 43.5v87z" />
    <glyph glyph-name="hungarumlaut.cap" 
d="M62 756l40 142h102v-46l-60 -111h-82v15zM252 756l39 142h101v-46l-59 -111h-81v15z" />
    <glyph glyph-name="dotaccent.cap" 
d="M156 847q6 13 23 24t46 11t46.5 -11t22.5 -24v-53q-5 -13 -22.5 -24t-46.5 -11t-46 11t-23 24v53z" />
    <glyph glyph-name="l.ss01" horiz-adv-x="275" 
d="M51 700h127v-575q3 -5 8.5 -12t16 -13.5t27 -11t40.5 -4.5v-91q-20 -3 -46 -3q-42 0 -72.5 9t-50.5 22.5t-32 30t-18 31.5v617z" />
    <glyph glyph-name="lacute.ss01" horiz-adv-x="275" 
d="M51 700h127v-575q3 -5 8.5 -12t16 -13.5t27 -11t40.5 -4.5v-91q-20 -3 -46 -3q-42 0 -72.5 9t-50.5 22.5t-32 30t-18 31.5v617zM55 757l57 142h123v-55l-80 -102h-100v15z" />
    <glyph glyph-name="lcaron.ss01" horiz-adv-x="387" 
d="M244 516l20 184h105v-66l-44 -133h-81v15zM51 700h127v-575q3 -5 8.5 -12t16 -13.5t27 -11t40.5 -4.5v-91q-20 -3 -46 -3q-42 0 -72.5 9t-50.5 22.5t-32 30t-18 31.5v617z" />
    <glyph glyph-name="lcommaaccent.ss01" horiz-adv-x="275" 
d="M51 700h127v-575q3 -5 8.5 -12t16 -13.5t27 -11t40.5 -4.5v-91q-20 -3 -46 -3q-42 0 -72.5 9t-50.5 22.5t-32 30t-18 31.5v617zM101 -179h25q11 0 19.5 2.5t12.5 10.5v25h-2q-29 0 -45 5.5t-21 11.5v55q5 6 21 13t45 7t45 -7t21 -13v-98q-5 -15 -25 -32.5t-60 -17.5h-36
v38z" />
    <glyph glyph-name="lslash.ss01" horiz-adv-x="345" 
d="M29 342l80 46v312h127v-238l80 47v-103l-80 -47v-234q3 -5 8.5 -12t16 -13t27 -10.5t40.5 -4.5v-93q-20 -3 -46 -3q-42 0 -72.5 9t-50.5 22.5t-32 30.5t-18 32v202l-80 -46v103z" />
    <glyph glyph-name="ldot.ss01" horiz-adv-x="424" 
d="M257 389q6 12 23 23.5t46 11.5t46.5 -11.5t22.5 -23.5v-53q-5 -13 -22.5 -24t-46.5 -11t-46 11t-23 24v53zM53 700h127v-575q3 -5 8.5 -12t16 -13.5t27 -11t40.5 -4.5v-91q-20 -3 -46 -3q-42 0 -72.5 9t-50.5 22.5t-32 30t-18 31.5v617z" />
    </font>
</defs>
</svg>
